<svg xmlns="http://www.w3.org/2000/svg" width="47.401" height="42.403" viewBox="0 0 47.401 42.403">
  <path id="photo_camera_24dp_FILL0_wght500_GRAD0_opsz48" d="M97.681-812.594a9.762,9.762,0,0,0,7.157-2.855,9.584,9.584,0,0,0,2.88-7.091,9.529,9.529,0,0,0-2.877-7.073,9.776,9.776,0,0,0-7.146-2.836,9.721,9.721,0,0,0-7.128,2.832,9.54,9.54,0,0,0-2.858,7.063,9.651,9.651,0,0,0,2.854,7.1A9.653,9.653,0,0,0,97.681-812.594Zm0-3.751a5.991,5.991,0,0,1-4.442-1.769,6.046,6.046,0,0,1-1.753-4.437,5.972,5.972,0,0,1,1.753-4.415,6.031,6.031,0,0,1,4.442-1.747,6.154,6.154,0,0,1,4.478,1.747,5.909,5.909,0,0,1,1.789,4.415,5.981,5.981,0,0,1-1.789,4.437A6.112,6.112,0,0,1,97.684-816.345ZM78-803.817a3.833,3.833,0,0,1-2.793-1.174,3.775,3.775,0,0,1-1.183-2.772v-29.46a3.826,3.826,0,0,1,1.183-2.753A3.782,3.782,0,0,1,78-841.182h8.272l4.4-5.038h14.091l4.414,5.038h8.258a3.833,3.833,0,0,1,2.774,1.207,3.776,3.776,0,0,1,1.216,2.753v29.46a3.725,3.725,0,0,1-1.216,2.772,3.885,3.885,0,0,1-2.774,1.174Zm0-3.946h39.435v-29.46h-10.06L103-842.261H92.456l-4.428,5.038H78ZM97.714-822.521Z" transform="translate(-74.02 846.22)" fill="#fff"/>
</svg>
