<svg xmlns="http://www.w3.org/2000/svg" width="42.304" height="43.568" viewBox="0 0 42.304 43.568">
  <path id="cm1_Y" d="M41.923-836.432a37.51,37.51,0,0,0,1.851-8.305q.457-4.275.553-8.578a6.98,6.98,0,0,1-3.1-2.723A7.878,7.878,0,0,1,40-860.394v-4.357a46.642,46.642,0,0,0,11.273-6.317A63.3,63.3,0,0,0,61.152-880a63.3,63.3,0,0,0,9.879,8.932A46.642,46.642,0,0,0,82.3-864.751v4.357a7.878,7.878,0,0,1-1.226,4.357,6.98,6.98,0,0,1-3.1,2.723q.1,4.3.553,8.578a37.509,37.509,0,0,0,1.851,8.305Zm7.5-28.319H72.882a63.647,63.647,0,0,1-6.754-4.929q-3-2.532-4.975-4.439-1.971,1.906-4.975,4.439A63.646,63.646,0,0,1,49.422-864.751Zm16.537,7.625A2.627,2.627,0,0,0,68-858.08a3.375,3.375,0,0,0,.841-2.315H63.075a3.375,3.375,0,0,0,.841,2.315A2.627,2.627,0,0,0,65.959-857.127Zm-9.614,0a2.627,2.627,0,0,0,2.043-.953,3.375,3.375,0,0,0,.841-2.315H53.46a3.375,3.375,0,0,0,.841,2.315A2.627,2.627,0,0,0,56.345-857.127Zm-9.614,0a2.627,2.627,0,0,0,2.043-.953,3.375,3.375,0,0,0,.841-2.315H43.846a3.375,3.375,0,0,0,.841,2.315A2.627,2.627,0,0,0,46.73-857.127Zm.288,16.338h5.144q.433-3.268.673-6.481t.385-6.481q-.433-.272-.865-.572a4.547,4.547,0,0,1-.817-.735,6.932,6.932,0,0,1-1.562,1.334,7.133,7.133,0,0,1-1.8.79q-.1,3.1-.337,6.127A54.744,54.744,0,0,1,47.019-840.789Zm9.038,0H66.248q-.385-3-.6-5.991t-.361-6.045A5.679,5.679,0,0,1,63-853.505a6.943,6.943,0,0,1-1.851-1.5,6.677,6.677,0,0,1-1.9,1.5,5.943,5.943,0,0,1-2.235.681q-.144,3.05-.361,6.045T56.056-840.789Zm14.085,0h5.144a54.741,54.741,0,0,1-.817-6.018q-.24-3.023-.337-6.127a7.557,7.557,0,0,1-1.827-.79,5.926,5.926,0,0,1-1.538-1.334,4.547,4.547,0,0,1-.817.735q-.433.3-.865.572.144,3.268.409,6.481T70.141-840.789Zm5.432-16.338a2.627,2.627,0,0,0,2.043-.953,3.375,3.375,0,0,0,.841-2.315H72.689a3.375,3.375,0,0,0,.841,2.315A2.627,2.627,0,0,0,75.574-857.127Z" transform="translate(-40 880)" fill="#facf67"/>
</svg>
