<svg xmlns="http://www.w3.org/2000/svg" width="41.806" height="41.951" viewBox="0 0 41.806 41.951">
  <path id="cm4_y" d="M163.216-684.042v4.495a1.566,1.566,0,0,1-.376,1.067,1.186,1.186,0,0,1-.931.431h-.6a1.186,1.186,0,0,1-.931-.431,1.566,1.566,0,0,1-.376-1.067V-701.56l5.185-16.941a1.924,1.924,0,0,1,.736-1.107,2.032,2.032,0,0,1,1.214-.392h27.737a1.621,1.621,0,0,1,1.077.412,2.137,2.137,0,0,1,.672,1.086l5.185,16.941v22.013a1.566,1.566,0,0,1-.376,1.067,1.186,1.186,0,0,1-.931.431h-.6a1.186,1.186,0,0,1-.931-.431,1.566,1.566,0,0,1-.376-1.067v-4.495Zm.483-20.515h34.409L194.259-717H167.547L163.7-704.557Zm-1.086,3v0Zm6.343,10.6a2.618,2.618,0,0,0,2.061-.978,3.521,3.521,0,0,0,.842-2.377,3.44,3.44,0,0,0-.854-2.364,2.666,2.666,0,0,0-2.073-.966,2.618,2.618,0,0,0-2.061.979,3.521,3.521,0,0,0-.841,2.377,3.443,3.443,0,0,0,.853,2.363A2.668,2.668,0,0,0,168.956-690.957Zm23.918,0a2.619,2.619,0,0,0,2.061-.978,3.523,3.523,0,0,0,.841-2.377,3.441,3.441,0,0,0-.853-2.364,2.667,2.667,0,0,0-2.073-.966,2.617,2.617,0,0,0-2.061.979,3.519,3.519,0,0,0-.842,2.377,3.441,3.441,0,0,0,.854,2.363A2.667,2.667,0,0,0,192.874-690.957Zm-30.261,3.919h36.58V-701.56h-36.58Z" transform="translate(-160 720)" fill="#facf67"/>
</svg>
