<svg xmlns="http://www.w3.org/2000/svg" width="30.926" height="43.568" viewBox="0 0 30.926 43.568">
  <path id="restaurant_24dp_FILL0_wght400_GRAD0_opsz24" d="M166.185-836.432v-19.932a8.479,8.479,0,0,1-4.407-3.05A8.446,8.446,0,0,1,160-864.751V-880h4.123v15.249h2.062V-880h4.123v15.249h2.062V-880h4.123v15.249a8.446,8.446,0,0,1-1.778,5.337,8.479,8.479,0,0,1-4.407,3.05v19.932Zm20.617,0v-17.427h-6.185v-15.249a10.8,10.8,0,0,1,3.015-7.706A9.675,9.675,0,0,1,190.926-880v43.568Z" transform="translate(-160 880)" fill="#fff"/>
</svg>
