<svg xmlns="http://www.w3.org/2000/svg" xmlns:xlink="http://www.w3.org/1999/xlink" width="197.687" height="50.538" viewBox="0 0 197.687 50.538">
  <defs>
    <clipPath id="clip-path">
      <rect id="사각형_22" data-name="사각형 22" width="197.687" height="50.538" transform="translate(0 0)" fill="none"/>
    </clipPath>
  </defs>
  <g id="그룹_3" data-name="그룹 3" clip-path="url(#clip-path)">
    <path id="패스_20" data-name="패스 20" d="M73.827,25.268c0,13.956-16.527,25.27-36.916,25.27S0,39.225,0,25.268,16.527,0,36.911,0,73.827,11.315,73.827,25.268" transform="translate(0 0)" fill="#0d3896"/>
    <path id="패스_21" data-name="패스 21" d="M41.076,47.376c-15.788-.691-16.229-1.387-13.332-1.448,0,0,59.325-2.476,14.736-5.7,0,0-7.16-.555,11.978-1.131,0,0,4.925-.84-20.614-2.519,0,0,5.1-2.26,22.053-1.612l-5.54-11.057s-.907-4.587-1.3-6.122S47.643.453,47.643.453C45.97.657,43.96.8,43.96.8,36.978.43,26.73,3.81,26.73,3.81l-2.3.454-.164,2.889a21.321,21.321,0,0,1,.164,5.93c.144,2.56-3.414,8.312-3.414,8.312l2.2,6.139-.1,3.64,2.3,5.474s14.36,1.444,18.407,1.253c0,0,9.16.429-3.348,1,0,0-35.132-.132-25.884,1.291,0,0,16.526,1.38,25.183,1.962,0,0,9.539,1.075-14.968,2.481,0,0-11.484.857-.452,2.944,0,0,18.14,2.753,33.413.018,0,0,5.012-1.392-1.806-.761,0,0-13.266.614-14.887.543" transform="translate(-2.699 -0.104)" fill="#fff"/>
    <path id="패스_22" data-name="패스 22" d="M77.944,30.278S67.355,29.715,65.853,32.6c0,0-3.3,4.576,9.146,3.564,0,0-.9-3.174,2.946-5.885" transform="translate(-13.545 -6.932)" fill="#fc0"/>
    <path id="패스_23" data-name="패스 23" d="M46.424,23.632s-10.557-.577-12.059,2.391c0,0-3.292,4.706,9.118,3.663,0,0-.9-3.264,2.941-6.053" transform="translate(-7.03 -5.408)" fill="#40a629"/>
    <path id="패스_24" data-name="패스 24" d="M61.3,10.3S51,9.742,49.537,12.606c0,0-3.212,4.54,8.9,3.538,0,0-.876-3.154,2.868-5.844" transform="translate(-10.171 -2.351)" fill="#ff7f00"/>
    <path id="패스_25" data-name="패스 25" d="M121.677,21.87a3.282,3.282,0,0,1-2.593,1.26,3.229,3.229,0,0,1-2.567-1.239,4.361,4.361,0,0,1,0-5.658,3.249,3.249,0,0,1,2.567-1.219,3.4,3.4,0,0,1,2.593,1.153,4.064,4.064,0,0,1,1.068,2.862,4.286,4.286,0,0,1-1.068,2.839m23.954-1.454h-5.692V11.94h-8.864V13.7h.874a1.677,1.677,0,0,1,1.316.5,1.542,1.542,0,0,1,.437,1.024V27.4a11.383,11.383,0,0,1-2.014.372c-.789.082-1.966.123-3.047.123h-6.5V25.853a10.449,10.449,0,0,0,4.72-2.6,5.837,5.837,0,0,0,1.775-4.185,6.176,6.176,0,0,0-2.845-5.119,12.343,12.343,0,0,0-13.729,0,6.178,6.178,0,0,0-2.824,5.119,5.832,5.832,0,0,0,1.772,4.185,10.279,10.279,0,0,0,4.629,2.6V27.9h-8.822v3.518h20.068c1.547,0,3.083-.028,4.118-.087a14.994,14.994,0,0,0,2.692-.371V35.6h6.237V23.874h5.692Zm-5.256,20.06h-19.26a.744.744,0,0,1-.481-.142.469.469,0,0,1-.173-.388V33.479h-9.086v1.763h.878a1.823,1.823,0,0,1,1.309.425A1.374,1.374,0,0,1,114,36.693V41.21a2.594,2.594,0,0,0,.876,2.172,4.29,4.29,0,0,0,2.671.687h22.825Z" transform="translate(-22.106 -2.721)" fill="#fff"/>
    <path id="패스_26" data-name="패스 26" d="M160.518,17.791a1.391,1.391,0,0,0-.427-1.024,1.708,1.708,0,0,0-1.263-.423h-.848V14.58h31.092V17.9H166.789v8.426a.623.623,0,0,0,.232.529.92.92,0,0,0,.572.177h21.69v3.249H165.377a5.721,5.721,0,0,1-3.7-.972,4,4,0,0,1-1.161-3.229Zm17.4,21.276h14.745v3.491H156.822V39.067h14.823l-.049-3.526a1.259,1.259,0,0,0-.4-.971,1.529,1.529,0,0,0-1.078-.371h-.676V32.467h8.429Z" transform="translate(-32.452 -3.343)" fill="#fff"/>
    <path id="패스_27" data-name="패스 27" d="M215.047,33.089v7.622a.489.489,0,0,0,.167.388.706.706,0,0,0,.464.142h21.174v3.324H212.237a4.04,4.04,0,0,1-2.58-.689,2.642,2.642,0,0,1-.841-2.17v-5.4a1.391,1.391,0,0,0-.424-1.024,1.721,1.721,0,0,0-1.27-.423h-.843V33.089Zm20.08-7.588h4.682v3.529H225.933v7.526h-6.524V29.031H203.554V25.5h25.38a5.091,5.091,0,0,0,.823-2.223,31.688,31.688,0,0,0,.148-3.41V17.892a.684.684,0,0,0-.167-.532,1.152,1.152,0,0,0-.677-.142H207.122v-3.37h28.642a.482.482,0,0,1,.316.089.317.317,0,0,1,.1.263v5.227a27.3,27.3,0,0,1-.231,3.939,4.8,4.8,0,0,1-.825,2.134" transform="translate(-42.123 -3.175)" fill="#fff"/>
  </g>
</svg>
