<svg width="45" height="45" viewBox="0 0 45 45" fill="none" xmlns="http://www.w3.org/2000/svg">
<mask id="mask0_64_10" style="mask-type:alpha" maskUnits="userSpaceOnUse" x="0" y="0" width="45" height="45">
<rect width="45" height="45" fill="#D9D9D9"/>
</mask>
<g mask="url(#mask0_64_10)">
<path d="M20.625 31.875H13.125C10.5313 31.875 8.32031 30.9609 6.49219 29.1328C4.66406 27.3047 3.75 25.0937 3.75 22.5C3.75 19.9063 4.66406 17.6953 6.49219 15.8672C8.32031 14.0391 10.5313 13.125 13.125 13.125H20.625V16.875H13.125C11.5625 16.875 10.2344 17.4219 9.14062 18.5156C8.04687 19.6094 7.5 20.9375 7.5 22.5C7.5 24.0625 8.04687 25.3906 9.14062 26.4844C10.2344 27.5781 11.5625 28.125 13.125 28.125H20.625V31.875ZM15 24.375V20.625H30V24.375H15ZM24.375 31.875V28.125H31.875C33.4375 28.125 34.7656 27.5781 35.8594 26.4844C36.9531 25.3906 37.5 24.0625 37.5 22.5C37.5 20.9375 36.9531 19.6094 35.8594 18.5156C34.7656 17.4219 33.4375 16.875 31.875 16.875H24.375V13.125H31.875C34.4687 13.125 36.6797 14.0391 38.5078 15.8672C40.3359 17.6953 41.25 19.9063 41.25 22.5C41.25 25.0937 40.3359 27.3047 38.5078 29.1328C36.6797 30.9609 34.4687 31.875 31.875 31.875H24.375Z" fill="white"/>
</g>
</svg>
