<svg width="20" height="18" viewBox="0 0 20 18" fill="none" xmlns="http://www.w3.org/2000/svg">
<mask id="mask0_35_921" style="mask-type:alpha" maskUnits="userSpaceOnUse" x="0" y="0" width="20" height="18">
<rect y="0.181763" width="19.2" height="17.4545" fill="#D9D9D9"/>
</mask>
<g mask="url(#mask0_35_921)">
<path d="M9.59962 7.78459L6.34122 10.747C6.23042 10.8476 6.09115 10.8991 5.92342 10.9015C5.75582 10.9038 5.61402 10.8523 5.49802 10.747C5.38215 10.6415 5.32422 10.5137 5.32422 10.3637C5.32422 10.2136 5.38215 10.0859 5.49802 9.98041L9.09342 6.71186C9.23809 6.58047 9.40682 6.51477 9.59962 6.51477C9.79242 6.51477 9.96115 6.58047 10.1058 6.71186L13.7012 9.98041C13.8119 10.0811 13.8686 10.2077 13.8712 10.3602C13.8738 10.5126 13.8171 10.6415 13.7012 10.747C13.5852 10.8523 13.4447 10.905 13.2796 10.905C13.1146 10.905 12.974 10.8523 12.858 10.747L9.59962 7.78459Z" fill="white"/>
</g>
</svg>
