<svg width="17" height="17" viewBox="0 0 17 17" fill="none" xmlns="http://www.w3.org/2000/svg">
<path d="M8.5 16.8125C7.36031 16.8125 6.28479 16.594 5.27344 16.1571C4.26208 15.7202 3.38008 15.1254 2.62744 14.3726C1.87465 13.6199 1.27979 12.7379 0.842875 11.7266C0.405958 10.7152 0.1875 9.63969 0.1875 8.5C0.1875 7.35127 0.405958 6.27349 0.842875 5.26666C1.27979 4.25982 1.87465 3.38008 2.62744 2.62744C3.38008 1.87465 4.26208 1.27979 5.27344 0.842875C6.28479 0.405959 7.36031 0.1875 8.5 0.1875C9.64873 0.1875 10.7265 0.405959 11.7333 0.842875C12.7402 1.27979 13.6199 1.87465 14.3726 2.62744C15.1254 3.38008 15.7202 4.25982 16.1571 5.26666C16.594 6.27349 16.8125 7.35127 16.8125 8.5C16.8125 9.63969 16.594 10.7152 16.1571 11.7266C15.7202 12.7379 15.1254 13.6199 14.3726 14.3726C13.6199 15.1254 12.7402 15.7202 11.7333 16.1571C10.7265 16.594 9.64873 16.8125 8.5 16.8125ZM8.5 15.4814C8.94654 14.8892 9.32235 14.2918 9.62744 13.6894C9.93252 13.087 10.181 12.4285 10.3729 11.7139H6.62706C6.83021 12.4509 7.08155 13.1207 7.38109 13.7231C7.68049 14.3255 8.05346 14.9116 8.5 15.4814ZM6.80556 15.2408C6.47015 14.7595 6.16893 14.2124 5.90191 13.5995C5.63489 12.9864 5.42736 12.3579 5.27934 11.7139H2.31113C2.77327 12.6226 3.39306 13.386 4.1705 14.0042C4.94794 14.6222 5.82629 15.0344 6.80556 15.2408ZM10.1944 15.2408C11.1737 15.0344 12.0521 14.6222 12.8295 14.0042C13.6069 13.386 14.2267 12.6226 14.6889 11.7139H11.7207C11.5445 12.3634 11.3229 12.9947 11.0559 13.6078C10.789 14.2209 10.5019 14.7652 10.1944 15.2408ZM1.76075 10.4014H5.01356C4.95858 10.0762 4.9187 9.7573 4.89391 9.44478C4.86926 9.13241 4.85694 8.81748 4.85694 8.5C4.85694 8.18252 4.86926 7.86759 4.89391 7.55522C4.9187 7.2427 4.95858 6.92383 5.01356 6.59863H1.76075C1.6766 6.89583 1.61215 7.20485 1.56738 7.52569C1.52246 7.84652 1.5 8.17129 1.5 8.5C1.5 8.82871 1.52246 9.15348 1.56738 9.47431C1.61215 9.79515 1.6766 10.1042 1.76075 10.4014ZM6.32584 10.4014H10.6742C10.729 10.0762 10.7688 9.76015 10.7936 9.45331C10.8182 9.14648 10.8306 8.82871 10.8306 8.5C10.8306 8.17129 10.8182 7.85352 10.7936 7.54669C10.7688 7.23985 10.729 6.92383 10.6742 6.59863H6.32584C6.27101 6.92383 6.2312 7.23985 6.20641 7.54669C6.18176 7.85352 6.16944 8.17129 6.16944 8.5C6.16944 8.82871 6.18176 9.14648 6.20641 9.45331C6.2312 9.76015 6.27101 10.0762 6.32584 10.4014ZM11.9864 10.4014H15.2393C15.3234 10.1042 15.3879 9.79515 15.4326 9.47431C15.4775 9.15348 15.5 8.82871 15.5 8.5C15.5 8.17129 15.4775 7.84652 15.4326 7.52569C15.3879 7.20485 15.3234 6.89583 15.2393 6.59863H11.9864C12.0414 6.92383 12.0813 7.2427 12.1061 7.55522C12.1307 7.86759 12.1431 8.18252 12.1431 8.5C12.1431 8.81748 12.1307 9.13241 12.1061 9.44478C12.0813 9.7573 12.0414 10.0762 11.9864 10.4014ZM11.7207 5.28613H14.6889C14.2212 4.36621 13.6056 3.60277 12.8422 2.99581C12.0787 2.389 11.1962 1.97396 10.1944 1.75069C10.5299 2.25994 10.8282 2.81695 11.0896 3.42172C11.351 4.02634 11.5614 4.64781 11.7207 5.28613ZM6.62706 5.28613H10.3729C10.1698 4.55463 9.91429 3.88066 9.60644 3.26422C9.29844 2.64778 8.92962 2.06591 8.5 1.51859C8.07037 2.06591 7.70156 2.64778 7.39356 3.26422C7.08571 3.88066 6.83021 4.55463 6.62706 5.28613ZM2.31113 5.28613H5.27934C5.43859 4.64781 5.64896 4.02634 5.91044 3.42172C6.17177 2.81695 6.47015 2.25994 6.80556 1.75069C5.79815 1.97396 4.91418 2.39046 4.15366 3.00019C3.39299 3.60977 2.77881 4.37175 2.31113 5.28613Z" fill="white"/>
</svg>
