<svg width="124" height="40" viewBox="0 0 124 40" fill="none" xmlns="http://www.w3.org/2000/svg">
<path d="M101 9.13857C101 9.45648 101.046 9.78596 101.173 10.0981C101.734 11.4854 103.162 12.3408 104.978 11.6183C105.412 11.4449 117.42 6.60682 117.42 6.60682C117.42 6.60682 112.691 18.5951 112.512 19.0401C111.824 20.7569 112.65 22.3118 114.055 22.832C114.368 22.9476 114.691 23.0054 115.009 22.9996C116.16 22.9938 117.172 22.3175 117.669 20.965C117.744 20.7626 123.659 4.52593 123.786 4.13866C123.861 3.90745 124 3.3641 124 2.98839C124 2.18493 123.705 1.42772 123.133 0.855477C122.572 0.289012 121.82 0 121.028 0C120.641 0 120.329 0.069363 119.854 0.219649C119.571 0.312133 104.325 5.98256 103.024 6.4681C101.723 6.95364 101 7.99408 101.006 9.13857" fill="#ED1C24"/>
<path d="M70.5141 17.0847V16.6853H59.8711V19.4076H66.0545C64.4438 24.5062 58.6863 27.5014 58.6863 27.5014L60.2238 29.6513C60.2238 29.6513 70.5141 25.4047 70.5141 17.078V17.0847Z" fill="white"/>
<path d="M67.1529 35.1629V29.8713H63.3789V35.8352C63.3789 37.6988 64.8632 39.0434 66.9 39.0434H78.5946V36.3277H68.4708C67.5522 36.3277 67.1662 35.9616 67.1462 35.1629H67.1529Z" fill="white"/>
<path d="M70.0884 21.7043V24.4266H74.5812V30.9895H78.3552V16.3994H74.5812V21.7043H70.0884Z" fill="white"/>
<path d="M102.61 27.3352H106.383V16.2861H102.61V19.7273H98.6758V22.4163H102.61V27.3352Z" fill="white"/>
<path d="M17.958 29.6646H3.59424V35.8347C3.59424 37.6984 5.07854 39.0429 7.11528 39.0429H18.7966V30.5032C18.7966 30.0373 18.4172 29.6646 17.958 29.6646ZM15.0227 36.3273H8.68611C7.76758 36.3273 7.37487 35.9678 7.36156 35.1624V32.3935H15.0227V36.3273Z" fill="white"/>
<path d="M19.0496 16.7253V16.5989H3.38793V19.3212H15.1026C15.1026 19.5009 15.1026 19.7272 15.1026 19.9469C15.1026 22.4762 14.9761 24.1402 14.9095 24.8191H0V27.5414H22.97V24.8191H18.2708C18.4971 23.9671 19.0562 21.3313 19.0562 16.7253H19.0496Z" fill="white"/>
<path d="M42.5056 31.036C45.6406 30.3504 47.9569 28.0008 47.9569 25.2186C47.9569 23.721 47.2847 22.3499 46.1798 21.2916H50.1867V18.5692H42.5056V16H38.7383V18.5692H31.0573V21.2916H35.0642C33.9593 22.3499 33.287 23.7144 33.287 25.2186C33.287 28.0075 35.6033 30.3504 38.745 31.036V33.7916H29.147V36.5139H52.1103V33.7916H42.5123V31.036H42.5056ZM37.1608 25.1321C37.1608 23.2751 38.7117 21.7575 40.6153 21.7575C42.519 21.7575 44.0698 23.2684 44.0698 25.1321C44.0698 26.9958 42.519 28.5067 40.6153 28.5067C38.7117 28.5067 37.1608 26.9958 37.1608 25.1321Z" fill="white"/>
<path d="M95.3942 27.1022H99.0484C98.8953 26.2169 97.5575 19.0683 94.0763 16.5923H89.8631L86.6216 27.1887H90.4089L92.5654 19.5609C94.3825 21.6908 95.2678 26.4033 95.3876 27.1022H95.3942Z" fill="white"/>
<path d="M96.1463 36.4205C95.1878 36.4205 95.0148 36.1742 95.0148 35.3622V35.0227H106.39V29.2985C106.39 28.806 106.031 28.4199 105.518 28.4199H91.3074V31.0424H102.776V32.4468H91.4072V35.8348C91.4072 37.7983 92.8183 39.043 94.9283 39.043H106.636V36.4205H96.1463Z" fill="white"/>
</svg>
