<svg xmlns="http://www.w3.org/2000/svg" width="178.728" height="169.792" viewBox="0 0 178.728 169.792">
  <path id="pure_ic3" d="M205.11-799.572a8.647,8.647,0,0,0,6.367-2.569,8.647,8.647,0,0,0,2.569-6.367,8.647,8.647,0,0,0-2.569-6.367,8.647,8.647,0,0,0-6.367-2.569,8.647,8.647,0,0,0-6.367,2.569,8.647,8.647,0,0,0-2.569,6.367,8.647,8.647,0,0,0,2.569,6.367A8.647,8.647,0,0,0,205.11-799.572Zm-71.491-17.873H178.3v-17.873H133.618ZM102.341-710.208q-7.6-25.469-14.968-50.826A185.113,185.113,0,0,1,80-812.977q0-20.554,14.3-34.852t34.852-14.3h44.682a45.414,45.414,0,0,1,15.75-13.181,43.658,43.658,0,0,1,20-4.692,12.927,12.927,0,0,1,9.495,3.91,12.927,12.927,0,0,1,3.91,9.495,11.017,11.017,0,0,1-.335,2.681,19.085,19.085,0,0,1-.782,2.457q-.894,2.458-1.676,5.027a41.368,41.368,0,0,0-1.229,5.25l20.33,20.33h19.437v62.332l-25.245,8.266-14.968,50.044h-49.15v-17.873H151.491v17.873Zm13.4-17.873h17.873v-17.873h53.618v17.873H205.11L218.961-774.1l21.894-7.373v-31.5h-8.936l-31.277-31.277a64.2,64.2,0,0,1,.559-8.6,69.483,69.483,0,0,1,1.676-8.378,28.268,28.268,0,0,0-11.394,6.144,25.156,25.156,0,0,0-7.149,10.835H129.15a30.137,30.137,0,0,0-22.118,9.16,30.137,30.137,0,0,0-9.16,22.118,153.444,153.444,0,0,0,6.032,42.783Q109.937-749.3,115.746-728.081ZM169.364-794.657Z" transform="translate(-80 880)" fill="#fff"/>
</svg>
