<svg xmlns="http://www.w3.org/2000/svg" width="135.833" height="169.792" viewBox="0 0 135.833 169.792">
  <path id="pure_ic1" d="M230.251-735.677a6.765,6.765,0,0,0,4.351-2.016,5.93,5.93,0,0,0,1.8-4.351,6.261,6.261,0,0,0-1.91-4.775,6.142,6.142,0,0,0-4.882-1.592q-8.7.637-18.465-4.775t-12.31-19.632a6.242,6.242,0,0,0-2.229-3.82,6.326,6.326,0,0,0-4.139-1.486,6.142,6.142,0,0,0-4.882,2.229,5.737,5.737,0,0,0-1.273,5.2q3.608,19.314,16.979,27.591T230.251-735.677Zm-2.335,25.469q-29.077,0-48.5-19.951T160-779.823q0-21.224,16.873-46.162T227.917-880q34.171,29.077,51.044,54.015t16.873,46.162q0,29.714-19.42,49.664T227.917-710.208Zm0-16.979q22.073,0,36.505-14.963t14.432-37.672q0-15.494-12.841-35.02t-38.1-42.66q-25.257,23.134-38.1,42.66t-12.84,35.02q0,22.71,14.432,37.672T227.917-727.187ZM227.917-795.1Z" transform="translate(-160 880)" fill="#fff"/>
</svg>
