<svg xmlns="http://www.w3.org/2000/svg" width="156.048" height="156.019" viewBox="0 0 156.048 156.019">
  <path id="pure_ic4" d="M142.036-625.71a76.191,76.191,0,0,1-16.183-23.872,69.9,69.9,0,0,1-5.853-28,78.035,78.035,0,0,1,5.509-28.578q5.509-14.117,17.9-26.512a72.591,72.591,0,0,1,19.855-13.773,119.193,119.193,0,0,1,28-9.067,221.087,221.087,0,0,1,36.956-4.017,383.868,383.868,0,0,1,46.483,1.607,413.015,413.015,0,0,1,1.148,44.761,243.936,243.936,0,0,1-3.787,36.842,124.4,124.4,0,0,1-8.723,28.693,69.761,69.761,0,0,1-13.887,20.544Q237.3-614.921,223.639-609.3a72.633,72.633,0,0,1-27.89,5.624,75.98,75.98,0,0,1-29.152-5.853A74.229,74.229,0,0,1,142.036-625.71Zm25.709-3.673a51.045,51.045,0,0,0,13.658,5.624,59.856,59.856,0,0,0,14.346,1.722,54.515,54.515,0,0,0,20.888-4.247,60.88,60.88,0,0,0,19.741-13.658,54.811,54.811,0,0,0,8.378-11.592q4.247-7.46,7.345-19.511a190.471,190.471,0,0,0,4.706-29.152,292.02,292.02,0,0,0,.459-40.744q-11.248-.459-25.365-.344a203.773,203.773,0,0,0-28.119,2.181,135.634,135.634,0,0,0-26.627,6.657A55.532,55.532,0,0,0,156.5-719.822q-10.329,10.329-14.232,20.429a54.019,54.019,0,0,0-3.9,19.511q0,13.543,5.165,23.758t9.067,14.346a160.938,160.938,0,0,1,25.479-35.235,133.624,133.624,0,0,1,36.956-27.66,167.654,167.654,0,0,0-28.808,32.71Q173.943-653.714,167.745-629.382ZM167.745-629.382ZM167.745-629.382Z" transform="translate(-120 759.692)" fill="#fff"/>
</svg>
