<svg xmlns="http://www.w3.org/2000/svg" width="153.636" height="169" viewBox="0 0 153.636 169">
  <path id="pure_ic2" d="M87.682-823.977l61.455-88.341v88.341Zm29.383-15.364h16.708v-24.006Zm43.594,15.364q2.3-5.377,4.993-18.82a138.711,138.711,0,0,0,2.689-27.27,162.393,162.393,0,0,0-2.593-28.423q-2.593-14.6-5.089-21.509,11.715,3.457,23.334,12.867a113.47,113.47,0,0,1,20.933,22.469A124.063,124.063,0,0,1,220.1-855.953a90.551,90.551,0,0,1,5.857,31.976Zm19.973-15.364h28.423A89.6,89.6,0,0,0,198.4-866.419a118.833,118.833,0,0,0-15.652-20.933q.384,4.033.672,8.354t.288,8.93a149.973,149.973,0,0,1-.864,16.708Q181.976-845.678,180.632-839.341Zm-46.859,57.614a26.334,26.334,0,0,1-12.867-3.265,35.632,35.632,0,0,1-10.178-8.258,52.094,52.094,0,0,1-5.857,5.377,28.152,28.152,0,0,1-7.01,4.033,46.045,46.045,0,0,1-11.427-12.387A46.61,46.61,0,0,1,80-812.455H233.636a46.61,46.61,0,0,1-6.434,16.228,46.045,46.045,0,0,1-11.427,12.387,28.151,28.151,0,0,1-7.01-4.033,52.093,52.093,0,0,1-5.857-5.377,38.9,38.9,0,0,1-10.274,8.258,25.8,25.8,0,0,1-12.771,3.265A26.334,26.334,0,0,1,167-784.992a35.632,35.632,0,0,1-10.178-8.258,35.632,35.632,0,0,1-10.178,8.258A26.334,26.334,0,0,1,133.773-781.727ZM80-751v-15.364h7.682a38.289,38.289,0,0,0,12-1.92,38.769,38.769,0,0,0,11.043-5.761,36.914,36.914,0,0,0,11.043,5.665,40.132,40.132,0,0,0,12,1.824,39.2,39.2,0,0,0,11.907-1.824,39.831,39.831,0,0,0,11.139-5.665,36.914,36.914,0,0,0,11.043,5.665,40.132,40.132,0,0,0,12,1.824,39.2,39.2,0,0,0,11.907-1.824,39.831,39.831,0,0,0,11.139-5.665,41.992,41.992,0,0,0,11.139,5.761,37.407,37.407,0,0,0,11.907,1.92h7.682V-751h-7.682a48.121,48.121,0,0,1-11.715-1.44,52.159,52.159,0,0,1-11.331-4.321,52.16,52.16,0,0,1-11.331,4.321A48.121,48.121,0,0,1,179.864-751a48.121,48.121,0,0,1-11.715-1.44,52.16,52.16,0,0,1-11.331-4.321,52.16,52.16,0,0,1-11.331,4.321A48.121,48.121,0,0,1,133.773-751a48.121,48.121,0,0,1-11.715-1.44,52.16,52.16,0,0,1-11.331-4.321A52.16,52.16,0,0,1,99.4-752.44,48.121,48.121,0,0,1,87.682-751ZM133.773-839.341ZM180.632-839.341Z" transform="translate(-80 920)" fill="#fff"/>
</svg>
