<?xml version="1.0" encoding="UTF-8"?>
<svg id="Layer_1" data-name="Layer 1" xmlns="http://www.w3.org/2000/svg" viewBox="0 0 85.26 84.29">
  <defs>
    <style>
      .cls-1 {
        fill: #000;
      }

      .cls-1, .cls-2 {
        stroke-width: 0px;
      }

      .cls-2 {
        fill: #ffb0aa;
      }
    </style>
  </defs>
  <g>
    <path class="cls-1" d="M29.45,5.04l.15.43,2.83-1.02.37,1.02-7.07,2.55-.37-1.02,2.8-1.01-.15-.43-2.26.81-.93-2.57,6.03-2.18.37,1.02-4.64,1.68.2.54,4.68-1.69.36,1.01-2.37.86ZM27.66,7.71l3.45-1.25c1.05-.38,1.66-.06,1.96.76.3.82.03,1.48-1.01,1.85l-3.45,1.25c-1.05.38-1.67.04-1.96-.78-.3-.82-.03-1.46,1.02-1.84ZM31.46,8.14c.22-.08.27-.23.21-.42-.07-.18-.21-.27-.42-.19l-3,1.08c-.22.08-.27.23-.21.42.06.18.21.27.42.19l3-1.08Z"/>
    <path class="cls-1" d="M39.21,5.62l-.03-.25-5.01.64-.12-.94,2.45-.31-.04-.32-2.95.37-.13-1.04,7.46-.95.13,1.04-2.98.38.04.32,2.48-.31.26,2.08-5.01.64.03.25,5.13-.65.12.98-6.57.83-.27-2.13,5.01-.64ZM33.9,3.45l-.34-2.64,1.43-.18.05.39,3.48-.44-.05-.39,1.43-.18.34,2.64-6.34.8ZM38.68,1.84l-.04-.33-3.48.44.04.33,3.48-.44Z"/>
    <path class="cls-1" d="M41.69,6.01l2.97.27.08-.92,1.51.14-.08.92,3,.28-.11,1.23-7.49-.69.11-1.23ZM49.16.71l-.44,4.73-6.38-.59.44-4.73,1.43.13-.11,1.25,3.53.32.11-1.25,1.43.13ZM47.41,4.11l.1-1.09-3.53-.32-.1,1.09,3.53.32Z"/>
    <path class="cls-1" d="M54.08,7.54l-.23.71,2.87.93-.37,1.13-7.16-2.31.37-1.13,2.84.92.23-.71-.53-.17c-1.13-.37-1.58-1.11-1.25-2.15.34-1.04,1.14-1.41,2.28-1.04l2.54.82c1.13.37,1.58,1.13,1.24,2.17-.34,1.04-1.14,1.38-2.27,1.02l-.56-.18ZM51.57,1.62l2.54.82.21-.65,1.47.47-.21.65,2.56.83-.35,1.1-6.57-2.12.35-1.1ZM53.15,4.93c-.49-.16-.79-.12-.92.27-.11.34.03.57.42.7l1.96.63c.49.16.79.13.92-.27.11-.34-.03-.57-.42-.7l-1.96-.63Z"/>
    <path class="cls-1" d="M59.96,9.63l-.68,1.14,4.12,2.44-.6,1.02-5.35-3.17,1.28-2.16,1.24.73ZM60.51,5.9l.66-1.1,1.23.73-.65,1.1-.41,3.32-1.23-.73.32-1.77-1.4,1.13-1.23-.73,2.71-1.96ZM62.31,7.03l.75.44.75-1.26,1.07.64-2.71,4.58-1.07-.64,1.35-2.28-.74-.44.61-1.05ZM65.34,7.12l1.11.66-2.8,4.73-1.11-.66,2.8-4.73Z"/>
    <path class="cls-1" d="M68.49,11.19l-.99,1.05,1.53,1.44-.79.84-1.53-1.44-1.19,1.27,2.45,1.96-.81.86-3.59-2.83,4.68-4.98,3,2.82-.81.86-1.96-1.85ZM69.48,14l.84.79,1.86-1.98,1.05.99-5.13,5.46-1.05-.99,2.4-2.55-.84-.79.87-.92Z"/>
    <path class="cls-1" d="M83.23,34.16l.21,1.42-2.64.38-3.76,2.47-.21-1.46,2.41-1.5-2.74-.75-.21-1.47,4.3,1.3,2.64-.38ZM83.91,37.65l.21,1.42-2.6.38.15,1.05-1.24.18-.15-1.05-3.58.52-.2-1.42,7.41-1.07Z"/>
    <path class="cls-1" d="M83.87,47.3l-.11,1.44-7.47-.56.11-1.44,7.47.56ZM82.48,44.84l-1.28-.1-4.19,1.59.11-1.48,2.65-.94-2.48-1.32.11-1.48,3.91,2.2,1.28.1.13-1.79,1.22.09-.37,4.94-1.22-.09.13-1.72Z"/>
    <path class="cls-1" d="M76.81,54.54l.31.1,1.31-4.29.95.29-1.73,5.68-2.15-.66,1.31-4.28-.34-.1-1.35,4.42-.97-.29,1.77-5.81,2.2.67-1.31,4.29ZM81.82,56.09l-.42,1.37-1.15-.35-.27.89-1.15-.35.27-.89-1.26-.38.42-1.37,3.55,1.08ZM79.97,50.1l3.29,1-1.3,4.25-3.29-1,1.3-4.25ZM80.58,51.76l-.48,1.57,1.23.38.48-1.57-1.23-.38Z"/>
    <path class="cls-1" d="M75.47,56.8l-1.17,2.06,2.11,1.2-.74,1.31-2.11-1.2-1.8,3.17-1.08-.61,3.71-6.54,1.08.61ZM73.67,61.68c.95.68,1.84,1.28,2.79,1.96l2.42-4.27,1.07.61-3.21,5.66-3.8-2.67.73-1.29Z"/>
    <path class="cls-1" d="M70.94,66.53l-5.39,5.24-.85-.87,1.04-1.01-1.29-1.33,1.04-1.01,1.29,1.33,1.22-1.19-1.29-1.33,1.04-1.01,1.29,1.33,1.04-1.01.85.87ZM67.87,70.36l1.6-1.55c1.04-1.01,2.06-1.12,2.98-.17.92.95.82,1.97-.24,2.99l-1.6,1.55c-1.06,1.03-2.09,1.1-3,.15-.92-.95-.77-1.97.26-2.98ZM70.08,72.02l.99-.96c.58-.56.83-.93.34-1.43-.48-.49-.86-.26-1.44.3l-.99.96c-.57.55-.82.93-.34,1.43.49.5.87.25,1.44-.3Z"/>
    <path class="cls-1" d="M62.56,78.98l-1.23.76-3.93-6.38,1.23-.76,3.93,6.38ZM61.99,71.24c.65,1.74,1.23,3.4,1.88,5.14l2.44-1.5.64,1.04-3.88,2.39c-.82-2.12-1.58-4.14-2.4-6.26l1.32-.81Z"/>
    <path class="cls-1" d="M55.41,76.62l-.35-1.03-4.6,1.58-.38-1.1,5.98-2.05.73,2.13-1.38.47ZM53.99,82.57l-1.35.46-1.79-5.23,1.35-.46,1.79,5.23ZM54.99,78.89l-.18-.51-1.72.59-.36-1.04,4.93-1.69.36,1.04-1.83.63.18.51,1.5-.51.98,2.86-4.23,1.45-.35-1.03,2.93-1-.29-.84-3.08,1.06-.34-.99,1.5-.51Z"/>
    <path class="cls-1" d="M43.1,81.45l-.02-.46-3.01.13-.05-1.09,7.52-.33.05,1.09-2.97.13.02.46,2.4-.1.12,2.73-6.41.28-.05-1.09,4.93-.22-.03-.58-4.97.22-.05-1.07,2.52-.11ZM45.61,79.43l-3.67.16c-1.12.05-1.61-.44-1.64-1.31-.04-.87.41-1.42,1.52-1.47l3.67-.16c1.11-.05,1.61.46,1.64,1.33.04.87-.4,1.4-1.52,1.45ZM42.11,77.88c-.23.01-.33.14-.32.33,0,.19.12.32.35.31l3.19-.14c.23-.01.33-.14.32-.33,0-.19-.12-.32-.35-.31l-3.19.14Z"/>
    <path class="cls-1" d="M33.94,78.02l-.05.28,4.98.88-.16.93-2.43-.43-.06.35,2.93.52-.18,1.03-7.4-1.31.18-1.03,2.96.52.06-.35-2.46-.43.37-2.09,4.98.88.05-.28-5.09-.9.17-.98,6.52,1.15-.38,2.15-4.98-.88ZM38.36,81.76l-.43,2.44-6.29-1.11.43-2.44,6.29,1.11ZM36.78,82.49l-3.49-.62-.08.47,3.49.62.08-.47Z"/>
    <path class="cls-1" d="M25.24,78.04l3.3,1.38c1.01.42,1.24,1.08.95,1.77-.29.7-.97,1.02-1.95.61l-3.3-1.38c-1.03-.43-1.21-1.15-.93-1.81.3-.72.94-.98,1.93-.57ZM23.52,77.03l.4-.97,6.94,2.9-.4.97-6.94-2.9ZM26.33,75.4l-.11.27,4.67,1.95-.35.84-6-2.51.81-1.95,4.67,1.95.12-.28-4.78-1.99.38-.91,6.12,2.55-.84,2.02-4.67-1.95ZM24.86,79.54l2.89,1.21c.21.09.35.05.42-.11.07-.17,0-.29-.21-.38l-2.89-1.21c-.21-.09-.35-.05-.42.12-.07.16,0,.29.22.38Z"/>
    <path class="cls-1" d="M14.2,73.72l-1.11-.9,2.44-3.02,1.11.9-2.44,3.02ZM19.63,75.81c-.62.77-1.75,1.04-3.08-.03-1.34-1.08-1.3-2.24-.68-3.01l.13-.16c.6-.75,1.72-1.02,3.06.06,1.33,1.08,1.31,2.23.7,2.98l-.13.16ZM19.28,72.53l.42-.52-2.51-2.03-.42.52-1.1-.89,2.11-2.61,4.7,3.8-2.11,2.61-1.1-.89ZM16.98,73.6c-.3.37-.26.83.29,1.27.55.44,1,.39,1.31.02l.07-.09c.3-.37.26-.83-.29-1.27-.55-.44-1-.39-1.31-.02l-.07.09ZM18.18,68.76l-.33.41,2.51,2.03.33-.41-2.51-2.03Z"/>
    <path class="cls-1" d="M8.17,67.07l-.89-1.12.43-.34-.59-.74.91-.72.59.74.44-.35-.59-.74.91-.73.59.74.51-.41.89,1.12-3.2,2.54ZM12.92,70.08c-.8.64-1.93.68-2.98-.64-1.05-1.33-.75-2.41.05-3.04l.19-.15c.78-.62,1.89-.67,2.94.66,1.05,1.33.76,2.41-.02,3.02l-.19.15ZM10.9,67.46c-.4.32-.47.74-.05,1.27.42.53.85.56,1.25.24l.11-.09c.4-.32.47-.74.05-1.27-.42-.53-.85-.55-1.25-.23l-.11.09ZM13.44,66.82l-1.87-2.35c-.69-.87-.53-1.7.22-2.3.75-.6,1.59-.56,2.29.31l1.87,2.35c.69.87.53,1.7-.22,2.3-.75.6-1.59.56-2.29-.31ZM14.8,65.23l-1.37-1.73c-.26-.33-.48-.44-.75-.22s-.21.45.05.78l1.37,1.73c.26.33.48.44.75.22s.21-.45-.05-.78Z"/>
    <path class="cls-1" d="M9.44,54.06l.58,1.2-3.13,1.52.25.52,3.07-1.49.57,1.18-6.68,3.24-.57-1.18,2.44-1.18-.25-.52-2.44,1.18-.58-1.2,6.74-3.27ZM6.6,63.65l-.54-1.12-.85.41-.61-1.26.85-.41-.5-1.04,1.03-.5,1.66,3.41-1.03.5ZM7.81,58.98l1.31-.64c1.09-.53,1.81-.25,2.32.8.51,1.04.29,1.8-.8,2.33l-1.31.64c-1.09.53-1.82.23-2.32-.81-.51-1.04-.29-1.78.81-2.31ZM8.75,60.94l1.34-.65c.35-.17.5-.35.34-.67-.15-.31-.38-.31-.74-.14l-1.34.65c-.35.17-.49.36-.34.67.15.32.38.31.74.14Z"/>
    <path class="cls-1" d="M3.24,54.69l-1.18.28-1.46-6.19,1.18-.28.55,2.33.53-.13,1.37-3.09.43,1.83-.75,1.8,1.47,1.26.43,1.84-2.6-2.16-.53.12.56,2.38ZM6.32,54.56l-1.72-7.32,1.21-.29.69,2.94,1.85-.44.34,1.46-1.85.44.69,2.91-1.21.29Z"/>
    <path class="cls-1" d="M.02,40.42l-.02-1.33,7.48-.13.02,1.33-7.48.13ZM7.45,40.88l.02,1.31-3.87.07v.85s-1.18.02-1.18.02v-.85s-2.37.04-2.37.04l-.02-1.31,7.42-.13ZM.27,45.28l-.02-1.43,2.66-.05,4.05-1.41.02,1.4-2.27.7,2.29.62.02,1.4-4.09-1.27-2.66.05Z"/>
    <path class="cls-1" d="M5.8,33.39l-.45,2.14c-.32,1.51-1.24,2.09-2.71,1.78-1.44-.3-2.11-1.22-1.79-2.73l.45-2.15c.32-1.51,1.29-2.08,2.74-1.77,1.47.31,2.08,1.21,1.77,2.72ZM2.42,32.94l-.34,1.64c-.16.75.17,1.17.86,1.32.7.15,1.17-.11,1.33-.86l.34-1.64c.16-.75-.17-1.17-.87-1.32-.69-.15-1.16.11-1.32.86ZM7.58,31.04l1.19.25-1.55,7.36-1.19-.25.31-1.46-.97-.2.3-1.42.97.2.33-1.59-.97-.2.3-1.42.97.2.31-1.46Z"/>
  </g>
  <g>
    <path class="cls-2" d="M8.02,16.09c.07.05.14.1.22.14.15.09.32.16.49.2.23.06.47.08.71.03.12-.02.24-.06.35-.11.05-.02.09-.05.14-.08.05-.03.1-.03.15-.05.16-.07.29-.17.4-.31.12-.16.17-.34.17-.54,0-.11-.03-.22-.07-.33-.09-.26-.25-.47-.43-.67-.1-.11-.22-.2-.34-.29,0,0-.02,0-.03,0-.03-.03-.06-.06-.1-.07h0s-.03-.03-.05-.04c-.08-.04-.16-.09-.24-.13-.08-.04-.15-.08-.24-.1-.01-.01-.02-.02-.04-.02h0s-.03-.02-.05-.03c-.07-.02-.15-.05-.22-.08-.09-.03-.19-.06-.29-.07-.06,0-.11-.01-.17-.01-.1,0-.19,0-.29.03-.13.03-.25.09-.37.16-.04.03-.08.05-.11.09h0s-.02,0-.03.02c-.08.09-.17.17-.23.28-.09.14-.14.3-.16.46-.02.12-.02.25,0,.37.02.09.03.18.08.25.04.12.1.22.17.32.02.03.04.07.08.09,0,.04.04.06.07.08h0s.02.03.03.05c.13.12.25.24.4.34ZM8.78,14.39s0,0,0,0c0,0,0,0,0,0,0,0,0,0,0,0ZM8.75,14.95s0,0,0,0c0,0,0,0,0-.01,0,0,0,0,0,0ZM8.49,14.47s0,0,0,0c0,0,0,0,0,0Z"/>
    <path class="cls-2" d="M16.99,14.85c-.21-.08-.43-.15-.64-.21-.24-.07-.48-.12-.72-.18-.18-.04-.36-.07-.55-.1-.28-.04-.56-.08-.84-.09-.08,0-.16-.02-.24,0,0,0-.02,0-.03,0-.12,0-.24,0-.37,0-.02,0-.04,0-.05,0-.04,0-.07,0-.11,0h0c-.08,0-.16,0-.24.01-.04,0-.08,0-.11.01h0s-.01,0-.02,0h0s-.04,0-.05.01c0,0,0,0,0,0h0s0,0,0,0c0,0,0,0,0,0h0s-.02,0-.02,0c0,0-.01,0-.02,0h0s0,0,0,0h0s0,0,0,0c0,0,0,0,0,0,0,0,0,0,0,0h0s.01,0,.02,0c0,0,0,0,0,0,0,0-.01,0-.02,0,0,0-.01,0-.02,0-.01,0-.03,0-.04,0-.12.02-.24.05-.36.08-.25.07-.49.16-.71.3-.06.04-.12.06-.16.12h0s-.01,0-.01,0c-.04.04-.09.07-.13.11-.02.02-.04.04-.06.06-.03.02-.06.05-.08.08-.05.07-.11.14-.15.21-.04.06-.08.13-.1.2,0,0,0,0,0,.01,0,0-.02.02-.01.03,0,0,0,0,0,0,0,0,0,0,0,.01h0s-.03.06-.04.1c-.05.16-.09.32-.11.48,0,.06-.02.12,0,.18,0,.01,0,.02,0,.04,0,.08,0,.17,0,.25,0,.11.01.22.02.34,0,.05.01.09.02.14,0,0,0,.01,0,.02,0,0,0,0,0,.01,0,0,0,0,0,0,0,.02,0,.05,0,.07.04.23.08.46.14.68.07.26.14.51.23.77.07.22.16.43.24.65,0,.01.01.03.02.04.02.07.05.14.08.2,0,0,0,0,0,0,0,.02.01.04.02.06.03.07.05.13.08.2.05.13.12.25.18.37.07.12.14.24.23.35.08.11.17.22.26.31.03.03.06.06.09.08.05.04.1.09.16.13.07.05.14.09.22.14.02.01.05.03.08.03.03.03.06.04.1.04h0s.02.01.03.01c.14.05.28.08.42.09.06,0,.12.01.17,0h0s0,0,0,0c0,0,.01,0,.02,0h0s.1,0,.14-.02c0,0,0,0,0,0,.03,0,.07,0,.1-.02h0c.06,0,.12-.03.18-.04.08-.02.15-.05.23-.09,0,0,0,0,0,0,.09-.03.17-.08.24-.14.02,0,.04-.02.05-.04h0s.02,0,.03-.02c.06-.05.12-.09.17-.14.09-.09.19-.17.27-.27.13-.14.25-.29.38-.44.19-.23.4-.45.6-.68.03-.03.05-.06.07-.09h0s.01-.02.02-.02h0s0,0,0,0c.03-.03.06-.06.08-.09h0s.04-.05.06-.07h0s.05-.06.08-.09c.22-.24.43-.49.64-.73.05-.06.11-.13.16-.19.01-.01.03-.03.03-.05.01-.02.03-.03.04-.05h0s0,0,0,0c.05-.05.08-.1.12-.16.04-.05.08-.11.12-.16.06-.09.12-.19.18-.29.03-.05.06-.09.07-.14h0s0,0,0-.01c.01,0,.02-.02.01-.03,0,0,0,0,0,0h0s0-.01,0-.01c.01-.01.02-.03.02-.04,0,0,0,0,0,0,.03-.04.05-.09.06-.14.03-.05.05-.09.05-.14,0,0,0,0,0,0h0s0,0,0,0c0,0,0,0,0,0,0-.01.01-.02.01-.04,0,0,0,0,0,0,0,0,0,0,0-.01h0c.02-.06.04-.13.05-.19.03-.16.04-.31.01-.47-.05-.31-.19-.56-.41-.78-.05-.05-.1-.1-.15-.15-.06-.07-.13-.14-.2-.2-.1-.09-.22-.15-.34-.19ZM16.41,18.59s-.01,0-.02,0c0,0,.01,0,.02,0ZM15.38,18.79s0,0,0,0h0s0,0,0,0ZM12.45,17.12s0,0,0,0c0,0,0,0,0,0ZM15.19,17.15s-.02-.02-.02-.03c0-.03,0-.05.03-.06,0,0,0,0,.01,0,0,.03-.01.06-.02.09ZM13.6,15.65s0,0,0,0c0,0,0,0,0,0,0,0,0,0,0,0ZM16.04,17.08s0-.02.01-.03c0,.01,0,.02-.01.03ZM14.41,19.64s0,0,0,0c0,0,0,0,0,0ZM13.71,15.48s0,0,0,0c0,0,0,0,0,0,0,0,0,0,0,0ZM16.69,17.39s0,0,0,0c0,0,0,0,0,0ZM15.94,16.07s0,0,0,0c0,0,0-.01,0-.01,0,0,0,.01,0,.02ZM17.24,16.66s0,0,0-.01c0,0,0,0,0,.01ZM16.1,15.12s0,0,0,0c0,0,0,0,0,.01,0,0,0,0,0-.01ZM14.72,19.12s0,0,0,0c0,0,0,0,0,0h0s0,0,0,0ZM17.11,16.81s0,0,0,0c0,0,0,0,0,.01,0,0,0,0,0,0,0,0,0-.01,0-.02ZM13.6,14.94s0,0,0,0c0,0,0,0,0-.01,0,0,0,0,0,0ZM11.73,16.25s0,0,0,0c0,0,0,0,.01,0,0,0,0,0,0,0ZM11.66,16.3s0,0,.01-.01c0,0,0,0-.01.01ZM17.35,16.05s0,0,0,0c0,0,0,0,0,0,0,0,0,0,0,0ZM16.59,15.03s0,.01,0,.02c0,.01,0,.02-.01.02-.01,0-.03,0-.04,0,.01-.02.03-.04.04-.05,0,0,0,0,0,0ZM16.66,17.78s0,0,0,0c0,0,0,0,0,0ZM17.37,15.75s0,0,0,0c0,0,0,0,0,0,0,0,0,0,0,0ZM11.3,15.59s0,0-.01,0c0,0,0,0,.01,0ZM16.71,18.23s-.01.01-.01.02c0,0,0-.01.01-.02ZM17.24,17.96s0,0,0,0c0,0,0,0,0,0,0,0,0,0,0,0Z"/>
    <polygon class="cls-2" points="12.68 12.69 12.68 12.69 12.68 12.69 12.68 12.69"/>
    <path class="cls-2" d="M10.83,13.44c.16.1.34.18.53.21.1.02.21.02.31,0,.02,0,.03,0,.04,0h0c.09-.01.18-.04.27-.09.13-.02.24-.08.35-.15.15-.11.27-.25.32-.43.03-.08.05-.16.03-.25,0,0,0,0,0,0h0s0,0,0,0c0,0,0,0,0,0,0,0,0-.01,0-.02,0,0,0-.01,0-.02,0,0,0,0,0,0,0-.03,0-.06,0-.09h0s0,0,0,0c0-.03,0-.05,0-.08-.03-.25-.08-.49-.17-.73-.08-.22-.18-.42-.31-.61-.08-.11-.16-.22-.25-.33-.09-.11-.19-.21-.3-.3-.04-.04-.09-.07-.14-.11-.05-.04-.11-.08-.16-.11-.02-.01-.04-.04-.07-.04h0s-.1-.07-.16-.09h0s0,0-.01,0c-.01-.01-.02-.02-.04-.02-.14-.07-.28-.1-.43-.11-.05,0-.11-.01-.16,0-.05,0-.09.01-.14.02-.01,0-.02,0-.03.01,0,0-.01,0-.02,0-.18.04-.33.13-.46.25-.14.12-.24.27-.3.45-.03.08-.05.17-.05.26,0,.02-.01.04,0,.06h0,0s0,.04,0,.07c0,.02,0,.05,0,.07,0,.16.04.31.08.46,0,.01.01.03.02.04,0,0,0,.01,0,.02,0,0,0,0,0,.01,0,0,0,.01,0,.02,0,0,0,0,0,0,0,0,0,.01,0,.02h0s0,0,0,0c0,0,0,0,0,.01h0s0,.02,0,.04c.08.23.19.44.32.64.02.04.04.07.07.1,0,0,.01.02.02.02,0,0,0,0,0,0,0,.02.01.03.03.04h0s.04.06.07.08c0,.02.01.03.02.04.04.04.08.09.12.13.07.08.14.14.21.21h0c.12.11.24.21.38.3ZM11.46,11.87s0,0,0,0c0,0,0,0,0,0,0,0,0,0,0,0ZM10.92,11.22s0,0,0,.01c0,0,0,0,0-.01ZM10.38,10.82s0,0,0,.01c0,0,0,0,0,0,0,0,0-.01,0-.02,0,0,.01,0,.02,0,0,0,0,0,0,.01ZM10.51,10.17s0,0,0-.01c0,0,0,0,0,.01ZM12.3,13.26s0,0,0,0c0,0,0,0,0,0,0,0,0,0,0,0ZM10.29,10.1s0,0,0,0c0,0-.01,0-.02,0h0s.01,0,.02,0Z"/>
    <polygon class="cls-2" points="9.53 19.98 9.53 19.98 9.53 19.98 9.53 19.98"/>
    <polygon class="cls-2" points="9.51 19.98 9.51 19.98 9.51 19.98 9.51 19.98"/>
    <path class="cls-2" d="M10.72,19.03c.04-.06.06-.12.07-.19.02-.1.03-.2.02-.3-.01-.12-.05-.24-.13-.34-.04-.05-.08-.11-.12-.16-.05-.05-.09-.12-.15-.16h0s-.02-.02-.03-.03h0s-.01-.01-.02-.02h0s-.03-.04-.05-.06c-.06-.04-.12-.09-.18-.14-.01,0-.02-.02-.04-.02,0,0,0,0,0,0-.04-.04-.09-.07-.13-.1-.09-.06-.19-.12-.3-.15-.05-.01-.09-.03-.14-.05-.21-.07-.42-.1-.64-.07-.1.01-.19.03-.28.06-.03,0-.06.01-.08.03,0,0,0,0,0,0-.01,0-.02,0-.03.01h0c-.07.02-.13.05-.19.1h0s-.02,0-.03.01c-.15.1-.27.23-.36.38-.14.24-.18.5-.15.77.02.16.08.32.15.46.04.07.08.15.15.2h0s0,0,0,0c0,0,0,0,0,0,.01.03.04.05.07.08,0,0,.01.01.02.02h0s0,.02.02.03c.11.11.24.21.38.29.02.01.04.04.07.04.02.01.03.03.06.03,0,0,0,0,0,0,0,0,0,0,.01,0h0c.1.05.21.09.31.12.05.01.1.03.15.03,0,0,.02.01.03,0h0s0,0,0,0h0s.01,0,.02,0c0,0,0,0,0,0,0,0-.01,0-.02,0,0,0,.01,0,.02,0,.02.01.04.01.06,0h0s0,0,0,0h0s0,0,0,0c0,0,.02,0,.02,0,0,0,0,0,0,0,0,0,0,0,.01,0,0,0,.01,0,.02,0,0,0,.01,0,.02,0,.02.01.05.01.08,0,0,0,.02.01.03,0h0s0,0,0,0h0s.01,0,.02,0h0s.01,0,.02,0c0,0,.01,0,.02,0,0,0,.01,0,.02,0h0s-.02,0-.02,0c0,0,.02,0,.02,0,0,0,0,0,0,0h0s0,0,0,0c0,0,0,0,0,0,.1,0,.2,0,.3-.04,0,0,0,0,0,0,.01,0,.02,0,.03-.01,0,0,.01,0,.02,0,.01,0,.02,0,.03-.01,0,0,.01,0,.02,0,0,0-.01,0-.02,0h0s.01,0,.02,0c0,0,0,0,.01,0,0,0,.01,0,.02,0,.07-.02.14-.05.19-.1h0c.1-.04.17-.11.24-.18.05-.04.08-.09.12-.15.07-.1.12-.21.14-.32,0-.04.02-.07.04-.11ZM8.56,17.99s0,0,0,0c0,0,0,.01,0,.02,0,0,0-.01,0-.02ZM8.34,18.91s0,0,0,0c0,0,0,0,0,0,0,0,0,0,0,0,0,0,0,0,0,0ZM9.57,18.21s0,0,0,0c0,0,0,0,0,0ZM9.65,19.62s0,0,0,0c0,0,0,0,0,0,0,0,0,0,0,0ZM10.45,18.62s0-.01-.01-.02c0,0,.01,0,.01.02ZM9.33,19.97s.01,0,.02,0c0,0,0,0,0,0,0,0-.01,0-.02,0ZM9.89,19.92s0,0,0,0c0,0,.01,0,.02,0h0s-.01,0-.02,0Z"/>
    <path class="cls-2" d="M15.16,10.59c-.09-.09-.19-.17-.3-.24-.02-.01-.04-.03-.07-.03h0c-.07-.04-.14-.07-.22-.07-.03-.01-.07-.02-.11-.01h0s-.07-.01-.1,0c-.13,0-.26.03-.38.09-.11.05-.2.12-.28.2-.01.01-.03.03-.04.04-.03.06-.08.1-.11.16-.06.09-.1.18-.13.28-.05.21-.07.42-.06.63,0,.17.04.35.08.51.01.05.02.1.05.14h0s0,.03,0,.04c.03.06.05.12.08.18.05.1.11.21.18.3.04.05.08.1.11.16.05.1.13.19.22.25.03.02.06.05.1.06h0c.07.05.15.08.24.09h0s.04.01.07.01c.09.01.17,0,.26-.03.06-.01.12-.03.17-.06.02,0,.04-.01.06-.02.11-.06.21-.14.27-.25.02-.02.03-.03.05-.05.03-.04.06-.08.08-.13,0,0,0,0,0,0h0s0-.01,0-.01h0s.01-.02.02-.02c.12-.23.2-.46.23-.71,0-.09.02-.19.01-.28,0-.18-.04-.36-.09-.53-.01-.05-.03-.09-.06-.13,0-.01,0-.02-.01-.03,0-.02-.01-.03-.02-.04,0,0,0,0,0,0,0-.04-.03-.08-.06-.11,0-.02-.01-.03-.02-.04,0-.02-.01-.03-.02-.04h0s0,0,0,0c0,0,0,0,0,0,0-.02-.01-.03-.03-.04h0s-.01-.01-.02-.02c0,0,0-.01,0-.01-.04-.05-.08-.11-.13-.15h0s0-.02-.02-.03ZM14.43,11.66s0,0,0,0c0,0,0,0,0,0,0,0,0,0,0,0ZM14.98,10.81s0,0,0,0c0,0,0,0,0,0,0,0,0,0,0,0ZM14.33,12.87s0,0,0,0c0,0,0,0,0,0,0,0,0,0,0,0ZM15.05,13.09s0,0,.01-.01c0,0,0,.01-.01.01ZM15.38,12.84s0,0,.01,0h0s0,0-.01,0Z"/>
    <path class="cls-2" d="M13.07,14.3s.01,0,.02,0c0,0-.01,0-.02,0Z"/>
    <path class="cls-2" d="M9.48,19.98s-.01,0-.02,0c0,0,.01,0,.02,0Z"/>
    <path class="cls-2" d="M13.77,21.29s-.01,0-.02,0c0,0,.01,0,.02,0Z"/>
  </g>
  <g>
    <path class="cls-2" d="M81.3,20.37c-.08.03-.16.07-.23.11-.16.08-.3.19-.43.31-.17.17-.31.36-.4.59-.04.12-.08.23-.09.36,0,.05,0,.11,0,.16,0,.06-.03.1-.04.16-.03.17-.01.34.05.5.08.19.2.32.37.42.1.06.21.09.32.11.27.06.53.04.8-.01.15-.03.29-.08.42-.14,0,0,.02-.01.02-.02.04-.01.08-.02.11-.05h0s.04-.01.06-.02c.08-.04.16-.09.23-.14.07-.05.15-.09.21-.15.02,0,.03-.01.04-.03h0s.04-.02.05-.03c.06-.05.12-.1.18-.15.08-.06.15-.13.21-.21.03-.04.07-.09.1-.14.05-.08.1-.17.13-.26.04-.13.06-.26.05-.4,0-.05,0-.09-.02-.14h0s0-.03,0-.04c-.03-.11-.06-.23-.11-.34-.08-.15-.18-.28-.31-.38-.1-.08-.2-.14-.31-.19-.08-.03-.17-.06-.26-.07-.12-.03-.24-.03-.36-.02-.04,0-.08,0-.12.02-.04-.01-.07,0-.1.01h0s-.04,0-.06,0c-.17.05-.34.09-.5.16ZM82.34,21.91s0,0,0,0c0,0,0,0,0,0,0,0,0,0,0,0ZM81.88,21.59s0,0,0,0c0,0,0,0,.01,0,0,0,0,0,0,0ZM82.43,21.63s0,0,0,0c0,0,0,0,0,0Z"/>
    <path class="cls-2" d="M77.62,28.65c.18-.14.35-.29.51-.44.18-.17.36-.34.53-.52.13-.13.25-.27.37-.41.18-.21.36-.44.52-.67.05-.07.1-.13.13-.2,0,0,.02-.01.02-.02.06-.1.13-.21.19-.31,0-.02.01-.03.02-.05.02-.03.04-.06.05-.09h0c.04-.07.08-.14.11-.21.02-.03.04-.07.05-.1h0s0-.01,0-.02h0s.02-.03.02-.05c0,0,0,0,0,0h0s0,0,0,0c0,0,0,0,0,0h0s.01-.01.01-.02c0,0,0-.01,0-.02h0s0,0,0,0h0s0,0,0,0c0,0,0,0,0,0,0,0,0,0,0,0h0s0,.01,0,.02c0,0,0,0,0,0,0,0,0-.01,0-.02,0,0,0-.01.01-.02,0-.01.02-.02.02-.03.04-.11.09-.23.12-.35.07-.25.13-.5.12-.76,0-.07,0-.13-.01-.2h0s0,0,0-.01c0-.06-.01-.11-.03-.17,0-.03-.02-.06-.02-.08,0-.04-.01-.07-.03-.1-.04-.08-.06-.17-.1-.24-.04-.06-.06-.13-.12-.19,0,0,0,0,0-.01,0-.01,0-.02-.02-.03,0,0,0,0,0,0,0,0,0,0,0-.01h0s-.04-.06-.06-.09c-.11-.13-.22-.25-.35-.35-.05-.04-.09-.08-.15-.1,0,0-.02-.02-.03-.03-.07-.05-.14-.09-.21-.13-.1-.06-.2-.11-.3-.16-.04-.02-.08-.04-.13-.05,0,0-.01,0-.02,0,0,0,0,0-.01,0,0,0,0,0,0,0-.02-.01-.04-.02-.06-.03-.21-.09-.43-.17-.65-.24-.25-.08-.51-.15-.77-.21-.22-.05-.45-.1-.68-.14-.01,0-.03,0-.04,0-.07-.02-.14-.03-.21-.04,0,0,0,0,0,0-.02,0-.04-.01-.06-.01-.07-.01-.14-.02-.21-.03-.14-.02-.27-.03-.41-.04-.14,0-.28,0-.42,0-.14.01-.27.03-.4.06-.04.01-.08.02-.12.03-.07.02-.13.04-.19.06-.08.03-.15.07-.23.11-.02.01-.05.03-.07.05-.04.01-.06.03-.09.06h0s-.02,0-.03.01c-.12.09-.22.19-.3.31-.03.05-.07.09-.09.15h0s0,0,0,0c0,0,0,.01-.01.02h0s-.05.08-.06.13c0,0,0,0,0,0-.02.03-.04.05-.04.09h0c-.03.06-.04.12-.06.18-.02.08-.04.16-.04.24,0,0,0,0,0,0-.02.09-.02.19-.01.28-.01.02,0,.04,0,.06h0s0,.02,0,.04c0,.07.02.15.03.22.02.13.05.25.08.37.06.18.11.37.17.55.09.29.17.58.26.87.01.04.02.07.04.11h0s0,.02,0,.03h0,0s.02.08.04.12h0s.02.06.03.09h0s.02.08.03.11c.09.31.19.62.29.93.03.08.05.16.07.24,0,.02,0,.04.03.05,0,.02.01.04.02.06h0,0c.01.07.04.13.07.19.03.06.05.13.08.19.05.1.1.2.15.3.02.05.05.1.08.14h0s0,0,0,.01c0,.01,0,.02.02.03,0,0,0,0,0,0h0s0,.01,0,.01c0,.02,0,.03.03.04,0,0,0,0,0,0,.02.05.05.09.08.12.02.05.05.09.1.12,0,0,0,0,0,0h0s0,0,0,0c0,0,0,0,0,0,0,.01.01.02.02.03,0,0,0,0,0,0,0,0,0,0,0,.01h0c.04.05.09.1.14.15.12.11.25.2.39.26.29.12.58.14.88.07.07-.02.14-.03.21-.04.1-.01.19-.03.28-.06.13-.04.24-.11.34-.19ZM74.75,26.18s0,0,.01-.01c0,0,0,0-.01.01ZM75.13,25.2s0,0,0,0h0s0,0,0,0ZM78.09,23.6s0,0,0,0c0,0,0,0,0,0ZM76.62,25.91s.02,0,.03,0c.03,0,.04.03.04.05,0,0,0,0,0,.01-.02-.02-.05-.04-.07-.06ZM78.73,25.34s0,0,0,0c0,0,0,0,0,0,0,0,0,0,0,0ZM76.23,26.66s.02.02.02.03c0,0-.01-.02-.02-.03ZM74.91,23.93s0,0,0,0c0,0,0,0,0,0ZM78.82,25.52s0,0,0,0c0,0,0,0,0,0,0,0,0,0,0,0ZM75.62,27.06s0,0,0,0c0,0,0,0,0,0ZM77.14,27.11s0,0,0,0c0,0,0,0,0,.01,0,0,0,0-.01-.01ZM75.95,27.91s0,0,0,.01c0,0,0,0,0-.01ZM77.86,27.75s0,0,0,0c0,0,0,0-.01,0,0,0,0,0,.01,0ZM75.19,24.47s0,0,0,0c0,0,0,0,0,0h0s0,0,0,0ZM75.89,27.72s0,0,0,0c0,0,0,0,0,0,0,0,0,0,0,0,0,0,0,0,0,.01ZM79.34,25.72s0,0,0,0c0,0,0,0,.01,0,0,0,0,0-.01,0ZM79.21,23.44s0,0,0,0c0,0,0,0,0,.01,0,0,0,0,0-.01ZM79.2,23.35s0,.01,0,.02c0,0,0,0,0-.02ZM76.42,28.32s0,0,0,0c0,0,0,0,0,0,0,0,0,0,0,0ZM77.68,28.21s-.02,0-.02,0c0,0-.02-.01-.01-.02,0-.01.01-.02.02-.03,0,.02.02.04.02.06,0,0,0,0,0,0ZM75.3,26.82s0,0,0,0c0,0,0,0,0,0ZM76.66,28.5s0,0,0,0c0,0,0,0,0,0,0,0,0,0,0,0ZM80,23.43s0,0,0-.01c0,0,0,0,0,.01ZM74.9,26.63s0-.01,0-.02c0,0,0,.01,0,.02ZM74.85,27.22s0,0,0,0c0,0,0,0,0,0,0,0,0,0,0,0Z"/>
    <polygon class="cls-2" points="81.72 26.13 81.73 26.13 81.73 26.13 81.72 26.13"/>
    <path class="cls-2" d="M82.07,24.15c-.17.09-.33.19-.46.34-.07.08-.12.17-.16.27-.01.01-.02.02-.02.04h0c-.04.09-.06.18-.06.28-.05.12-.06.25-.06.38.01.19.07.36.2.5.05.07.12.13.19.16,0,0,0,0,0,0h0s0,0,0,0c0,0,0,0,0,0,0,0,.01,0,.02.01,0,0,.01,0,.02.01,0,0,0,0,0,0,.02.02.05.03.08.04h0s0,0,0,0c.02.02.04.02.07.04.23.11.46.19.71.24.22.05.45.07.68.06.14,0,.28-.02.41-.04.14-.02.28-.05.41-.09.06-.02.11-.04.16-.06.06-.02.12-.05.18-.08.02-.01.05-.02.07-.04h0c.06-.02.11-.05.16-.09h0s0,0,.01,0c.02,0,.03,0,.04-.03.13-.08.24-.18.33-.31.03-.04.07-.08.08-.14.03-.04.04-.09.06-.13,0,0,.01-.02,0-.03,0,0,0-.01,0-.02.06-.17.07-.35.03-.53-.03-.18-.11-.35-.22-.49-.05-.07-.11-.13-.19-.18-.01-.01-.02-.03-.04-.03h0s0,0,0,0c-.01-.02-.03-.03-.06-.03-.02-.01-.04-.03-.06-.04-.14-.08-.28-.13-.43-.17-.01,0-.03,0-.04,0,0,0-.01,0-.02,0,0,0,0,0-.01,0,0,0-.01,0-.02,0,0,0,0,0-.01,0,0,0-.01,0-.02,0h0s0,0,0,0c0,0,0,0-.01,0h0s-.02,0-.04-.01c-.24-.05-.47-.07-.71-.06-.04,0-.09,0-.13,0,0,0-.02,0-.03,0,0,0,0,0,0,0-.02-.01-.03,0-.05,0h0s-.07,0-.1.01c-.01,0-.03,0-.04,0-.06.01-.12.02-.18.03-.1.01-.19.04-.29.07h0c-.16.04-.31.09-.45.16ZM83.07,25.52s0,0,0,0c0,0,0,0,0,0,0,0,0,0,0,0ZM83.91,25.4s0,0,0,0c0,0,0,0,0,0ZM84.53,25.15s0,0-.01,0c0,0,0,0,0,0,0,0,.01,0,.02,0,0,0,0,.01,0,.02,0,0,0-.01,0-.02ZM85.02,25.61s0,0,.01,0c0,0,0,0-.01,0ZM81.45,25.49s0,0,0,0c0,0,0,0,0,0,0,0,0,0,0,0ZM85.19,25.46s0,0,0,0c0,0,0-.01,0-.02h0s0,.01,0,.02Z"/>
    <polygon class="cls-2" points="77.2 19.6 77.2 19.6 77.2 19.6 77.2 19.6"/>
    <polygon class="cls-2" points="77.21 19.58 77.21 19.59 77.21 19.58 77.21 19.58"/>
    <path class="cls-2" d="M77.38,21.11c.03.06.07.11.12.16.07.07.16.13.25.17.11.05.23.08.35.07.07,0,.14,0,.2-.02.07-.01.15-.01.21-.04h0s.03,0,.04-.01h0s.02,0,.03,0h0s.05,0,.07,0c.07-.03.14-.05.21-.08.01,0,.03,0,.04-.02,0,0,0,0,0,0,.06-.01.1-.04.15-.06.1-.05.2-.1.28-.17.04-.03.07-.06.11-.09.16-.14.31-.3.4-.5.04-.09.07-.18.1-.28,0-.03.02-.05.01-.08,0,0,0,0,0,0,0,0,0-.02,0-.03h0c.02-.07.03-.14.02-.21h0s0-.02,0-.03c0-.18-.05-.35-.14-.51-.13-.25-.33-.42-.58-.53-.15-.07-.31-.1-.47-.11-.08,0-.17,0-.25.02h0s0,0-.01,0c0,0,0,0,0,0-.04,0-.07.01-.1.02,0,0-.02,0-.03,0h0s-.02,0-.04,0c-.16.04-.31.09-.45.17-.02.01-.05.02-.07.04-.02,0-.04,0-.05.03,0,0,0,0,0,0,0,0,0,0-.01,0h0c-.1.06-.19.13-.27.2-.04.03-.07.07-.1.11-.01,0-.02.01-.02.02h0s0,0,0,0h0s0,.01-.01.02c0,0,0,0,0,0,0,0,0-.01.01-.02,0,0-.01,0-.01.02-.02,0-.03.02-.03.04h0s0,0,0,0h0s0,0,0,0c0,0,0,.01-.01.02,0,0,0,0,0,0,0,0,0,0,0,0,0,0,0,.01-.01.02,0,0-.01.01-.01.02-.03.01-.04.04-.05.06-.01,0-.02.01-.02.02h0s0,0,0,0h0s0,.01-.01.02h0s0,.01-.01.02c0,0,0,.01-.01.02,0,0,0,.01-.01.02h0s0-.01.01-.02c0,0-.01.01-.01.02,0,0,0,0,0,0h0s0,0,0,0c0,0,0,0,0,0-.06.09-.1.18-.12.28,0,0,0,0,0,0,0,0-.01.02,0,.03,0,0,0,.01,0,.02,0,0,0,.02,0,.03,0,0,0,.01,0,.02,0,0,0-.01,0-.02h0s0,.01,0,.02c0,0,0,0,0,.01,0,0,0,.02,0,.02-.01.07-.03.14-.02.21h0c-.02.1,0,.2.03.3.01.06.04.12.06.18.05.11.11.21.2.29.03.03.05.05.07.09ZM79.4,19.83s0,0,0,0c0,0,0,0-.01-.02,0,0,0,.01.01.02ZM78.73,19.16s0,0,0,0c0,0,0,0,0,0,0,0,0,0,0,0,0,0,0,0,0,0ZM78.68,20.57s0,0,0,0c0,0,0,0,0,0ZM77.44,19.9s0,0,0,0c0,0,0,0,0,0,0,0,0,0,0,0ZM77.87,21.11s.01,0,.02,0c0,0-.01,0-.02,0ZM77.31,19.44s0,.01-.01.02c0,0,0,0,0,0,0,0,0-.01.01-.02ZM77.06,19.94s0,0,0,0c0,0,0,.01,0,.02h0s0-.01,0-.02Z"/>
    <path class="cls-2" d="M82.21,29.33c.12-.03.25-.07.36-.13.02-.01.05-.01.06-.04h0c.07-.03.13-.08.18-.15.03-.02.05-.05.07-.09h0s.05-.05.06-.08c.07-.11.11-.24.13-.37.01-.12,0-.23-.02-.35,0-.02,0-.04-.02-.05-.03-.06-.05-.12-.08-.18-.05-.1-.1-.18-.17-.26-.15-.15-.32-.28-.5-.39-.15-.09-.31-.15-.48-.2-.05-.01-.1-.03-.15-.03h0s-.02-.01-.04-.01c-.07,0-.13-.02-.2-.02-.12-.01-.23-.02-.35,0-.07,0-.13.01-.2,0-.12-.01-.23,0-.33.05-.04.02-.08.02-.1.06h0c-.08.04-.15.09-.21.16h0s-.03.03-.05.05c-.05.07-.09.15-.11.23-.02.06-.04.12-.04.18-.01.02-.01.04-.01.06,0,.13,0,.25.07.36,0,.02.01.05.02.07.02.05.03.1.07.14,0,0,0,0,0,0h0s0,.01,0,.01h0s0,.02.01.03c.13.22.28.42.49.57.08.06.15.11.23.16.16.09.33.15.5.2.05.01.09.03.14.02.01,0,.02,0,.03,0,.02.01.03,0,.05,0,0,0,0,0,0,0,.04.02.08.02.13,0,.02.01.03,0,.05,0,.02.01.03,0,.05,0h0s0,0,0,0c0,0,0,0,.01,0,.02.01.03,0,.05,0h0s.02,0,.03,0c0,0,0,0,.01,0,.07,0,.14-.01.2-.03h0s.02,0,.04,0ZM81.68,28.15s0,0,0,0c0,0,0,0,0,0,0,0,0,0,0,0ZM82.11,29.07s0,0,0,0c0,0,0,0,0,0,0,0,0,0,0,0ZM80.7,27.43s0,0,0,0c0,0,0,0,0,0,0,0,0,0,0,0ZM80.15,27.93s0,.01,0,.02c0,0,0-.01,0-.02ZM80.18,28.34s0,0,0,.01h0s0,0,0-.01Z"/>
    <path class="cls-2" d="M80.15,25.61s0,.01,0,.02c0,0,.01-.01,0-.02Z"/>
    <path class="cls-2" d="M77.22,19.57s0-.01.01-.02c0,0-.01,0-.01.02Z"/>
    <path class="cls-2" d="M73.85,22.52s0-.01.01-.02c0,0-.01.01-.01.02Z"/>
  </g>
</svg>