<?xml version="1.0" encoding="UTF-8"?>
<svg id="Layer_1" data-name="Layer 1" xmlns="http://www.w3.org/2000/svg" viewBox="0 0 170.31 170.15">
  <defs>
    <style>
      .cls-1 {
        fill: #000;
        stroke-width: 0px;
      }
    </style>
  </defs>
  <path class="cls-1" d="M60.23,17.5l.02-13.69,3.21-.82v5.52s2.39-.29,2.39-.29l3.59,6.93-3.21.82-2.78-5.29v6.01s-3.22.82-3.22.82ZM70.89,6.26l1.8-.46.69,2.69-1.8.46,1.47,5.72-3.2.82-3.05-11.91-1.15-1.39,3.94-1.01,1.3,5.09Z"/>
  <path class="cls-1" d="M78.29,13.32l3.47-10.43-3.01-.05.05-2.77,9.25.15-.04,2.77-3-.05-.99,3,2.27.35,1.97,7.19-3.24-.05-1.57-5.79-1.91,5.73-3.24-.05ZM92.36.07l-.23,13.93-3.3-.05.2-12.3-.74-1.65,4.06.07Z"/>
  <path class="cls-1" d="M108.32,3.38l-3.42,12.81-6.13-1.64c-.21-.06-.37-.18-.47-.38l-.58-1.07c-.1-.19-.13-.39-.07-.59l2.57-9.61-.32-1.78,8.43,2.25ZM104.49,5.23l-1.46-.39-1.99,7.45,1.46.39,1.99-7.45ZM111.37,9.4l1.8.48-.72,2.68-1.8-.48-1.53,5.71-3.19-.85,3.18-11.88-.32-1.78,3.93,1.05-1.36,5.07Z"/>
  <path class="cls-1" d="M114.22,19.19l9.03-10.11,2.42,1.39-3.69,4.13,1.18.95-2.77,7.17-2.42-1.39,1.52-3.95-2.85,3.19-2.42-1.39ZM125.11,15.98l1.85-3.24.11-1.73,3.14,1.79-6.92,12.1-2.47-1.42,2.95-5.16-.98-.56.98-2.55,1.34.77ZM126.35,26.65l-2.47-1.42,6.92-12.1,2.47,1.42-6.92,12.1Z"/>
  <path class="cls-1" d="M135.55,27.2l2.25,2.2-1.58,1.61,1.8,1.76,1.58-1.61,2.25,2.2-1.58,1.61,1.78,1.74-1.94,1.98-9.86-9.66,1.94-1.98,1.78,1.74,1.57-1.61ZM136.88,27.87c-.38-.37-.65-.78-.82-1.23-.17-.45-.24-.91-.22-1.38.02-.47.14-.93.36-1.39.21-.46.51-.89.9-1.28.38-.39.81-.7,1.26-.92.46-.22.92-.35,1.39-.39.47-.03.93.03,1.38.19s.87.42,1.25.79l4.26,4.18c.38.37.65.78.82,1.23s.24.91.21,1.38c-.02.47-.14.93-.36,1.39-.21.46-.51.89-.9,1.28-.39.39-.81.7-1.26.92-.46.22-.92.35-1.39.39-.47.03-.93-.03-1.38-.19s-.87-.42-1.25-.79l-4.26-4.18ZM142.34,29.44c.25.25.54.38.87.41s.64-.1.91-.38c.27-.28.39-.58.36-.92-.03-.33-.17-.62-.42-.87l-2.87-2.81c-.25-.25-.54-.38-.87-.41-.33-.02-.64.1-.91.38-.27.28-.39.58-.36.92.03.33.17.62.42.87l2.87,2.81Z"/>
  <path class="cls-1" d="M144.49,45.83l-1.71-2.47,2.32-1.6,1.71,2.47-2.32,1.6ZM147.51,43.37l-1.36-1.97,8.01-6.08,1.88,2.71-8.52,5.34Z"/>
  <path class="cls-1" d="M161.38,68.06l-6.43,2.01-3.27-10.45c-.07-.21-.04-.41.06-.6l.59-1.07c.11-.19.26-.32.46-.38l4.82-1.51.99,3.15-1.03.32,1.78,5.7,1.03-.32.99,3.15ZM157.07,65.95l-1.78-5.7-.82.26,1.78,5.7.82-.26ZM161.13,54c.52-.16.99-.2,1.44-.11.44.09.85.28,1.21.57s.69.68.98,1.16c.28.48.52,1.02.71,1.63.19.61.31,1.19.35,1.75s0,1.05-.14,1.51-.36.84-.67,1.16c-.31.32-.73.56-1.24.73l-.26.08c-.52.16-.99.2-1.43.11-.44-.09-.85-.28-1.22-.57-.37-.29-.69-.68-.97-1.16-.28-.48-.52-1.02-.71-1.63-.19-.61-.31-1.19-.35-1.75-.04-.55,0-1.05.14-1.51s.36-.84.67-1.16c.31-.32.73-.57,1.24-.73l.26-.08ZM167.04,62.03l1.21,3.88-6.51,2.04-.98-3.15,4.95-1.55,1.33-1.22ZM161.92,57.13c-.23.07-.38.24-.44.5-.06.26-.05.54.05.85.1.31.24.55.45.72.2.18.42.23.65.16l.09-.03c.23-.07.38-.24.44-.5.06-.26.05-.54-.05-.85-.1-.31-.25-.55-.45-.72s-.42-.23-.65-.16l-.09.03Z"/>
  <path class="cls-1" d="M155.97,78.44c-.02-.45.04-.86.17-1.23.13-.37.33-.69.59-.96.26-.27.57-.48.93-.63s.76-.24,1.2-.26c.44-.02.85.03,1.22.15.38.12.7.3.99.54s.51.54.67.9c.17.36.26.76.28,1.21l.31,6.7c.02.47-.03.89-.17,1.26-.13.37-.33.69-.59.95-.26.26-.57.47-.93.61-.36.15-.76.23-1.2.25-.44.02-.85-.03-1.22-.14-.38-.11-.7-.29-.99-.53s-.5-.54-.67-.89c-.17-.36-.26-.77-.28-1.24l-.31-6.7ZM158.78,84.05c0,.19.06.34.15.44.09.11.21.16.36.15.15,0,.26-.07.34-.18.08-.11.12-.27.11-.46l-.22-4.75c0-.19-.06-.34-.15-.44-.09-.11-.21-.16-.36-.15-.15,0-.26.07-.34.18-.08.11-.12.27-.11.46l.22,4.75ZM166.9,87.22l-.57.03.07,1.56-2.62.12-.07-1.56-.81.04-.15-3.3,5.78-.27,1.6-.84.19,4.06-.79.04.07,1.56-2.62.12-.07-1.56ZM166.45,74.31c.54-.02,1.02.06,1.43.26.42.2.76.48,1.04.85.28.37.49.81.65,1.34s.25,1.1.27,1.73c.03.63,0,1.21-.11,1.75-.11.54-.28,1-.52,1.39s-.56.7-.96.94c-.39.23-.86.36-1.4.39l-.7.03c-.54.02-1.02-.06-1.43-.26-.42-.2-.76-.48-1.04-.85-.28-.37-.49-.81-.65-1.34-.15-.52-.25-1.1-.27-1.73-.03-.63,0-1.21.11-1.75.11-.54.28-1,.52-1.39.24-.39.56-.7.96-.94s.86-.36,1.4-.39l.7-.03ZM165.99,77.56c-.25.01-.44.13-.58.34-.13.22-.2.48-.18.79.01.31.1.57.25.77.15.2.36.3.61.29l.53-.02c.25-.01.44-.13.58-.34.13-.22.2-.48.18-.79-.01-.31-.1-.57-.25-.77-.15-.2-.36-.3-.61-.29l-.52.02Z"/>
  <path class="cls-1" d="M161.64,107.14l-.39,1.82-2.71-.58.39-1.82-5.49-1.16.68-3.23,12.03,2.55,1.76-.41-.84,3.98-5.43-1.15ZM162.01,94.4c.55.12,1.02.32,1.4.61.39.29.69.65.91,1.07.22.42.35.89.41,1.41s.02,1.07-.1,1.65c-.12.58-.31,1.09-.57,1.55-.26.46-.58.83-.94,1.13s-.79.5-1.26.61c-.47.11-.98.11-1.53-.01l-2.29-.48c-.55-.12-1.02-.32-1.4-.61-.39-.29-.69-.65-.91-1.07s-.35-.89-.41-1.41c-.05-.52-.02-1.07.1-1.65.12-.58.31-1.09.57-1.55s.58-.83.94-1.13c.37-.3.79-.5,1.26-.61s.98-.11,1.53.01l2.29.49ZM159,96.83c-.3-.06-.57,0-.8.17-.23.18-.38.41-.44.69-.06.28-.02.55.12.81.14.25.36.41.67.48l2.49.53c.3.06.57,0,.8-.17s.38-.41.44-.69c.06-.28.02-.55-.12-.81-.14-.25-.36-.41-.67-.48l-2.49-.53ZM168.42,95.45l-.56,2.63,1.61-.38-.84,3.98-1.47-.31-.57,2.69-2.49-.53,1.82-8.6,2.49.53Z"/>
  <path class="cls-1" d="M145.5,123.05l1.28-2.54,12.44,6.28-1.28,2.54-12.44-6.28ZM156.09,121.25l3.33,1.68,1.74.02-1.63,3.23-12.44-6.28,1.28-2.54,5.3,2.68.51-1,2.6.84-.7,1.38ZM152.32,110.54l10.57,8.49-1.26,2.49-4.31-3.47-.89,1.23-7.31-2.39,1.26-2.49,4.03,1.31-3.34-2.68,1.26-2.49Z"/>
  <path class="cls-1" d="M145.41,132.29l-2.09,2.36-1.69-1.49-1.67,1.89,1.69,1.49-2.09,2.36-1.69-1.49-1.65,1.87-2.08-1.84,9.14-10.34,2.08,1.84-1.65,1.87,1.69,1.49ZM144.81,133.65c.35-.4.75-.69,1.19-.88.44-.19.9-.29,1.36-.29.47,0,.94.09,1.41.29.47.19.91.47,1.33.83s.74.77.99,1.21.4.9.46,1.36c.06.46.02.93-.12,1.39-.13.46-.38.89-.73,1.29l-3.95,4.47c-.35.4-.75.69-1.19.88-.44.19-.9.29-1.36.29-.47,0-.94-.09-1.41-.29-.47-.19-.92-.47-1.33-.83-.41-.36-.74-.77-.99-1.21s-.4-.9-.46-1.36c-.06-.46-.02-.93.12-1.39.13-.46.38-.89.73-1.29l3.95-4.47ZM143.52,139.18c-.23.26-.35.56-.36.89s.13.63.43.89.6.36.93.31c.33-.05.61-.2.84-.47l2.66-3.01c.23-.26.35-.56.36-.89s-.13-.63-.43-.89-.6-.36-.93-.31c-.33.05-.61.2-.84.47l-2.66,3.01Z"/>
  <path class="cls-1" d="M127.27,142.17l2.38-1.83,1.72,2.23-2.38,1.83-1.72-2.23ZM129.88,145.06l1.9-1.46,6.49,7.69-2.61,2.01-5.78-8.24Z"/>
  <path class="cls-1" d="M107.47,161.71l-1.74.65-.97-2.6,1.74-.65-2.06-5.54,3.09-1.15,4.28,11.53,1.29,1.27-3.81,1.42-1.83-4.92ZM116.91,149.42l1.41,13.62-3.11,1.15-.57-5.49-2.36.54-4.29-6.52,3.11-1.15,3.32,4.98-.62-5.98,3.11-1.15Z"/>
  <path class="cls-1" d="M86.88,170.15l-1.36-13.87,3.28-.32,1.2,12.24.92,1.55-4.04.4ZM99.35,155.38l-2.26,10.76,3-.29.27,2.76-9.21.9-.27-2.76,2.99-.29.65-3.09-2.3-.09-2.77-6.92,3.22-.32,2.22,5.57,1.24-5.91,3.22-.32Z"/>
  <path class="cls-1" d="M66.89,162.77l-1.84-.29.43-2.74,1.84.29.92-5.84,3.26.52-1.92,12.15.5,1.73-4.02-.63.82-5.19ZM70.55,168.44l2.07-13.1,6.27.99c.22.03.39.14.51.32l.69,1c.12.18.17.38.14.58l-1.55,9.82.5,1.73-8.62-1.36ZM74.17,166.2l1.5.24,1.2-7.62-1.5-.24-1.2,7.62Z"/>
  <path class="cls-1" d="M50.19,147.18l2.61,1.15-5.62,12.75-2.61-1.15,5.62-12.75ZM52.53,157.66l-1.51,3.42.07,1.74-3.31-1.46,5.62-12.75,2.61,1.15-2.4,5.43,1.03.45-.71,2.64-1.41-.62ZM63.03,153.34l-7.93,10.99-2.55-1.13,3.24-4.49-1.28-.83,2.01-7.42,2.55,1.13-1.1,4.09,2.5-3.47,2.55,1.13Z"/>
  <path class="cls-1" d="M39.6,147.05c.42.33.73.71.94,1.14.21.43.33.88.36,1.35s-.05.94-.21,1.42-.42.94-.76,1.37c-.34.43-.73.78-1.16,1.05-.43.27-.88.45-1.34.53-.46.08-.92.07-1.39-.04s-.91-.33-1.32-.66l-4.67-3.72c-.41-.33-.73-.71-.94-1.14-.21-.43-.33-.88-.36-1.35-.03-.47.05-.94.21-1.42.17-.48.42-.94.76-1.37.34-.43.73-.78,1.16-1.05.43-.27.88-.45,1.34-.53.46-.08.92-.07,1.39.04s.91.33,1.32.66l4.67,3.72ZM34.01,146.06c-.27-.22-.58-.32-.91-.31-.33,0-.62.17-.86.47-.24.31-.33.62-.27.95s.24.6.51.82l3.15,2.5c.27.22.58.32.91.31.33,0,.62-.17.86-.47s.33-.62.27-.95-.24-.6-.51-.82l-3.15-2.5ZM40.99,147.59l-2.46-1.96,1.4-1.76-1.97-1.57-1.4,1.76-2.46-1.96,1.4-1.76-1.95-1.55,1.73-2.17,10.8,8.59-1.73,2.17-1.95-1.55-1.4,1.76Z"/>
  <path class="cls-1" d="M27.42,132.71l1.56,1.82-7.34,6.88-2.15-2.51,7.93-6.19ZM30.17,129.96l1.95,2.28-2.14,1.83-1.95-2.28,2.14-1.83Z"/>
  <path class="cls-1" d="M5.78,115.46l-1.58-3.75,6.29-2.65,1.28,3.04-4.78,2.01-1.21,1.34ZM12.42,122.9c-.5.21-.97.29-1.42.25s-.87-.2-1.26-.45-.76-.61-1.08-1.06c-.33-.45-.61-.97-.86-1.56s-.42-1.16-.51-1.7c-.09-.55-.09-1.05,0-1.51.09-.46.28-.87.56-1.22.28-.35.67-.63,1.17-.84l.25-.1c.5-.21.97-.29,1.42-.25.45.05.87.2,1.26.45s.75.61,1.08,1.06c.32.45.61.97.86,1.56.25.59.42,1.16.51,1.7.09.55.09,1.05,0,1.51-.09.46-.28.87-.56,1.22-.28.35-.67.63-1.17.84l-.25.1ZM11.34,119.86c.22-.09.35-.27.39-.54.04-.27,0-.55-.13-.84-.12-.29-.29-.52-.51-.68-.22-.16-.44-.19-.66-.1l-.08.03c-.22.09-.35.27-.39.54-.04.27,0,.55.13.84.12.3.29.52.51.68s.44.19.66.1l.08-.04ZM10.84,108.92l6.21-2.61,4.25,10.09c.08.2.08.4,0,.6l-.49,1.12c-.09.2-.23.34-.42.42l-4.66,1.96-1.28-3.04,1-.42-2.32-5.5-1,.42-1.28-3.04ZM15.32,110.61l2.31,5.5.79-.33-2.31-5.5-.79.33Z"/>
  <path class="cls-1" d="M3.54,90.36l.56-.08-.22-1.54,2.6-.37.22,1.54.8-.11.46,3.27-5.73.81-1.51.99-.57-4.03.79-.11-.22-1.54,2.6-.37.22,1.54ZM5.19,103.17c-.53.08-1.02.03-1.45-.12-.43-.16-.8-.4-1.11-.74-.31-.34-.57-.76-.77-1.27-.2-.51-.35-1.07-.44-1.7-.09-.62-.1-1.21-.05-1.75.06-.54.19-1.02.39-1.43s.49-.75.86-1.02c.37-.27.82-.44,1.36-.52l.7-.1c.54-.08,1.02-.03,1.45.12.43.16.8.4,1.11.75.31.34.57.76.77,1.27.2.51.35,1.07.44,1.7s.1,1.21.05,1.75c-.05.54-.18,1.02-.39,1.43-.21.41-.49.75-.86,1.02-.37.27-.82.44-1.36.52l-.7.1ZM5.35,99.89c.25-.03.43-.17.54-.39.12-.23.15-.5.11-.8-.04-.31-.15-.55-.32-.74-.17-.19-.38-.26-.63-.23l-.52.07c-.25.03-.43.17-.54.39-.11.23-.15.5-.11.8.04.31.15.55.32.74.17.19.38.26.63.23l.52-.07ZM15.24,98.07c.06.45.05.86-.05,1.24s-.26.72-.49,1.01c-.23.29-.52.53-.87.71-.35.19-.74.31-1.17.37-.44.06-.85.05-1.23-.03-.39-.08-.73-.23-1.03-.45s-.55-.49-.75-.83c-.2-.34-.33-.73-.39-1.18l-.93-6.64c-.07-.47-.05-.89.05-1.27s.26-.72.5-1c.23-.29.52-.52.87-.7.35-.18.74-.3,1.18-.36.44-.06.85-.05,1.23.02.38.08.73.22,1.03.43.3.21.55.48.75.83.2.34.33.74.4,1.21l.93,6.64ZM11.92,92.76c-.03-.19-.09-.33-.19-.43-.1-.1-.22-.14-.37-.11s-.26.09-.33.21c-.07.12-.09.28-.06.46l.66,4.71c.03.19.09.33.19.43s.22.14.37.11.26-.09.33-.21c.07-.12.09-.28.06-.46l-.66-4.71Z"/>
  <path class="cls-1" d="M1.26,82.28l.31-2.67-1.57.53.46-4.04,1.49.17.31-2.73,2.53.29-1.01,8.73-2.53-.29ZM6.91,70l.21-1.85,2.76.32-.21,1.85,5.57.64-.38,3.28-12.22-1.41-1.71.57.46-4.04,5.51.63ZM7.74,82.72c-.56-.06-1.04-.22-1.46-.48-.41-.25-.75-.58-1-.98-.26-.4-.43-.85-.54-1.37-.1-.51-.12-1.07-.05-1.65.07-.59.21-1.12.42-1.6.22-.48.49-.88.83-1.21.34-.33.74-.57,1.2-.72.46-.15.97-.2,1.52-.13l2.33.27c.56.06,1.04.22,1.46.48.41.25.75.58,1,.98.26.4.44.85.54,1.37.1.52.12,1.07.05,1.65-.07.59-.21,1.12-.43,1.6-.22.48-.49.88-.83,1.21-.34.33-.74.57-1.2.72-.46.15-.97.2-1.53.13l-2.33-.27ZM10.51,80.02c.31.04.57-.04.78-.24s.34-.44.37-.73-.03-.55-.2-.79c-.16-.24-.4-.38-.71-.41l-2.53-.29c-.31-.04-.57.05-.78.24s-.34.44-.37.73.03.55.2.79c.16.24.4.38.71.41l2.53.29Z"/>
  <path class="cls-1" d="M15.86,65.75l-11.32-7.45,1.02-2.6,4.62,3.05.77-1.31,7.5,1.69-1.02,2.6-4.13-.92,3.58,2.35-1.02,2.6ZM11.09,55.45l-3.48-1.36-1.73.14,1.32-3.37,12.98,5.07-1.04,2.65-5.53-2.16-.41,1.05-2.67-.59.56-1.44ZM21.46,52.66l-1.04,2.65-12.98-5.07,1.04-2.65,12.98,5.07Z"/>
  <path class="cls-1" d="M21.16,42.04c-.31.43-.68.76-1.1.99s-.87.37-1.33.41c-.47.04-.94,0-1.43-.15s-.95-.38-1.4-.7c-.44-.32-.81-.7-1.1-1.12-.29-.42-.48-.86-.58-1.32-.1-.46-.1-.92-.01-1.39.09-.47.29-.92.6-1.35l3.52-4.82c.31-.43.68-.76,1.1-.99s.87-.37,1.33-.41c.47-.04.94,0,1.43.15.49.15.96.38,1.4.7.45.32.81.7,1.1,1.12.29.42.48.86.58,1.31.1.46.11.92.01,1.39-.09.47-.29.92-.6,1.35l-3.52,4.82ZM21.92,36.41c.21-.28.3-.59.27-.92-.02-.33-.19-.61-.51-.84-.31-.23-.63-.3-.96-.23-.32.08-.59.26-.8.54l-2.37,3.25c-.21.28-.3.59-.27.92.02.33.19.61.51.84.32.23.63.31.96.23.32-.08.59-.26.79-.54l2.37-3.25ZM20.69,43.45l1.86-2.54,1.82,1.33,1.49-2.04-1.82-1.33,1.86-2.54,1.82,1.33,1.47-2.01,2.24,1.64-8.13,11.15-2.24-1.64,1.47-2.01-1.82-1.33Z"/>
  <path class="cls-1" d="M34.94,29.3l-1.76,1.64-7.18-7.04,2.41-2.25,6.52,7.66ZM37.81,31.94l-2.19,2.05-1.92-2.06,2.19-2.05,1.92,2.06Z"/>
</svg>