<svg width="142" height="132" viewBox="0 0 142 132" fill="none" xmlns="http://www.w3.org/2000/svg">
<g clip-path="url(#clip0_12_1979)">
<path d="M47.5392 4.12695H29.0393V34.9545H47.5392V4.12695Z" fill="#C33A32"/>
<path d="M125.354 132H16.6464V41.9187L71 11.0466L125.354 41.9187V132Z" fill="#FF8189"/>
<path d="M1.45958 39.4995L71 0L140.54 39.4995C141.445 40.0154 142 40.9671 142 41.9988V46.4103C142 48.625 139.591 50.0125 137.657 48.9096L71 11.0467L4.34292 48.9096C2.40875 50.0125 0 48.625 0 46.4103V41.9988C0 40.9671 0.555177 40.0065 1.45958 39.4995Z" fill="#FF4338"/>
<path d="M86.124 132V94.2527H55.8758V132H86.124Z" fill="#C33A32"/>
<path d="M83.1781 97.179H58.8219V132H83.1781V97.179Z" fill="#FF6E59"/>
<path d="M37.17 51.3823C31.4481 51.3823 26.8097 55.9896 26.8097 61.673V81.5161H47.5214V61.673C47.5214 55.9896 42.883 51.3823 37.1611 51.3823H37.17Z" fill="#FF4338"/>
<path d="M29.0393 79.3014V61.664C29.0393 57.208 32.6927 53.5791 37.1789 53.5791C41.6651 53.5791 45.3185 57.208 45.3185 61.664V79.3014H29.0393Z" fill="white"/>
<path d="M47.5303 63.9678H26.8186V65.5776H47.5303V63.9678Z" fill="#FF4338"/>
<path d="M37.9849 52.5474H36.3641V65.5686H37.9849V52.5474Z" fill="#FF4338"/>
<path d="M104.821 51.3823C110.543 51.3823 115.181 55.9896 115.181 61.673V81.5161H94.4697V61.673C94.4697 55.9896 99.1081 51.3823 104.83 51.3823H104.821Z" fill="#FF4338"/>
<path d="M112.961 79.3014V61.664C112.961 57.208 109.307 53.5791 104.821 53.5791C100.335 53.5791 96.6815 57.208 96.6815 61.664V79.3014H112.961Z" fill="white"/>
<path d="M94.4697 65.5686H115.181V63.9587H94.4697V65.5686Z" fill="#FF4338"/>
<path d="M104.015 65.5776H105.636V52.5564H104.015V65.5776Z" fill="#FF4338"/>
<path d="M83.375 40.1132C83.375 33.3268 77.8322 27.8213 71 27.8213C64.1677 27.8213 58.6249 33.3268 58.6249 40.1132C58.6249 46.8995 64.1677 52.4051 71 52.4051C77.8322 52.4051 83.375 46.8995 83.375 40.1132Z" fill="#FF4338"/>
<path d="M80.7245 40.1133C80.7245 34.7767 76.3726 30.4541 70.9999 30.4541C65.6273 30.4541 61.2754 34.7767 61.2754 40.1133C61.2754 45.4499 65.6273 49.7725 70.9999 49.7725C76.3726 49.7725 80.7245 45.4499 80.7245 40.1133Z" fill="white"/>
<path d="M71.7343 29.4312H70.2657V50.7952H71.7343V29.4312Z" fill="#FF4338"/>
<path d="M60.2456 39.3839V40.8425H81.7542V39.3839H60.2456Z" fill="#FF4338"/>
</g>
<defs>
<clipPath id="clip0_12_1979">
<rect width="142" height="132" fill="white"/>
</clipPath>
</defs>
</svg>
