<?xml version="1.0" encoding="UTF-8"?>
<svg id="Layer_1" data-name="Layer 1" xmlns="http://www.w3.org/2000/svg" viewBox="0 0 245.98 125.24">
  <defs>
    <style>
      .cls-1 {
        fill: #cfebf7;
      }

      .cls-1, .cls-2 {
        stroke-width: 0px;
      }

      .cls-2 {
        fill: #fff;
      }
    </style>
  </defs>
  <path class="cls-2" d="M51.51,60.79S11.25,79.83,2.58,89.95c-8.67,10.12,6.53,12.38,15.88,7.03,9.35-5.35,41.56-13.15,43.17-13s-10.12-23.19-10.12-23.19Z"/>
  <g>
    <path class="cls-2" d="M15,124.32c2.28.95,4.91.25,6.63-1.52,10.19-10.52,59.59-53.83,111.45-55.94,57.26-2.33,56.91,9.49,65.11,6.1,11.78-4.88-23.49-27.29-23.49-27.29l2.3-2.81s33.96,4.34,31.91-11.74c-2.04-16.09-10.21-29.11-39.32-30.38-29.11-1.28-69.96,2.55-76.6,12s8.68,10.47,12.77,10.47,53.62-3.06,53.62-3.06l.26,3.83s-60.77,1.79-92.43,28.09c0,0-6.13-11.23-20.94-2.3,0,0-10.72,7.15-.77,19.66,0,0-29.62,29.11-33.45,46.47,0,0-1.82,6.46,2.94,8.44Z"/>
    <path class="cls-1" d="M17.13,125.24c-.79,0-1.58-.15-2.32-.46h0c-5.11-2.12-3.25-8.97-3.23-9.04,3.64-16.51,29.88-43.02,33.26-46.37-3.2-4.15-4.52-8.17-3.93-11.95.81-5.18,4.91-7.97,5.09-8.09,5.29-3.19,10.08-4.23,14.26-3.1,4.05,1.1,6.3,3.9,7.08,5.06,29.99-24.49,85.79-27.56,91.77-27.82l-.19-2.82c-5.48.34-49.27,3.03-53.15,3.03-1.22,0-12.02-.13-14.43-4.77-.93-1.79-.51-3.97,1.26-6.49C99.52,2.57,141.77-.99,169.61.23c31.98,1.4,38.06,17.21,39.79,30.82.38,3.03-.44,5.58-2.44,7.58-7.14,7.14-27.05,5.07-29.76,4.75l-1.77,2.16c3.7,2.39,26.28,17.3,25.64,24.68-.12,1.42-1.03,2.49-2.7,3.19-3.01,1.25-4.96.55-8.52-.71-6.77-2.4-19.38-6.87-56.76-5.35-48.72,1.98-96.72,40.94-111.11,55.79-1.32,1.36-3.1,2.09-4.86,2.09ZM15.19,123.86c2.01.83,4.45.27,6.08-1.41,14.46-14.92,62.74-54.09,111.79-56.09,37.58-1.53,50.3,2.98,57.13,5.41,3.54,1.25,5.15,1.83,7.8.73,1.31-.55,2-1.31,2.09-2.35.63-7.27-25.39-23.89-25.65-24.05l-.48-.3,2.83-3.46.27.04c.22.03,22.04,2.72,29.2-4.44,1.77-1.77,2.5-4.04,2.15-6.75-1.68-13.22-7.61-28.58-38.84-29.95-31.8-1.39-70,3.01-76.17,11.79-1.53,2.18-1.93,4.02-1.19,5.45,1.73,3.34,9.33,4.23,13.54,4.23s53.09-3.03,53.59-3.06l.5-.03.32,4.84-.52.02c-.61.02-60.96,2.08-92.12,27.97l-.47.39-.29-.53s-2.16-3.84-6.8-5.09c-3.9-1.05-8.43-.05-13.44,2.98-.02.01-3.9,2.66-4.64,7.41-.56,3.6.79,7.47,4,11.51l.28.35-.32.32c-.3.29-29.55,29.2-33.31,46.22-.08.27-1.65,6.09,2.64,7.87h0Z"/>
  </g>
  <g>
    <circle class="cls-1" cx="189.31" cy="24.37" r="3.24"/>
    <path class="cls-1" d="M189.31,27.86c-1.92,0-3.49-1.57-3.49-3.49s1.57-3.49,3.49-3.49,3.49,1.57,3.49,3.49-1.57,3.49-3.49,3.49ZM189.31,21.38c-1.65,0-2.99,1.34-2.99,2.99s1.34,2.99,2.99,2.99,2.99-1.34,2.99-2.99-1.34-2.99-2.99-2.99Z"/>
  </g>
  <g>
    <path class="cls-2" d="M113.5,90.64h-8.45v1.45h9.25v3.96h-24.3v-3.96h9.25v-1.45h-5.47c-.39,0-.71-.14-.98-.42l-1.48-1.56c-.26-.28-.4-.61-.4-.98v-3.06l-1.08-2.88h23.54v3.83h-16.64v1.24h16.77v3.83ZM90.52,101.76c0-.65.1-1.25.3-1.81.2-.55.49-1.03.86-1.43.37-.4.81-.71,1.33-.94.52-.23,1.09-.34,1.7-.34h14.85c.62,0,1.18.11,1.7.34.52.23.96.54,1.33.94.37.4.66.87.86,1.43.2.55.3,1.16.3,1.81s-.1,1.25-.3,1.81c-.2.55-.49,1.03-.86,1.43-.37.4-.81.71-1.33.94-.52.23-1.09.34-1.7.34h-14.85c-.62,0-1.18-.11-1.7-.34-.52-.23-.96-.54-1.33-.94-.37-.4-.66-.87-.86-1.43-.2-.55-.3-1.16-.3-1.81ZM96.33,101.76c0,.19.06.36.17.49.11.13.27.2.46.2h10.35c.19,0,.35-.07.46-.2s.17-.29.17-.49-.06-.36-.17-.49c-.11-.13-.27-.2-.46-.2h-10.35c-.19,0-.35.07-.46.2-.11.13-.17.3-.17.49Z"/>
    <path class="cls-2" d="M120.19,89.5c-.39,0-.71-.14-.98-.42l-1.48-1.56c-.26-.28-.4-.61-.4-.98v-1.93l-1.08-2.88h23.54v7.77h-19.6ZM140.18,103.1v3.17h-20c-.39,0-.71-.14-.98-.42l-1.48-1.56c-.26-.28-.4-.61-.4-.98v-4.12h16.64v-.85h-16.64v-3.17h8.32v-1.16h-9.25v-3.57h24.3v3.57h-9.25v1.16h8.32v7.05h-16.64v.87h17.04ZM133.98,85.04h-10.83v1.16h10.83v-1.16Z"/>
    <path class="cls-2" d="M166.2,82.13v14.24h-19.6c-.39,0-.71-.14-.98-.42l-1.48-1.56c-.26-.28-.4-.61-.4-.98v-8.4l-1.08-2.88h6.89v2.77h10.83v-2.77h5.81ZM152.07,97.16h5.81v3.43h9.25v4.89h-24.3v-4.89h9.25v-3.43ZM160.39,91.75v-2.22h-10.83v2.22h10.83Z"/>
    <path class="cls-2" d="M178.49,98.69h5.81v2.43h9.25v4.36h-24.3v-4.36h9.25v-2.43ZM192.88,87.52h-22.98v-4.09h8.11l-1.32-2.48h7.69v2.48h8.51v4.09ZM170.3,93.17c0-.7.13-1.36.38-1.95.26-.6.61-1.11,1.06-1.55.45-.43.99-.77,1.62-1,.63-.24,1.34-.36,2.11-.36h11.83c.76,0,1.46.12,2.1.36.64.24,1.19.57,1.64,1,.45.43.8.95,1.06,1.55.26.6.38,1.25.38,1.95s-.13,1.38-.38,1.97c-.26.59-.61,1.1-1.06,1.53-.45.43-1,.77-1.64,1-.64.24-1.34.36-2.1.36h-11.83c-.77,0-1.48-.12-2.11-.36-.63-.24-1.18-.57-1.62-1-.45-.43-.8-.94-1.06-1.53-.26-.59-.38-1.25-.38-1.97ZM185.7,94.07c.33,0,.6-.08.81-.24.2-.16.3-.38.3-.66s-.1-.5-.3-.66-.47-.24-.81-.24h-8.61c-.33,0-.6.08-.81.24-.2.16-.3.38-.3.66s.1.5.3.66c.2.16.47.24.81.24h8.61Z"/>
    <path class="cls-2" d="M195.42,95.84l4.97-13.71h4.86l-1.96,5.39,1.77.24,2.59,8.08h-4.86l-1.19-3.62-1.32,3.62h-4.86ZM220.22,101.65v4.62h-20.21c-.39,0-.71-.14-.98-.42l-1.48-1.56c-.26-.28-.4-.61-.4-.98v-6.23h5.89v4.57h17.17ZM205.69,87.15h3.09v-2.67l-1.35-2.75h6.37v17.57h-5.02v-7.53h-1.61l-1.48-4.62ZM219.96,81.74v17.57h-5.02v-17.57h5.02Z"/>
    <path class="cls-2" d="M235.09,96h-4.57l-1.85-1.95v6.55h9.59v4.89h-12.55c-.39,0-.71-.14-.98-.42l-1.48-1.56c-.26-.28-.4-.61-.4-.98v-17.51l-1.35-2.88h14.9l1.06,4.89h-8.8v4.09h5.6l.82,4.89ZM240.17,96h-4.28l-.82-4.89h5.1v-6.5l-1.35-2.88h7.16v24.54h-5.81v-10.28Z"/>
  </g>
</svg>