<?xml version="1.0" encoding="UTF-8"?>
<svg id="Layer_1" data-name="Layer 1" xmlns="http://www.w3.org/2000/svg" viewBox="0 0 209.49 125.24">
  <defs>
    <style>
      .cls-1 {
        fill: #000;
      }

      .cls-1, .cls-2 {
        stroke-width: 0px;
      }

      .cls-2 {
        fill: #fff;
      }
    </style>
  </defs>
  <path class="cls-1" d="M51.51,60.79S11.25,79.83,2.58,89.95s6.53,12.38,15.88,7.03,41.56-13.15,43.17-13-10.12-23.19-10.12-23.19Z"/>
  <g>
    <path class="cls-1" d="M15,124.32c2.28.95,4.91.25,6.63-1.52,10.19-10.52,59.59-53.83,111.45-55.94,57.26-2.33,56.91,9.49,65.11,6.1,11.78-4.88-23.49-27.29-23.49-27.29l2.3-2.81s33.96,4.34,31.91-11.74c-2.04-16.09-10.21-29.11-39.32-30.38-29.11-1.28-69.96,2.55-76.6,12s8.68,10.47,12.77,10.47,53.62-3.06,53.62-3.06l.26,3.83s-60.77,1.79-92.43,28.09c0,0-6.13-11.23-20.94-2.3,0,0-10.72,7.15-.77,19.66,0,0-29.62,29.11-33.45,46.47,0,0-1.82,6.46,2.94,8.44Z"/>
    <path class="cls-2" d="M17.13,125.24c-.79,0-1.58-.15-2.32-.46h0c-5.11-2.12-3.25-8.97-3.23-9.04,3.64-16.51,29.88-43.02,33.26-46.37-3.2-4.15-4.52-8.17-3.93-11.95.81-5.18,4.91-7.97,5.09-8.09,5.29-3.19,10.08-4.23,14.26-3.1,4.05,1.1,6.3,3.9,7.08,5.06,29.99-24.49,85.79-27.56,91.77-27.82l-.19-2.82c-5.48.34-49.27,3.03-53.15,3.03-1.22,0-12.02-.13-14.43-4.77-.93-1.79-.51-3.97,1.26-6.49C99.52,2.57,141.78-.99,169.61.23c31.98,1.4,38.06,17.21,39.79,30.82.38,3.03-.44,5.58-2.44,7.58-7.14,7.14-27.05,5.07-29.76,4.75l-1.77,2.16c3.7,2.39,26.28,17.3,25.64,24.68-.12,1.42-1.03,2.49-2.7,3.19-3.01,1.25-4.96.55-8.52-.71-6.77-2.4-19.38-6.87-56.76-5.35-48.72,1.98-96.73,40.94-111.11,55.79-1.32,1.36-3.1,2.09-4.86,2.09ZM56.85,46.8c-3.13,0-6.59,1.13-10.32,3.38-.02.01-3.9,2.66-4.64,7.41-.56,3.6.79,7.47,4,11.51l.28.35-.32.32c-.3.29-29.56,29.2-33.31,46.22-.08.27-1.65,6.09,2.64,7.87h0c2.01.84,4.45.27,6.08-1.41,14.46-14.92,62.74-54.1,111.79-56.09,37.58-1.53,50.3,2.98,57.13,5.41,3.54,1.25,5.15,1.83,7.8.73,1.32-.55,2-1.31,2.09-2.35.63-7.27-25.39-23.89-25.65-24.05l-.48-.3,2.83-3.46.27.04c.22.03,22.04,2.72,29.2-4.44,1.77-1.77,2.5-4.04,2.15-6.75-1.68-13.22-7.61-28.58-38.84-29.95-31.8-1.4-70,3.01-76.16,11.79-1.53,2.18-1.93,4.01-1.19,5.45,1.73,3.34,9.33,4.23,13.54,4.23s53.09-3.03,53.59-3.06l.5-.03.32,4.84-.52.02c-.61.02-60.96,2.08-92.12,27.97l-.47.39-.29-.53s-2.16-3.84-6.8-5.09c-1-.27-2.04-.4-3.12-.4Z"/>
  </g>
  <g>
    <circle class="cls-2" cx="189.31" cy="24.37" r="3.24"/>
    <path class="cls-1" d="M189.31,27.86c-1.92,0-3.49-1.57-3.49-3.49s1.57-3.49,3.49-3.49,3.49,1.57,3.49,3.49-1.57,3.49-3.49,3.49ZM189.31,21.38c-1.65,0-2.99,1.34-2.99,2.99s1.34,2.99,2.99,2.99,2.99-1.34,2.99-2.99-1.34-2.99-2.99-2.99Z"/>
  </g>
  <g>
    <g>
      <path class="cls-1" d="M70.27,92.72h-8.45v1.45h9.25v3.96h-24.3v-3.96h9.25v-1.45h-5.47c-.39,0-.71-.14-.98-.42l-1.48-1.56c-.26-.28-.4-.61-.4-.98v-3.06l-1.08-2.88h23.54v3.83h-16.64v1.24h16.77v3.83ZM47.29,103.84c0-.65.1-1.25.3-1.81.2-.55.49-1.03.86-1.43.37-.4.81-.71,1.33-.94.52-.23,1.09-.34,1.7-.34h14.85c.62,0,1.18.11,1.7.34.52.23.96.54,1.33.94.37.4.66.87.86,1.43.2.55.3,1.16.3,1.81s-.1,1.25-.3,1.81c-.2.55-.49,1.03-.86,1.43-.37.4-.81.71-1.33.94-.52.23-1.09.34-1.7.34h-14.85c-.62,0-1.18-.11-1.7-.34-.52-.23-.96-.54-1.33-.94-.37-.4-.66-.87-.86-1.43-.2-.55-.3-1.16-.3-1.81ZM53.1,103.84c0,.19.06.36.17.49.11.13.27.2.46.2h10.35c.19,0,.35-.07.46-.2s.17-.29.17-.49-.06-.36-.17-.49c-.11-.13-.27-.2-.46-.2h-10.35c-.19,0-.35.07-.46.2-.11.13-.17.3-.17.49Z"/>
      <path class="cls-2" d="M66.33,108.86h-14.85c-.68,0-1.32-.13-1.91-.39-.58-.26-1.08-.61-1.5-1.05-.41-.44-.74-.98-.96-1.6-.22-.61-.33-1.27-.33-1.98s.11-1.37.33-1.98c.22-.61.55-1.15.96-1.6.42-.44.92-.8,1.5-1.05.58-.26,1.22-.39,1.91-.39h14.85c.68,0,1.32.13,1.9.39.58.26,1.08.61,1.5,1.05.41.44.74.98.96,1.6.22.61.33,1.27.33,1.98s-.11,1.37-.33,1.98c-.23.62-.55,1.15-.96,1.6-.41.44-.92.8-1.5,1.05-.58.26-1.22.39-1.91.39ZM51.49,99.83c-.54,0-1.05.1-1.5.3-.45.2-.85.48-1.17.82-.32.35-.58.77-.75,1.26-.18.5-.27,1.05-.27,1.64s.09,1.14.27,1.64c.18.49.43.91.75,1.26.32.34.72.62,1.17.82.45.2.96.3,1.5.3h14.85c.54,0,1.05-.1,1.5-.3.45-.2.85-.48,1.17-.82.32-.34.58-.77.75-1.26.18-.5.27-1.05.27-1.64s-.09-1.14-.27-1.64c-.18-.49-.43-.91-.75-1.26-.32-.34-.71-.62-1.17-.82-.45-.2-.96-.3-1.5-.3h-14.85ZM64.09,105.03h-10.35c-.34,0-.63-.13-.84-.37-.19-.22-.29-.5-.29-.82s.1-.59.29-.82c.21-.24.5-.37.84-.37h10.35c.34,0,.63.13.84.37.19.22.29.51.29.82s-.1.6-.29.82c-.21.24-.5.37-.84.37ZM53.73,103.66c-.11.05-.13.1-.13.19s.02.13.05.16l10.44.03c.11-.05.13-.1.13-.19s-.03-.13-.05-.16l-10.44-.02ZM71.06,98.64h-24.3c-.28,0-.5-.22-.5-.5v-3.96c0-.28.22-.5.5-.5h8.75v-.45h-4.97c-.53,0-.98-.2-1.34-.58l-1.48-1.56c-.35-.38-.53-.82-.53-1.32v-2.97l-1.05-2.79c-.06-.15-.04-.33.06-.46s.25-.22.41-.22h23.54c.28,0,.5.22.5.5v3.83c0,.28-.22.5-.5.5h-16.14v.24h16.27c.28,0,.5.22.5.5v3.83c0,.28-.22.5-.5.5h-7.95v.45h8.75c.28,0,.5.22.5.5v3.96c0,.28-.22.5-.5.5ZM47.26,97.64h23.3v-2.96h-8.75c-.28,0-.5-.22-.5-.5v-1.45c0-.28.22-.5.5-.5h7.95v-2.83h-16.27c-.28,0-.5-.22-.5-.5v-1.24c0-.28.22-.5.5-.5h16.14v-2.83h-22.31l.83,2.2c.02.06.03.12.03.18v3.06c0,.24.08.45.26.64l1.48,1.56c.17.18.37.27.61.27h5.47c.28,0,.5.22.5.5v1.45c0,.28-.22.5-.5.5h-8.75v2.96Z"/>
    </g>
    <g>
      <path class="cls-1" d="M76.95,91.59c-.39,0-.71-.14-.98-.42l-1.48-1.56c-.26-.28-.4-.61-.4-.98v-1.93l-1.08-2.88h23.54v7.77h-19.6ZM96.95,105.19v3.17h-20c-.39,0-.71-.14-.98-.42l-1.48-1.56c-.26-.28-.4-.61-.4-.98v-4.12h16.64v-.85h-16.64v-3.17h8.32v-1.16h-9.25v-3.57h24.3v3.57h-9.25v1.16h8.32v7.05h-16.64v.87h17.04ZM90.74,87.12h-10.83v1.16h10.83v-1.16Z"/>
      <path class="cls-2" d="M96.95,108.86h-20c-.53,0-.98-.2-1.34-.58l-1.48-1.56c-.35-.38-.53-.82-.53-1.32v-4.12c0-.18.09-.33.23-.42-.14-.09-.23-.25-.23-.42v-3.17c0-.28.22-.5.5-.5h7.82v-.16h-8.75c-.28,0-.5-.22-.5-.5v-3.57c0-.28.22-.5.5-.5h3.34c-.34-.08-.65-.26-.9-.53l-1.48-1.56c-.35-.38-.53-.82-.53-1.32v-1.84l-1.05-2.79c-.06-.15-.04-.33.06-.46s.25-.22.41-.22h23.54c.28,0,.5.22.5.5v7.77c0,.2-.12.37-.28.45h.71c.28,0,.5.22.5.5v3.57c0,.28-.22.5-.5.5h-8.75v.16h7.82c.28,0,.5.22.5.5v7.05c0,.15-.06.28-.17.37h.06c.28,0,.5.22.5.5v3.17c0,.28-.22.5-.5.5ZM74.6,101.78v3.62c0,.24.08.44.26.63l1.48,1.56c.17.18.37.27.61.27h19.5v-2.17h-16.54c-.28,0-.5-.22-.5-.5v-.87c0-.28.22-.5.5-.5h16.14v-6.05h-7.82c-.28,0-.5-.22-.5-.5v-1.16c0-.28.22-.5.5-.5h8.75v-2.57h-23.3v2.57h8.75c.28,0,.5.22.5.5v1.16c0,.28-.22.5-.5.5h-7.82v2.17h16.14c.28,0,.5.22.5.5v.85c0,.28-.22.5-.5.5h-16.14ZM73.74,84.32l.83,2.2c.02.06.03.12.03.18v1.93c0,.24.08.45.26.63l1.48,1.56c.17.18.37.27.61.27h19.1v-6.77h-22.31ZM90.74,88.79h-10.83c-.28,0-.5-.22-.5-.5v-1.16c0-.28.22-.5.5-.5h10.83c.28,0,.5.22.5.5v1.16c0,.28-.22.5-.5.5ZM80.41,87.79h9.83v-.16h-9.83v.16Z"/>
    </g>
    <g>
      <path class="cls-1" d="M122.97,84.22v14.24h-19.6c-.39,0-.71-.14-.98-.42l-1.48-1.56c-.26-.28-.4-.61-.4-.98v-8.4l-1.08-2.88h6.89v2.77h10.83v-2.77h5.81ZM108.83,99.25h5.81v3.43h9.25v4.89h-24.3v-4.89h9.25v-3.43ZM117.15,93.83v-2.22h-10.83v2.22h10.83Z"/>
      <path class="cls-2" d="M123.89,108.07h-24.3c-.28,0-.5-.22-.5-.5v-4.89c0-.28.22-.5.5-.5h8.75v-2.93c0-.11.04-.21.09-.29h-5.06c-.53,0-.98-.2-1.34-.58l-1.48-1.56c-.35-.38-.53-.82-.53-1.32v-8.31l-1.05-2.79c-.06-.15-.04-.33.06-.46s.25-.22.41-.22h6.89c.28,0,.5.22.5.5v2.27h9.83v-2.27c0-.28.22-.5.5-.5h5.81c.28,0,.5.22.5.5v14.24c0,.28-.22.5-.5.5h-7.92c.06.08.09.18.09.29v2.93h8.75c.28,0,.5.22.5.5v4.89c0,.28-.22.5-.5.5ZM100.09,107.07h23.3v-3.89h-8.75c-.28,0-.5-.22-.5-.5v-2.93h-4.81v2.93c0,.28-.22.5-.5.5h-8.75v3.89ZM100.15,84.72l.83,2.2c.02.06.03.12.03.18v8.4c0,.24.08.45.26.64l1.48,1.56c.17.18.37.27.61.27h19.1v-13.24h-4.81v2.27c0,.28-.22.5-.5.5h-10.83c-.28,0-.5-.22-.5-.5v-2.27h-5.67ZM117.15,94.33h-10.83c-.28,0-.5-.22-.5-.5v-2.22c0-.28.22-.5.5-.5h10.83c.28,0,.5.22.5.5v2.22c0,.28-.22.5-.5.5ZM106.82,93.33h9.83v-1.22h-9.83v1.22Z"/>
    </g>
    <g>
      <path class="cls-1" d="M135.25,100.78h5.81v2.43h9.25v4.36h-24.3v-4.36h9.25v-2.43ZM149.65,89.61h-22.98v-4.09h8.11l-1.32-2.48h7.69v2.48h8.51v4.09ZM127.06,95.26c0-.7.13-1.36.38-1.95.26-.6.61-1.11,1.06-1.55.45-.43.99-.77,1.62-1,.63-.24,1.34-.36,2.11-.36h11.83c.76,0,1.46.12,2.1.36.64.24,1.19.57,1.64,1,.45.43.8.95,1.06,1.55.26.6.38,1.25.38,1.95s-.13,1.38-.38,1.97c-.26.59-.61,1.1-1.06,1.53-.45.43-1,.77-1.64,1-.64.24-1.34.36-2.1.36h-11.83c-.77,0-1.48-.12-2.11-.36-.63-.24-1.18-.57-1.62-1-.45-.43-.8-.94-1.06-1.53-.26-.59-.38-1.25-.38-1.97ZM142.46,96.16c.33,0,.6-.08.81-.24.2-.16.3-.38.3-.66s-.1-.5-.3-.66-.47-.24-.81-.24h-8.61c-.33,0-.6.08-.81.24-.2.16-.3.38-.3.66s.1.5.3.66c.2.16.47.24.81.24h8.61Z"/>
      <path class="cls-2" d="M150.31,108.07h-24.3c-.28,0-.5-.22-.5-.5v-4.36c0-.28.22-.5.5-.5h8.75v-1.93c0-.06,0-.11.03-.16h-2.54c-.83,0-1.6-.13-2.29-.39-.7-.26-1.3-.63-1.8-1.11-.5-.48-.89-1.05-1.17-1.69-.28-.65-.42-1.38-.42-2.17s.14-1.49.42-2.15c.28-.66.67-1.23,1.17-1.71.5-.48,1.1-.85,1.8-1.11.19-.07.38-.13.58-.18h-3.86c-.28,0-.5-.22-.5-.5v-4.09c0-.28.22-.5.5-.5h7.28l-.93-1.75c-.08-.15-.08-.34.01-.49s.25-.24.43-.24h7.69c.28,0,.5.22.5.5v1.98h8.01c.28,0,.5.22.5.5v4.09c0,.28-.22.5-.5.5h-3.88c.2.05.39.11.58.18.7.26,1.31.63,1.81,1.11.5.48.89,1.05,1.17,1.71.28.66.42,1.38.42,2.15s-.14,1.52-.42,2.17c-.28.65-.67,1.22-1.17,1.69-.5.48-1.1.85-1.81,1.11-.7.26-1.46.39-2.27.39h-2.54c.02.05.03.1.03.16v1.93h8.75c.28,0,.5.22.5.5v4.36c0,.28-.22.5-.5.5ZM126.5,107.07h23.3v-3.36h-8.75c-.28,0-.5-.22-.5-.5v-1.93h-4.81v1.93c0,.28-.22.5-.5.5h-8.75v3.36ZM132.24,90.9c-.71,0-1.36.11-1.94.33-.57.21-1.06.51-1.45.9-.4.38-.72.85-.94,1.38-.23.53-.34,1.12-.34,1.76s.11,1.25.34,1.77c.23.53.54.99.94,1.37.4.38.89.68,1.45.9.58.22,1.23.33,1.94.33h11.83c.69,0,1.34-.11,1.93-.33.58-.21,1.07-.51,1.46-.9.4-.38.72-.84.94-1.37.23-.52.34-1.12.34-1.77s-.12-1.22-.34-1.76c-.23-.53-.54-1-.94-1.38-.4-.38-.89-.68-1.46-.89-.58-.22-1.23-.33-1.93-.33h-11.83ZM127.16,89.11h21.98v-3.09h-8.01c-.28,0-.5-.22-.5-.5v-1.98h-6.35l.93,1.75c.08.15.08.34-.01.49s-.25.24-.43.24h-7.61v3.09ZM142.46,96.66h-8.61c-.45,0-.82-.12-1.11-.34-.32-.25-.5-.62-.5-1.05s.17-.8.5-1.05c.29-.23.67-.34,1.11-.34h8.61c.45,0,.82.12,1.11.34.32.25.5.62.5,1.05s-.17.8-.5,1.05c-.29.23-.67.34-1.11.34ZM133.85,94.86c-.22,0-.39.04-.5.13-.06.05-.11.11-.11.27,0,.15.04.21.11.27.11.09.28.13.5.13h8.61c.22,0,.39-.04.5-.13.07-.05.11-.12.11-.27,0-.16-.05-.22-.11-.27-.11-.09-.28-.13-.5-.13h-8.61Z"/>
    </g>
    <g>
      <path class="cls-1" d="M152.18,97.93l4.97-13.71h4.86l-1.96,5.39,1.77.24,2.59,8.08h-4.86l-1.19-3.62-1.32,3.62h-4.86ZM176.99,103.74v4.62h-20.21c-.39,0-.71-.14-.98-.42l-1.48-1.56c-.26-.28-.4-.61-.4-.98v-6.23h5.89v4.57h17.17ZM162.46,89.24h3.09v-2.67l-1.35-2.75h6.37v17.57h-5.02v-7.53h-1.61l-1.48-4.62ZM176.72,83.82v17.57h-5.02v-17.57h5.02Z"/>
      <path class="cls-2" d="M176.99,108.86h-20.21c-.53,0-.98-.2-1.34-.58l-1.48-1.56c-.35-.38-.53-.82-.53-1.32v-6.23c0-.28.22-.5.5-.5h5.89c.28,0,.5.22.5.5v4.07h16.67c.28,0,.5.22.5.5v4.62c0,.28-.22.5-.5.5ZM154.42,99.67v5.73c0,.24.08.44.26.63l1.48,1.56c.17.18.37.27.61.27h19.71v-3.62h-16.67c-.28,0-.5-.22-.5-.5v-4.07h-4.89ZM176.72,101.89h-5.02c-.28,0-.5-.22-.5-.5v-17.57c0-.28.22-.5.5-.5h5.02c.28,0,.5.22.5.5v17.57c0,.28-.22.5-.5.5ZM172.2,100.89h4.02v-16.57h-4.02v16.57ZM170.57,101.89h-5.02c-.28,0-.5-.22-.5-.5v-7.03h-1.11c-.05,0-.1,0-.15-.02l1.1,3.44c.05.15.02.32-.07.45-.09.13-.24.21-.4.21h-4.86c-.22,0-.41-.14-.48-.34l-.74-2.25-.83,2.26c-.07.2-.26.33-.47.33h-4.86c-.16,0-.32-.08-.41-.21-.09-.13-.12-.3-.06-.46l4.97-13.71c.07-.2.26-.33.47-.33h4.86c.16,0,.32.08.41.21.09.13.12.3.06.46l-1.74,4.81,1.15.16s.06.01.08.02c-.04-.15-.01-.3.08-.43.09-.13.24-.21.4-.21h2.59v-2.05l-1.3-2.64c-.08-.16-.07-.34.02-.48s.25-.24.42-.24h6.37c.28,0,.5.22.5.5v17.57c0,.28-.22.5-.5.5ZM166.05,100.89h4.02v-16.57h-5.06l.99,2.03c.03.07.05.14.05.22v2.67c0,.28-.22.5-.5.5h-2.41l1.16,3.62h1.25c.28,0,.5.22.5.5v7.03ZM159.91,97.43h3.81l-2.28-7.13-1.46-.2c-.15-.02-.28-.11-.36-.24-.08-.13-.09-.29-.04-.43l1.71-4.72h-3.8l-4.6,12.71h3.8l1.2-3.29c.07-.2.24-.32.48-.33.21,0,.4.14.47.34l1.08,3.27Z"/>
    </g>
    <g>
      <path class="cls-1" d="M191.86,98.09h-4.57l-1.85-1.95v6.55h9.59v4.89h-12.55c-.39,0-.71-.14-.98-.42l-1.48-1.56c-.26-.28-.4-.61-.4-.98v-17.51l-1.35-2.88h14.9l1.06,4.89h-8.8v4.09h5.6l.82,4.89ZM196.93,98.09h-4.28l-.82-4.89h5.1v-6.5l-1.35-2.88h7.16v24.54h-5.81v-10.28Z"/>
      <path class="cls-2" d="M202.74,108.86h-5.81c-.28,0-.5-.22-.5-.5v-9.78h-3.78c-.16,0-.3-.08-.4-.2,0,0,0,.01-.01.02-.1.11-.23.18-.38.18h-4.57c-.14,0-.27-.06-.36-.16l-.99-1.04v4.8h9.09c.28,0,.5.22.5.5v4.89c0,.28-.22.5-.5.5h-12.55c-.52,0-.99-.2-1.34-.58l-1.48-1.56c-.35-.38-.53-.82-.53-1.32v-17.4l-1.3-2.78c-.07-.15-.06-.34.03-.48.09-.14.25-.23.42-.23h14.9c.24,0,.44.16.49.39l1.06,4.89c.03.15,0,.3-.1.42s-.24.19-.39.19h-8.3v3.09h5.1c.16,0,.3.08.4.19,0,0,0-.01.01-.02.1-.11.23-.18.38-.18h4.6v-5.89l-1.3-2.78c-.07-.15-.06-.34.03-.48.09-.14.25-.23.42-.23h7.16c.28,0,.5.22.5.5v24.54c0,.28-.22.5-.5.5ZM197.43,107.86h4.81v-23.54h-5.87l1.01,2.17c.03.07.05.14.05.21v6.5c0,.28-.22.5-.5.5h-4.51l.65,3.89h3.86c.28,0,.5.22.5.5v9.78ZM179.07,84.72l1.01,2.17c.03.07.05.14.05.21v17.51c0,.24.08.45.26.64l1.48,1.56c.17.18.37.27.61.27h12.05v-3.89h-9.09c-.28,0-.5-.22-.5-.5v-6.55c0-.2.12-.39.31-.46.19-.08.41-.03.55.12l1.7,1.8h3.76l-.65-3.89h-5.18c-.28,0-.5-.22-.5-.5v-4.09c0-.28.22-.5.5-.5h8.18l-.84-3.89h-13.71Z"/>
    </g>
  </g>
</svg>