<svg width="129" height="127" viewBox="0 0 129 127" fill="none" xmlns="http://www.w3.org/2000/svg">
<g clip-path="url(#clip0_18_7216)">
<path d="M44.5585 7.59372L44.7855 8.2416L49.0673 6.70477L49.6271 8.2416L38.9301 12.0837L38.3703 10.5469L42.6067 9.02509L42.3798 8.37721L38.9603 9.59764L37.5532 5.72541L46.6767 2.4408L47.2365 3.97763L40.2161 6.50889L40.5187 7.32251L47.5997 4.77619L48.1444 6.29796L44.5585 7.59372ZM41.8502 11.6166L47.0701 9.73324C48.6588 9.16069 49.5817 9.64284 50.0356 10.8783C50.4895 12.1138 50.081 13.1083 48.5075 13.6657L43.2876 15.5491C41.6989 16.1217 40.7608 15.6094 40.322 14.3739C39.8681 13.1384 40.2767 12.1741 41.8653 11.6016L41.8502 11.6166ZM47.5997 12.2645C47.9325 12.144 48.0082 11.918 47.9174 11.6317C47.8115 11.3605 47.5997 11.2249 47.2819 11.3454L42.7429 12.9726C42.41 13.0932 42.3344 13.3192 42.4251 13.6055C42.5159 13.8767 42.7429 14.0123 43.0606 13.8917L47.5997 12.2645Z" fill="white"/>
<path d="M59.3253 8.46762L59.2799 8.09094L51.6997 9.05523L51.5181 7.63893L55.225 7.17185L55.1645 6.68971L50.7011 7.24719L50.5044 5.68022L61.7915 4.24885L61.9882 5.81582L57.4794 6.38837L57.5399 6.87051L61.2922 6.40344L61.6856 9.53738L54.1054 10.5017L54.1508 10.8783L61.9126 9.89899L62.0941 11.3756L52.1536 12.6261L51.7451 9.41684L59.3253 8.45255V8.46762ZM51.2912 5.19807L50.7767 1.22038L52.9404 0.949171L53.016 1.53678L58.2813 0.873835L58.2057 0.286221L60.3693 0.0150146L60.8837 3.99271L51.2912 5.19807ZM58.5234 2.77228L58.4629 2.27507L53.1976 2.93802L53.2581 3.43523L58.5234 2.77228Z" fill="white"/>
<path d="M63.0776 9.05527L67.5712 9.46208L67.6923 8.07591L69.9769 8.28685L69.8559 9.67302L74.3949 10.0949L74.2285 11.9481L62.896 10.9085L63.0624 9.05527H63.0776ZM74.3798 1.06974L73.7141 8.19645L64.061 7.30749L64.7267 0.180786L66.8904 0.376658L66.7239 2.26004L72.0649 2.74218L72.2313 0.858802L74.3949 1.05467L74.3798 1.06974ZM71.732 6.19253L71.8833 4.55023L66.5424 4.06808L66.3911 5.71039L71.732 6.19253Z" fill="white"/>
<path d="M81.824 11.3605L81.476 12.4302L85.8183 13.8315L85.2585 15.534L74.4253 12.0536L74.9851 10.351L79.2821 11.7372L79.6301 10.6674L78.8282 10.4113C77.1185 9.85377 76.4376 8.73881 76.9369 7.17184C77.4513 5.60487 78.6617 5.04739 80.3866 5.60487L84.2297 6.84037C85.9394 7.39785 86.6202 8.54294 86.1058 10.1099C85.5914 11.6769 84.381 12.1892 82.6712 11.6468L81.824 11.3755V11.3605ZM78.0263 2.4408L81.8693 3.67629L82.1871 2.69694L84.4112 3.40509L84.0935 4.38444L87.9668 5.63501L87.4373 7.29238L77.4967 4.09817L78.0263 2.4408ZM80.4169 7.42798C79.6755 7.18691 79.2216 7.24718 79.0249 7.83479C78.8584 8.34707 79.0703 8.69361 79.6603 8.88949L82.6259 9.83871C83.3672 10.0798 83.8211 10.0346 84.0178 9.4319C84.1843 8.91962 83.9724 8.57308 83.3824 8.37721L80.4169 7.42798Z" fill="white"/>
<path d="M90.7205 14.5096L89.6917 16.2272L95.9253 19.9035L95.0175 21.4404L86.9229 16.6641L88.8595 13.4097L90.7357 14.5096H90.7205ZM91.5527 8.88955L92.5513 7.23218L94.4123 8.33207L93.4288 9.98944L92.8085 14.9917L90.9475 13.8918L91.4316 11.2249L89.3134 12.9275L87.4524 11.8276L91.5527 8.87448V8.88955ZM94.2761 10.5921L95.4109 11.2551L96.5457 9.35663L98.1646 10.3209L94.0643 17.2216L92.4454 16.2573L94.4879 12.822L93.3683 12.1591L94.2913 10.5771L94.2761 10.5921ZM98.8606 10.7277L100.54 11.7222L96.3036 18.8489L94.6241 17.8544L98.8606 10.7277Z" fill="white"/>
<path d="M103.627 16.8599L102.129 18.442L104.444 20.6116L103.248 21.8772L100.933 19.7076L99.133 21.6211L102.84 24.5742L101.614 25.87L96.1826 21.606L103.264 14.1027L107.803 18.3516L106.577 19.6473L103.612 16.8599H103.627ZM105.125 21.0938L106.395 22.2841L109.21 19.3008L110.798 20.7924L103.037 29.019L101.448 27.5274L105.079 23.6853L103.808 22.495L105.125 21.1088V21.0938Z" fill="white"/>
<path d="M125.929 51.4689L126.246 53.6084L122.252 54.1809L116.563 57.9025L116.245 55.7027L119.892 53.4427L115.746 52.3126L115.428 50.0978L121.934 52.0565L125.929 51.4839V51.4689ZM126.957 56.7273L127.275 58.8668L123.341 59.4393L123.568 61.0214L121.692 61.2926L121.465 59.7105L116.049 60.494L115.746 58.3545L126.957 56.7423V56.7273Z" fill="white"/>
<path d="M126.897 71.267L126.73 73.4367L115.428 72.5929L115.595 70.4233L126.897 71.267ZM124.794 67.5606L122.857 67.4099L116.518 69.8055L116.684 67.5756L120.694 66.1593L116.941 64.1705L117.108 61.9406L123.024 65.2553L124.96 65.406L125.157 62.709L127.003 62.8446L126.443 70.2877L124.597 70.1521L124.794 67.5606Z" fill="white"/>
<path d="M116.215 82.1755L116.684 82.3262L118.666 75.8624L120.104 76.2994L117.486 84.8575L114.233 83.863L116.215 77.4144L115.701 77.2637L113.658 83.9233L112.19 83.4864L114.868 74.7324L118.197 75.7419L116.215 82.2057V82.1755ZM123.795 84.5109L123.16 86.5751L121.42 86.0478L121.011 87.3887L119.271 86.8614L119.68 85.5204L117.773 84.9479L118.409 82.8837L123.78 84.5109H123.795ZM120.996 75.4858L125.974 76.9925L124.007 83.396L119.029 81.8893L120.996 75.4858ZM121.919 77.9869L121.193 80.3524L123.054 80.925L123.78 78.5594L121.919 77.9869Z" fill="white"/>
<path d="M114.187 85.5807L112.417 88.6845L115.61 90.4926L114.49 92.4663L111.297 90.6583L108.574 95.4345L106.94 94.5155L112.553 84.6616L114.187 85.5807ZM111.464 92.9334C112.901 93.958 114.248 94.862 115.685 95.8866L119.347 89.4529L120.966 90.372L116.109 98.9L110.359 94.8771L111.464 92.9334Z" fill="white"/>
<path d="M107.334 100.241L99.1785 108.136L97.8924 106.825L99.466 105.303L97.5142 103.3L99.0877 101.778L101.039 103.782L102.885 101.989L100.934 99.9848L102.507 98.463L104.459 100.467L106.032 98.9452L107.319 100.256L107.334 100.241ZM102.689 106.012L105.11 103.676C106.683 102.154 108.226 101.989 109.618 103.42C111.01 104.851 110.859 106.388 109.255 107.925L106.834 110.261C105.231 111.812 103.672 111.918 102.295 110.487C100.903 109.055 101.13 107.518 102.689 105.997V106.012ZM106.032 108.513L107.53 107.066C108.408 106.223 108.786 105.665 108.045 104.912C107.319 104.173 106.744 104.52 105.866 105.364L104.368 106.81C103.506 107.639 103.127 108.211 103.854 108.965C104.595 109.718 105.17 109.341 106.032 108.513Z" fill="white"/>
<path d="M94.6543 118.999L92.7933 120.144L86.8472 110.532L88.7082 109.387L94.6543 118.999ZM93.7919 107.337C94.7754 109.959 95.6529 112.46 96.6364 115.082L100.328 112.822L101.296 114.389L95.426 117.99C94.1853 114.796 93.0354 111.752 91.7947 108.558L93.7919 107.337Z" fill="white"/>
<path d="M83.8364 115.444L83.3068 113.892L76.3469 116.272L75.772 114.615L84.8198 111.526L85.9243 114.735L83.8364 115.444ZM81.6879 124.408L79.6453 125.102L76.937 117.221L78.9796 116.528L81.6879 124.408ZM83.2009 118.864L82.9286 118.095L80.3262 118.984L79.7815 117.417L87.2407 114.871L87.7853 116.438L85.0165 117.387L85.2889 118.156L87.5584 117.387L89.0411 121.696L82.6411 123.881L82.1115 122.329L86.5447 120.822L86.1059 119.557L81.4458 121.154L80.9314 119.662L83.2009 118.894V118.864Z" fill="white"/>
<path d="M65.2109 122.721L65.1806 122.028L60.6264 122.224L60.5508 120.581L71.9287 120.084L72.0043 121.726L67.5107 121.922L67.5409 122.615L71.1722 122.465L71.3537 126.578L61.6553 127L61.5796 125.358L69.0388 125.026L68.9934 124.152L61.4737 124.484L61.3981 122.872L65.2109 122.706V122.721ZM69.0086 119.677L63.4558 119.918C61.7612 119.994 61.0198 119.255 60.9744 117.945C60.9139 116.634 61.5948 115.805 63.2742 115.73L68.827 115.489C70.5064 115.413 71.263 116.182 71.3083 117.493C71.3689 118.803 70.7031 119.602 69.0086 119.677ZM63.713 117.342C63.365 117.357 63.2137 117.553 63.2288 117.839C63.2288 118.125 63.4104 118.321 63.7584 118.306L68.5849 118.095C68.9329 118.08 69.0842 117.884 69.0691 117.598C69.0691 117.312 68.8875 117.116 68.5395 117.131L63.713 117.342Z" fill="white"/>
<path d="M51.352 117.553L51.2763 117.975L58.8112 119.301L58.5691 120.702L54.8924 120.054L54.8017 120.581L59.2348 121.365L58.9625 122.917L47.7661 120.943L48.0385 119.391L52.517 120.175L52.6078 119.647L48.8857 118.999L49.4456 115.85L56.9804 117.176L57.056 116.754L49.3548 115.398L49.612 113.922L59.4769 115.654L58.9019 118.894L51.3671 117.568L51.352 117.553ZM58.0395 123.188L57.3889 126.864L47.872 125.192L48.5226 121.516L58.0395 123.188ZM55.6489 124.288L50.3685 123.354L50.2475 124.062L55.5279 124.996L55.6489 124.288Z" fill="white"/>
<path d="M38.1888 117.583L43.1818 119.662C44.7099 120.295 45.0579 121.29 44.6192 122.329C44.1804 123.384 43.1515 123.866 41.6688 123.248L36.6758 121.169C35.1174 120.521 34.8451 119.436 35.2687 118.442C35.7226 117.357 36.6909 116.965 38.1888 117.583ZM35.5864 116.061L36.1916 114.6L46.692 118.969L46.0868 120.431L35.5864 116.061ZM39.838 113.605L39.6716 114.012L46.7374 116.95L46.2078 118.216L37.1297 114.434L38.3553 111.496L45.4211 114.434L45.6026 114.012L38.3704 111.014L38.9453 109.643L48.205 113.485L46.9341 116.528L39.8683 113.59L39.838 113.605ZM37.6139 119.843L41.9865 121.666C42.3042 121.802 42.5161 121.742 42.622 121.5C42.7279 121.244 42.622 121.064 42.3042 120.928L37.9316 119.105C37.6139 118.969 37.4021 119.029 37.2961 119.286C37.1902 119.527 37.2961 119.723 37.629 119.858L37.6139 119.843Z" fill="white"/>
<path d="M21.4846 111.074L19.8052 109.718L23.4969 105.168L25.1764 106.524L21.4846 111.074ZM29.7003 114.223C28.7622 115.383 27.0525 115.79 25.0402 114.178C23.0128 112.551 23.0733 110.803 24.0114 109.643L24.2081 109.402C25.1159 108.272 26.8105 107.865 28.8379 109.492C30.8502 111.119 30.82 112.852 29.897 113.982L29.7003 114.223ZM29.1708 109.281L29.8062 108.498L26.0086 105.439L25.3731 106.223L23.7088 104.882L26.9012 100.949L34.0124 106.675L30.82 110.607L29.1556 109.266L29.1708 109.281ZM25.6908 110.893C25.2369 111.451 25.2974 112.144 26.1296 112.807C26.9618 113.47 27.6426 113.394 28.1116 112.837L28.2176 112.701C28.6715 112.144 28.6109 111.451 27.7788 110.788C26.9466 110.125 26.2658 110.2 25.7967 110.758L25.6908 110.893ZM27.5064 103.601L27.0071 104.219L30.8048 107.277L31.3041 106.66L27.5064 103.601Z" fill="white"/>
<path d="M12.3611 101.055L11.0145 99.3671L11.6651 98.8548L10.7725 97.7398L12.1493 96.655L13.042 97.77L13.7077 97.2426L12.815 96.1277L14.1919 95.0278L15.0846 96.1427L15.8562 95.525L17.2028 97.2125L12.3611 101.04V101.055ZM19.548 105.59C18.3376 106.554 16.6278 106.614 15.0392 104.625C13.4505 102.622 13.9044 100.994 15.1148 100.045L15.4023 99.8191C16.5825 98.8849 18.2619 98.8096 19.8506 100.814C21.4392 102.817 21.0005 104.445 19.8203 105.364L19.5328 105.59H19.548ZM16.4917 101.642C15.8865 102.124 15.7806 102.757 16.416 103.556C17.0515 104.354 17.7021 104.399 18.3073 103.917L18.4737 103.782C19.0789 103.3 19.1848 102.667 18.5494 101.868C17.9139 101.07 17.2633 101.04 16.6581 101.522L16.4917 101.657V101.642ZM20.3347 100.678L17.5054 97.1372C16.4614 95.8263 16.7035 94.5758 17.8383 93.6717C18.973 92.7677 20.244 92.828 21.3031 94.1388L24.1324 97.6796C25.1764 98.9904 24.9343 100.241 23.7996 101.145C22.6648 102.049 21.3939 101.989 20.3347 100.678ZM22.3924 98.2822L20.3196 95.6756C19.9262 95.1784 19.5934 95.0127 19.1848 95.3442C18.7763 95.6756 18.8671 96.0222 19.2605 96.5194L21.3333 99.126C21.7267 99.6232 22.0596 99.7889 22.4681 99.4575C22.8766 99.126 22.7858 98.7795 22.3924 98.2822Z" fill="white"/>
<path d="M14.2827 81.4523L15.1603 83.2603L10.4245 85.5505L10.8028 86.334L15.4477 84.089L16.3102 85.8669L6.20319 90.7486L5.34077 88.9707L9.03253 87.1928L8.65428 86.4093L4.96251 88.1872L4.08496 86.3792L14.2827 81.4523ZM9.98573 95.9016L9.1687 94.214L7.88264 94.8318L6.9597 92.9333L8.24576 92.3156L7.48925 90.7486L9.04766 89.9953L11.5593 95.1331L10.0009 95.8865L9.98573 95.9016ZM11.8165 88.8652L13.7985 87.901C15.4477 87.1024 16.5371 87.5243 17.3087 89.1063C18.0804 90.6733 17.7475 91.8184 16.0983 92.6169L14.1163 93.5812C12.4671 94.3798 11.3626 93.9278 10.6061 92.3608C9.83443 90.7938 10.1673 89.6789 11.8316 88.8803L11.8165 88.8652ZM13.2387 91.8184L15.2662 90.839C15.7957 90.5829 16.0227 90.3117 15.7806 89.8295C15.5536 89.3625 15.2057 89.3625 14.661 89.6186L12.6335 90.598C12.104 90.8541 11.8921 91.1404 12.1191 91.6074C12.346 92.0896 12.694 92.0745 13.2387 91.8184Z" fill="white"/>
<path d="M4.90208 82.4015L3.11672 82.8234L0.907715 73.4969L2.69308 73.075L3.52524 76.5856L4.32714 76.3898L6.39997 71.734L7.05057 74.4913L5.91581 77.2034L8.13995 79.1018L8.79054 81.8742L4.85669 78.6197L4.05479 78.8005L4.90208 82.3864V82.4015ZM9.56218 82.2056L6.95979 71.1766L8.79054 70.7396L9.83453 75.1693L12.6336 74.5064L13.148 76.7062L10.349 77.3691L11.3929 81.7536L9.56218 82.1906V82.2056Z" fill="white"/>
<path d="M0.0302604 60.9008L0 58.8969L11.3174 58.701L11.3476 60.705L0.0302604 60.9008ZM11.272 61.5939L11.3023 63.5677L5.44687 63.6732V64.9539L3.66151 64.984V63.7033L0.0756509 63.7636L0.0453906 61.7898L11.272 61.5939ZM0.408515 68.2234L0.378255 66.0688L4.40289 65.9935L10.5306 63.869L10.5609 65.9784L7.12632 67.0331L10.5911 67.9673L10.6214 70.0767L4.43315 68.1631L0.408515 68.2385V68.2234Z" fill="white"/>
<path d="M8.77574 50.3087L8.09488 53.5331C7.61072 55.8082 6.21874 56.6821 3.9946 56.215C1.81586 55.763 0.802132 54.3768 1.2863 52.1017L1.96716 48.8623C2.45132 46.5872 3.91895 45.7283 6.11283 46.1954C8.33697 46.6625 9.25991 48.0185 8.79087 50.2937L8.77574 50.3087ZM3.66174 49.6307L3.14731 52.1017C2.90523 53.2317 3.40453 53.8645 4.44851 54.0906C5.50762 54.3166 6.21874 53.9248 6.46082 52.7948L6.97525 50.3238C7.21733 49.1938 6.71804 48.561 5.65892 48.3349C4.61494 48.1089 3.90382 48.5007 3.66174 49.6307ZM11.4689 46.768L13.2694 47.1446L10.9242 58.234L9.12374 57.8573L9.59277 55.6575L8.12514 55.3562L8.57905 53.2167L10.0467 53.518L10.546 51.1223L9.07835 50.821L9.53225 48.6815L10.9999 48.9828L11.4689 46.783V46.768Z" fill="white"/>
<path d="M12.1345 24.2429C12.2404 24.3182 12.3463 24.3936 12.4673 24.4538C12.6943 24.5894 12.9515 24.6949 13.2087 24.7552C13.5567 24.8456 13.9198 24.8757 14.2829 24.8004C14.4645 24.7702 14.6461 24.71 14.8125 24.6346C14.8882 24.6045 14.9487 24.5593 15.0243 24.5141C15.1 24.4689 15.1756 24.4689 15.2513 24.4388C15.4934 24.3333 15.6901 24.1826 15.8565 23.9717C16.038 23.7306 16.1137 23.4594 16.1137 23.1581C16.1137 22.9923 16.0683 22.8266 16.0078 22.6609C15.8716 22.2691 15.6295 21.9527 15.3572 21.6514C15.2059 21.4856 15.0243 21.35 14.8428 21.2144C14.8428 21.2144 14.8125 21.2144 14.7974 21.2144C14.752 21.1692 14.7066 21.124 14.6461 21.109C14.6461 21.109 14.6007 21.0638 14.5704 21.0487C14.4494 20.9884 14.3283 20.9131 14.2073 20.8528C14.0863 20.7926 13.9803 20.7323 13.8442 20.7021C13.829 20.6871 13.8139 20.672 13.7836 20.672C13.7836 20.672 13.7383 20.6419 13.708 20.6268C13.6021 20.5967 13.481 20.5515 13.3751 20.5063C13.239 20.4611 13.0877 20.4159 12.9364 20.4008C12.8456 20.4008 12.7699 20.3857 12.6791 20.3857C12.5278 20.3857 12.3917 20.3857 12.2404 20.4309C12.0437 20.4761 11.8621 20.5665 11.6806 20.672C11.62 20.7172 11.5595 20.7474 11.5141 20.8076C11.5141 20.8076 11.4839 20.8076 11.4687 20.8378C11.3477 20.9734 11.2115 21.0939 11.1207 21.2596C10.9846 21.4706 10.9089 21.7116 10.8787 21.9527C10.8484 22.1335 10.8484 22.3294 10.8787 22.5102C10.9089 22.6458 10.924 22.7814 10.9997 22.8869C11.0602 23.0677 11.151 23.2183 11.2569 23.369C11.2872 23.4142 11.3174 23.4745 11.3779 23.5046C11.3779 23.5649 11.4385 23.595 11.4839 23.6252C11.4839 23.6252 11.5141 23.6704 11.5293 23.7005C11.7259 23.8813 11.9075 24.0621 12.1345 24.2128V24.2429ZM13.239 22.5253C13.239 22.5253 13.239 22.5253 13.239 22.5102V22.5253Z" fill="white"/>
<path d="M25.7063 22.3746C25.3886 22.254 25.0557 22.1486 24.738 22.0582C24.3749 21.9527 24.0117 21.8774 23.6486 21.787C23.3763 21.7267 23.1039 21.6815 22.8164 21.6363C22.3928 21.576 21.9692 21.5158 21.5455 21.5007C21.4245 21.5007 21.3034 21.4706 21.1824 21.5007C21.1824 21.5007 21.1521 21.5007 21.137 21.5007C20.9554 21.5007 20.7739 21.5007 20.5772 21.5007C20.5469 21.5007 20.5167 21.5007 20.5015 21.5007C20.441 21.5007 20.3956 21.5007 20.3351 21.5007C20.2141 21.5007 20.093 21.5007 19.972 21.5158C19.9115 21.5158 19.8509 21.5158 19.8055 21.5308C19.8055 21.5308 19.7904 21.5308 19.7753 21.5308C19.7753 21.5308 19.7148 21.5308 19.6996 21.5459H19.6694C19.6694 21.5459 19.6542 21.5459 19.6391 21.5459C19.6391 21.5459 19.6542 21.5459 19.6694 21.5459C19.6694 21.5459 19.6542 21.5459 19.6391 21.5459C19.6391 21.5459 19.624 21.5459 19.6088 21.5459C19.5937 21.5459 19.5635 21.5459 19.5483 21.5459C19.3668 21.576 19.1852 21.6212 19.0036 21.6664C18.6254 21.7719 18.2623 21.9075 17.9294 22.1184C17.8386 22.1787 17.7478 22.2088 17.6873 22.2992H17.6722C17.6117 22.3595 17.536 22.4047 17.4755 22.465C17.4452 22.4951 17.415 22.5253 17.3847 22.5554C17.3393 22.5855 17.2939 22.6307 17.2637 22.6759C17.188 22.7814 17.0972 22.8869 17.0367 22.9923C16.9762 23.0827 16.9157 23.1882 16.8854 23.2937C16.8854 23.2937 16.8854 23.2937 16.8854 23.3087C16.8854 23.3087 16.8552 23.3389 16.8703 23.3539C16.8703 23.3539 16.8703 23.3539 16.8703 23.369C16.8703 23.369 16.8249 23.4594 16.8098 23.5197C16.7341 23.7608 16.6736 24.0018 16.6433 24.2429C16.6433 24.3333 16.6131 24.4237 16.6433 24.5141C16.6433 24.5292 16.6433 24.5442 16.6433 24.5744C16.6433 24.6949 16.6433 24.8305 16.6433 24.951C16.6433 25.1168 16.6585 25.2825 16.6736 25.4633C16.6736 25.5387 16.6887 25.5989 16.7039 25.6743C16.7039 25.6743 16.7039 25.6893 16.7039 25.7044C16.7039 25.7044 16.7039 25.7044 16.7039 25.7195C16.7039 25.7496 16.7039 25.7948 16.7039 25.8249C16.7644 26.1715 16.8249 26.518 16.9157 26.8495C17.0216 27.2412 17.1275 27.6179 17.2637 28.0097C17.3696 28.3411 17.5058 28.6575 17.6268 28.989C17.6268 29.0041 17.6419 29.0342 17.6571 29.0493C17.6873 29.1547 17.7327 29.2602 17.7781 29.3506C17.7781 29.3808 17.7932 29.4109 17.8084 29.441C17.8537 29.5465 17.884 29.6369 17.9294 29.7424C18.005 29.9382 18.111 30.119 18.2017 30.2998C18.3077 30.4806 18.4136 30.6614 18.5497 30.8272C18.6708 30.9929 18.8069 31.1587 18.9431 31.2943C18.9885 31.3395 19.0339 31.3847 19.0793 31.4148C19.1549 31.4751 19.2306 31.5504 19.3214 31.6107C19.4273 31.686 19.5332 31.7463 19.6542 31.8216C19.6845 31.8367 19.7299 31.8668 19.7753 31.8668C19.8207 31.912 19.8661 31.9271 19.9266 31.9271C19.9266 31.9271 19.9568 31.9421 19.972 31.9421C20.1838 32.0175 20.3956 32.0627 20.6074 32.0778C20.6982 32.0778 20.789 32.0928 20.8647 32.0778C20.8647 32.0778 20.8798 32.0778 20.8949 32.0778C20.8949 32.0778 21.0462 32.0778 21.1067 32.0476C21.1521 32.0476 21.2126 32.0476 21.258 32.0175C21.3488 32.0175 21.4396 31.9723 21.5304 31.9572C21.6514 31.9271 21.7573 31.8819 21.8784 31.8216C22.0145 31.7764 22.1356 31.7011 22.2415 31.6107C22.2718 31.6107 22.302 31.5805 22.3172 31.5504C22.3172 31.5504 22.3474 31.5504 22.3625 31.5203C22.4533 31.4449 22.5441 31.3847 22.6198 31.3093C22.7559 31.1737 22.9072 31.0532 23.0283 30.9025C23.225 30.6916 23.4065 30.4656 23.6032 30.2396C23.8907 29.893 24.2084 29.5616 24.511 29.215C24.5564 29.1698 24.5867 29.1246 24.6169 29.0794C24.6169 29.0794 24.6321 29.0493 24.6472 29.0493C24.6926 29.0041 24.738 28.9589 24.7682 28.9137C24.7682 28.9137 24.8288 28.8383 24.859 28.8082C24.859 28.8082 24.9347 28.7178 24.9801 28.6726C25.3129 28.311 25.6307 27.9343 25.9484 27.5727C26.024 27.4823 26.1148 27.3768 26.1905 27.2864C26.2056 27.2714 26.2359 27.2412 26.2359 27.2111C26.251 27.181 26.2813 27.1659 26.2964 27.1358C26.372 27.0604 26.4174 26.9851 26.478 26.8947C26.5385 26.8194 26.599 26.729 26.6595 26.6536C26.7503 26.518 26.8411 26.3673 26.9319 26.2167C26.9772 26.1413 27.0226 26.0811 27.0378 26.0057C27.0378 26.0057 27.0378 26.0057 27.0378 25.9907C27.0529 25.9907 27.068 25.9605 27.0529 25.9455V25.9304C27.068 25.9153 27.0832 25.8852 27.0832 25.8701C27.1286 25.8099 27.1588 25.7345 27.1739 25.6592C27.2193 25.5839 27.2496 25.5236 27.2496 25.4483C27.2496 25.4332 27.2647 25.4181 27.2647 25.388C27.2647 25.388 27.2647 25.388 27.2647 25.3729C27.295 25.2825 27.3252 25.1771 27.3404 25.0866C27.3858 24.8456 27.4009 24.6196 27.3555 24.3785C27.2799 23.9114 27.068 23.5347 26.7352 23.2033C26.6595 23.1279 26.5839 23.0526 26.5082 22.9773C26.4174 22.8718 26.3115 22.7663 26.2056 22.6759C26.0543 22.5403 25.8727 22.4499 25.6912 22.3897L25.7063 22.3746ZM24.8288 28.0097C24.8288 28.0097 24.8136 28.0097 24.7985 28.0097C24.7985 28.0097 24.8136 28.0097 24.8288 28.0097ZM22.9829 25.84C22.9829 25.84 22.9526 25.8099 22.9526 25.7948C22.9526 25.7496 22.9526 25.7195 22.998 25.7044C22.998 25.7044 22.998 25.7044 23.0131 25.7044C23.0131 25.7496 22.998 25.7948 22.9829 25.84ZM24.2689 25.7345C24.2689 25.7345 24.2689 25.7044 24.2841 25.6893C24.2841 25.7044 24.2841 25.7195 24.2689 25.7345ZM24.1176 24.2128V24.1977C24.1176 24.1977 24.1176 24.2128 24.1176 24.2278V24.2128ZM26.0846 25.1017C26.0846 25.1017 26.0846 25.1017 26.0846 25.0866C26.0846 25.0866 26.0846 25.0866 26.0846 25.1017ZM24.3597 22.7814C24.3597 22.7814 24.3597 22.7814 24.3597 22.7965C24.3597 22.7965 24.3597 22.7965 24.3597 22.7814ZM25.8879 25.3277C25.8879 25.3277 25.8879 25.3277 25.8879 25.3428C25.8879 25.3428 25.8879 25.3277 25.8879 25.3127V25.3277ZM20.5772 22.5102C20.5772 22.5102 20.5772 22.5102 20.5772 22.4951V22.5102ZM17.7478 24.484C17.7478 24.484 17.7478 24.484 17.763 24.484H17.7478ZM17.6419 24.5593C17.6419 24.5593 17.6419 24.5593 17.6571 24.5442C17.6571 24.5442 17.6571 24.5442 17.6419 24.5593ZM25.1011 22.6458C25.1011 22.6458 25.1011 22.6609 25.1011 22.6759C25.1011 22.691 25.1011 22.7061 25.086 22.7061C25.0708 22.7061 25.0406 22.7061 25.0255 22.7061C25.0406 22.6759 25.0708 22.6458 25.086 22.6307L25.1011 22.6458ZM17.0972 23.4895C17.0972 23.4895 17.0972 23.4895 17.0821 23.4895C17.0821 23.4895 17.0821 23.4895 17.0972 23.4895ZM25.2827 27.4672C25.2827 27.4672 25.2675 27.4823 25.2675 27.4974C25.2675 27.4974 25.2675 27.4823 25.2827 27.4672Z" fill="white"/>
<path d="M16.3862 20.2501C16.6283 20.4007 16.9006 20.5213 17.1881 20.5665C17.3394 20.5966 17.5058 20.5966 17.6572 20.5665C17.6874 20.5665 17.7025 20.5665 17.7177 20.5665C17.8538 20.5514 17.99 20.5062 18.1262 20.4309C18.3229 20.4007 18.4893 20.3103 18.6557 20.2049C18.8827 20.0391 19.0643 19.8282 19.1399 19.557C19.1853 19.4364 19.2156 19.3159 19.1853 19.1803C19.1853 19.1803 19.1853 19.1652 19.1853 19.1502C19.1853 19.1502 19.1853 19.1351 19.1853 19.12C19.1853 19.0748 19.1853 19.0296 19.1853 18.9844C19.1853 18.9392 19.1853 18.9091 19.1853 18.8639C19.1399 18.4872 19.0643 18.1256 18.9281 17.764C18.807 17.4325 18.6557 17.1312 18.4591 16.8449C18.338 16.6792 18.217 16.5134 18.0808 16.3477C17.9446 16.182 17.7933 16.0313 17.6269 15.8957C17.5664 15.8354 17.4907 15.7902 17.4151 15.7299C17.3394 15.6697 17.2486 15.6094 17.173 15.5642C17.1427 15.5491 17.1125 15.5039 17.0671 15.5039C17.0671 15.5039 16.9158 15.3985 16.825 15.3683C16.825 15.3683 16.825 15.3683 16.8099 15.3683C16.7947 15.3533 16.7796 15.3382 16.7493 15.3382C16.5375 15.2327 16.3257 15.1875 16.0987 15.1725C16.0231 15.1725 15.9323 15.1574 15.8567 15.1725C15.781 15.1725 15.7205 15.1875 15.6448 15.2026C15.6297 15.2026 15.6146 15.2026 15.5994 15.2177C15.5994 15.2177 15.5843 15.2177 15.5692 15.2177C15.2968 15.2779 15.0699 15.4135 14.8732 15.5943C14.6614 15.7752 14.5101 16.0012 14.4193 16.2724C14.3739 16.3929 14.3436 16.5285 14.3436 16.6641C14.3436 16.6942 14.3285 16.7244 14.3436 16.7545C14.3436 16.7545 14.3436 16.8148 14.3436 16.86C14.3436 16.8901 14.3436 16.9353 14.3436 16.9654C14.3436 17.2065 14.4042 17.4325 14.4647 17.6585C14.4647 17.6736 14.4798 17.7037 14.4949 17.7188C14.4949 17.7188 14.4949 17.7339 14.4949 17.7489C14.4949 17.7489 14.4949 17.7489 14.4949 17.764C14.4949 17.764 14.4949 17.7791 14.4949 17.7941C14.4949 17.7941 14.4949 17.8092 14.4949 17.8243C14.4949 17.8243 14.4949 17.8243 14.4949 17.8393C14.4949 17.8393 14.4949 17.8695 14.4949 17.8996C14.616 18.2461 14.7824 18.5626 14.9791 18.8639C15.0094 18.9242 15.0396 18.9694 15.085 19.0146C15.085 19.0146 15.1001 19.0447 15.1153 19.0447C15.1153 19.0748 15.1304 19.0899 15.1607 19.105C15.1607 19.105 15.2212 19.1954 15.2666 19.2255C15.2666 19.2556 15.2817 19.2707 15.2968 19.2858C15.3574 19.346 15.4179 19.4214 15.4784 19.4816C15.5843 19.6022 15.6902 19.6926 15.7961 19.798C15.9777 19.9638 16.1593 20.1145 16.3711 20.2501H16.3862ZM16.5224 16.9052C16.5224 16.9052 16.5224 16.9052 16.5224 16.9202C16.5224 16.9202 16.5224 16.9202 16.5224 16.9052ZM15.7054 16.3025C15.7054 16.3025 15.7054 16.3025 15.7054 16.3176C15.7054 16.3176 15.7054 16.3025 15.7054 16.2874C15.7054 16.2874 15.7205 16.2874 15.7356 16.2874C15.7356 16.2874 15.7356 16.2874 15.7356 16.3025H15.7054ZM15.902 15.3231C15.902 15.3231 15.902 15.3231 15.902 15.3081C15.902 15.3081 15.902 15.3081 15.902 15.3231ZM15.5692 15.2177C15.5692 15.2177 15.5541 15.2177 15.5389 15.2177C15.5389 15.2177 15.5541 15.2177 15.5692 15.2177Z" fill="white"/>
<path d="M16.2198 28.6726C16.2803 28.5822 16.3105 28.4918 16.3257 28.3863C16.3559 28.2356 16.3711 28.085 16.3559 27.9343C16.3408 27.7535 16.2803 27.5727 16.1592 27.422C16.0987 27.3467 16.0382 27.2563 15.9777 27.1809C15.902 27.1056 15.8415 27.0001 15.7507 26.9399C15.7507 26.9399 15.7205 26.9097 15.7053 26.8947C15.7053 26.8947 15.6902 26.8796 15.6751 26.8645C15.6751 26.8645 15.6297 26.8043 15.5994 26.7741C15.5086 26.7139 15.4179 26.6385 15.3271 26.5632C15.3119 26.5632 15.2968 26.5331 15.2666 26.5331C15.206 26.4728 15.1304 26.4276 15.0699 26.3824C14.9337 26.292 14.7824 26.2016 14.616 26.1564C14.5403 26.1413 14.4798 26.1112 14.4041 26.0811C14.0864 25.9756 13.7687 25.9304 13.4358 25.9756C13.2845 25.9907 13.1483 26.0208 13.0122 26.066C12.9668 26.066 12.9214 26.0811 12.8911 26.1112C12.876 26.1112 12.8609 26.1112 12.8457 26.1263C12.7398 26.1564 12.649 26.2016 12.5583 26.2769C12.5583 26.2769 12.528 26.2769 12.5129 26.292C12.2859 26.4427 12.1043 26.6385 11.9682 26.8645C11.7564 27.2261 11.6958 27.6179 11.7412 28.0247C11.7715 28.2658 11.8623 28.5068 11.9682 28.7178C12.0287 28.8233 12.0892 28.9438 12.1951 29.0191C12.2103 29.0643 12.2556 29.0945 12.301 29.1397C12.301 29.1397 12.3162 29.1547 12.3313 29.1698C12.3313 29.1698 12.3313 29.1999 12.3616 29.215C12.528 29.3807 12.7247 29.5314 12.9365 29.6519C12.9668 29.667 12.997 29.7122 13.0424 29.7122C13.0727 29.7273 13.0878 29.7574 13.1332 29.7574C13.1332 29.7574 13.1332 29.7574 13.1483 29.7574C13.2996 29.8327 13.4661 29.893 13.6174 29.9382C13.693 29.9533 13.7687 29.9834 13.8443 29.9834C13.8443 29.9834 13.8746 29.9985 13.8897 29.9834C13.8897 29.9834 13.9048 29.9834 13.92 29.9834C13.92 29.9834 13.9048 29.9834 13.8897 29.9834C13.8897 29.9834 13.9048 29.9834 13.92 29.9834C13.9502 29.9985 13.9805 29.9985 14.0108 29.9834H14.041C14.041 29.9834 14.041 29.9834 14.0561 29.9834C14.0561 29.9834 14.0713 29.9834 14.0864 29.9834C14.0864 29.9834 14.1015 29.9834 14.1167 29.9834C14.1469 29.9985 14.1923 29.9985 14.2377 29.9834C14.2377 29.9834 14.268 29.9985 14.2831 29.9834C14.2831 29.9834 14.2982 29.9834 14.3134 29.9834C14.3134 29.9834 14.3285 29.9834 14.3436 29.9834C14.3436 29.9834 14.3587 29.9834 14.3739 29.9834C14.3739 29.9834 14.389 29.9834 14.4041 29.9834C14.5554 29.9834 14.7067 29.9834 14.858 29.9231C14.8732 29.9231 14.8883 29.9231 14.9034 29.9081C14.9034 29.9081 14.9186 29.9081 14.9337 29.9081C14.9488 29.9081 14.964 29.9081 14.9791 29.893C14.9791 29.893 14.9942 29.893 15.0093 29.893C15.0093 29.893 14.9942 29.893 14.9791 29.893C14.9791 29.893 14.9942 29.893 15.0093 29.893C15.0093 29.893 15.0093 29.893 15.0245 29.893C15.0245 29.893 15.0396 29.893 15.0547 29.893C15.1606 29.8629 15.2666 29.8177 15.3422 29.7423C15.4935 29.6821 15.5994 29.5766 15.7053 29.4711C15.781 29.4109 15.8264 29.3355 15.8869 29.2451C15.9928 29.0945 16.0685 28.9287 16.0987 28.763C16.0987 28.7027 16.129 28.6575 16.1592 28.5972L16.2198 28.6726ZM12.9516 27.1056C12.9516 27.1056 12.9516 27.1207 12.9516 27.1357C12.9516 27.1357 12.9516 27.1207 12.9516 27.1056ZM15.8112 28.0548C15.8112 28.0548 15.8112 28.0398 15.7961 28.0247C15.7961 28.0247 15.8112 28.0247 15.8112 28.0548ZM14.1167 30.0889C14.1167 30.0889 14.1318 30.0889 14.1469 30.0889C14.1469 30.0889 14.1318 30.0889 14.1167 30.0889ZM14.964 30.0135C14.964 30.0135 14.9791 30.0135 14.9942 30.0135C14.9942 30.0135 14.9791 30.0135 14.964 30.0135Z" fill="white"/>
<path d="M22.9372 15.956C22.801 15.8204 22.6497 15.6999 22.4833 15.5944C22.453 15.5794 22.4228 15.5492 22.3774 15.5492C22.2714 15.489 22.1655 15.4438 22.0445 15.4438C21.9991 15.4287 21.9386 15.4136 21.8781 15.4287C21.8781 15.4287 21.7722 15.4136 21.7268 15.4287C21.5301 15.4287 21.3334 15.4739 21.1518 15.5643C20.9854 15.6396 20.8492 15.7451 20.7282 15.8656C20.713 15.8807 20.6828 15.9108 20.6676 15.9259C20.6223 16.0163 20.5466 16.0766 20.5012 16.167C20.4104 16.3026 20.3499 16.4382 20.3045 16.5889C20.2289 16.9053 20.1986 17.2217 20.2137 17.5381C20.2137 17.7942 20.2743 18.0654 20.3348 18.3065C20.3499 18.3818 20.365 18.4572 20.4104 18.5174C20.4104 18.5174 20.4104 18.5626 20.4104 18.5777C20.4558 18.6681 20.4861 18.7585 20.5315 18.8489C20.6071 18.9996 20.6979 19.1653 20.8038 19.3009C20.8643 19.3763 20.9249 19.4516 20.9703 19.542C21.0459 19.6927 21.1669 19.8283 21.3031 19.9187C21.3485 19.9488 21.3939 19.994 21.4544 20.0091C21.5603 20.0844 21.6814 20.1296 21.8175 20.1447C21.8175 20.1447 21.8781 20.1597 21.9235 20.1597C22.0596 20.1748 22.1807 20.1597 22.3168 20.1145C22.4076 20.0995 22.4984 20.0693 22.5741 20.0241C22.6043 20.0241 22.6346 20.0091 22.6648 19.994C22.8313 19.9036 22.9826 19.7831 23.0733 19.6173C23.1036 19.5872 23.1187 19.5721 23.149 19.542C23.1944 19.4817 23.2398 19.4215 23.27 19.3461V19.3311C23.27 19.3311 23.2852 19.3009 23.3003 19.3009C23.4819 18.9544 23.6029 18.6078 23.6483 18.2312C23.6483 18.0956 23.6786 17.9449 23.6634 17.8093C23.6634 17.5381 23.6029 17.2669 23.5273 17.0107C23.5121 16.9354 23.4819 16.8751 23.4365 16.8149C23.4365 16.7998 23.4365 16.7847 23.4213 16.7697C23.4213 16.7395 23.4062 16.7245 23.3911 16.7094C23.3911 16.6491 23.3457 16.5889 23.3003 16.5437C23.3003 16.5135 23.2852 16.4985 23.27 16.4834C23.27 16.4533 23.2549 16.4382 23.2398 16.4231C23.2398 16.393 23.2247 16.3779 23.1944 16.3628C23.1944 16.3628 23.1793 16.3478 23.1641 16.3327V16.3176C23.1036 16.2423 23.0431 16.1519 22.9674 16.0916C22.9674 16.0916 22.9674 16.0615 22.9372 16.0464V15.956ZM22.7707 19.7228C22.7707 19.7228 22.7707 19.7228 22.7859 19.7077C22.7859 19.7077 22.7859 19.7228 22.7707 19.7228ZM23.27 19.3461C23.27 19.3461 23.27 19.3461 23.2852 19.3461C23.2852 19.3461 23.2852 19.3461 23.27 19.3461Z" fill="white"/>
<path d="M123.008 30.6915C122.887 30.7367 122.766 30.797 122.66 30.8572C122.418 30.9778 122.206 31.1435 122.01 31.3243C121.753 31.5805 121.541 31.8667 121.405 32.2133C121.344 32.3941 121.284 32.5598 121.268 32.7557C121.268 32.831 121.268 32.9214 121.268 32.9968C121.268 33.0872 121.223 33.1474 121.208 33.2378C121.162 33.494 121.193 33.7501 121.284 33.9912C121.405 34.2775 121.586 34.4733 121.843 34.624C121.995 34.7144 122.161 34.7596 122.327 34.7897C122.736 34.8801 123.129 34.85 123.538 34.7747C123.765 34.7295 123.977 34.6541 124.173 34.5637C124.173 34.5637 124.204 34.5487 124.204 34.5336C124.264 34.5185 124.325 34.5035 124.37 34.4583C124.37 34.4583 124.431 34.4432 124.461 34.4281C124.582 34.3679 124.703 34.2925 124.809 34.2172C124.915 34.1419 125.036 34.0816 125.127 33.9912C125.157 33.9912 125.172 33.9761 125.187 33.946C125.187 33.946 125.248 33.9159 125.263 33.9008C125.354 33.8255 125.444 33.7501 125.535 33.6748C125.656 33.5844 125.762 33.4789 125.853 33.3584C125.898 33.2981 125.959 33.2228 126.004 33.1474C126.08 33.0269 126.155 32.8913 126.201 32.7557C126.261 32.5598 126.292 32.3639 126.276 32.153C126.276 32.0777 126.276 32.0174 126.246 31.9421C126.246 31.9421 126.246 31.8969 126.246 31.8818C126.201 31.7161 126.155 31.5353 126.08 31.3695C125.959 31.1435 125.807 30.9476 125.611 30.797C125.459 30.6764 125.308 30.586 125.142 30.5107C125.021 30.4655 124.884 30.4203 124.748 30.4052C124.567 30.36 124.385 30.36 124.204 30.3751C124.143 30.3751 124.083 30.3751 124.022 30.4052C123.962 30.3902 123.916 30.4052 123.871 30.4203C123.871 30.4203 123.81 30.4203 123.78 30.4203C123.523 30.4956 123.266 30.5559 123.023 30.6614L123.008 30.6915ZM123.886 32.5297C123.886 32.5297 123.886 32.5297 123.901 32.5297H123.886Z" fill="white"/>
<path d="M117.44 43.1671C117.713 42.9561 117.97 42.7301 118.212 42.5041C118.484 42.248 118.757 41.9918 119.014 41.7206C119.211 41.5248 119.392 41.3138 119.574 41.1029C119.846 40.7865 120.118 40.4399 120.361 40.0934C120.436 39.9879 120.512 39.8975 120.557 39.792C120.557 39.792 120.587 39.777 120.587 39.7619C120.678 39.6112 120.784 39.4455 120.875 39.2948C120.875 39.2647 120.89 39.2496 120.905 39.2195C120.935 39.1743 120.966 39.1291 120.981 39.0839C121.041 38.9784 121.102 38.873 121.147 38.7675C121.178 38.7223 121.208 38.662 121.223 38.6168C121.223 38.6168 121.223 38.6017 121.223 38.5867C121.223 38.5867 121.253 38.5415 121.253 38.5113C121.253 38.5113 121.268 38.4963 121.268 38.4812C121.268 38.4812 121.268 38.4661 121.268 38.4511C121.268 38.4511 121.268 38.4661 121.268 38.4812C121.268 38.4812 121.268 38.4661 121.268 38.4511C121.268 38.4511 121.268 38.436 121.283 38.4209C121.283 38.4059 121.314 38.3908 121.314 38.3757C121.374 38.21 121.45 38.0292 121.495 37.8484C121.601 37.4717 121.692 37.095 121.677 36.7033C121.677 36.5978 121.677 36.5074 121.662 36.402C121.662 36.402 121.662 36.402 121.662 36.3869C121.662 36.2965 121.647 36.2212 121.616 36.1308C121.616 36.0856 121.586 36.0403 121.586 36.0102C121.586 35.9499 121.571 35.9047 121.541 35.8595C121.48 35.739 121.45 35.6034 121.389 35.4979C121.329 35.4075 121.299 35.3021 121.208 35.2117C121.208 35.2117 121.208 35.2117 121.208 35.1966C121.208 35.1815 121.208 35.1665 121.178 35.1514C121.178 35.1514 121.178 35.1514 121.178 35.1363C121.178 35.1363 121.117 35.0459 121.087 35.0007C120.92 34.8049 120.754 34.624 120.557 34.4734C120.482 34.4131 120.421 34.3528 120.33 34.3227C120.33 34.3227 120.3 34.2926 120.285 34.2775C120.179 34.2022 120.073 34.1419 119.967 34.0816C119.816 33.9912 119.665 33.9159 119.513 33.8406C119.453 33.8104 119.392 33.7803 119.317 33.7652C119.317 33.7652 119.301 33.7652 119.286 33.7652C119.286 33.7652 119.286 33.7652 119.271 33.7652C119.241 33.7502 119.211 33.7351 119.18 33.72C118.863 33.5844 118.53 33.4639 118.197 33.3584C117.819 33.2379 117.425 33.1324 117.032 33.042C116.699 32.9667 116.351 32.8913 116.003 32.8311C115.988 32.8311 115.958 32.8311 115.943 32.8311C115.837 32.8009 115.731 32.7859 115.625 32.7708C115.595 32.7708 115.564 32.7557 115.534 32.7557C115.428 32.7407 115.322 32.7256 115.216 32.7105C115.004 32.6804 114.808 32.6653 114.596 32.6503C114.384 32.6503 114.172 32.6503 113.96 32.6503C113.749 32.6653 113.552 32.6955 113.355 32.7407C113.295 32.7557 113.234 32.7708 113.174 32.7859C113.068 32.816 112.977 32.8461 112.886 32.8763C112.765 32.9215 112.659 32.9817 112.538 33.042C112.508 33.0571 112.463 33.0872 112.432 33.1173C112.372 33.1324 112.342 33.1625 112.296 33.2077C112.296 33.2077 112.266 33.2077 112.251 33.2228C112.069 33.3584 111.918 33.5091 111.797 33.6899C111.751 33.7652 111.691 33.8255 111.661 33.9159C111.661 33.9159 111.661 33.931 111.646 33.946C111.646 33.946 111.57 34.0666 111.555 34.1419C111.525 34.1871 111.494 34.2172 111.494 34.2775C111.449 34.3679 111.434 34.4583 111.403 34.5487C111.373 34.6693 111.343 34.7898 111.343 34.9103C111.313 35.0459 111.313 35.1966 111.328 35.3322C111.313 35.3623 111.328 35.3925 111.328 35.4226C111.328 35.4226 111.328 35.4527 111.328 35.4829C111.328 35.5883 111.358 35.7089 111.373 35.8143C111.403 36.0102 111.449 36.191 111.494 36.3718C111.585 36.643 111.661 36.9293 111.751 37.2005C111.888 37.6375 112.009 38.0744 112.145 38.5113C112.16 38.5716 112.175 38.6168 112.205 38.6771C112.205 38.6771 112.205 38.7072 112.205 38.7223C112.205 38.7223 112.236 38.8428 112.266 38.9031C112.266 38.9031 112.296 38.9935 112.311 39.0387C112.311 39.0387 112.342 39.1592 112.357 39.2044C112.493 39.6715 112.644 40.1386 112.795 40.6057C112.841 40.7262 112.871 40.8467 112.901 40.9673C112.901 40.9974 112.901 41.0275 112.947 41.0426C112.947 41.0727 112.962 41.1029 112.977 41.133C112.992 41.2385 113.038 41.3289 113.083 41.4193C113.128 41.5097 113.159 41.6152 113.204 41.7056C113.28 41.8562 113.355 42.0069 113.431 42.1576C113.461 42.2329 113.507 42.3082 113.552 42.3685C113.552 42.3685 113.552 42.3685 113.552 42.3836C113.552 42.3986 113.552 42.4137 113.582 42.4288V42.4438C113.582 42.474 113.582 42.489 113.628 42.5041C113.658 42.5794 113.703 42.6397 113.749 42.6849C113.779 42.7602 113.824 42.8205 113.9 42.8657C113.9 42.8808 113.915 42.8958 113.93 42.9109C113.93 42.9109 113.93 42.9109 113.93 42.926C113.991 43.0013 114.066 43.0767 114.142 43.152C114.324 43.3177 114.52 43.4533 114.732 43.5437C115.171 43.7245 115.61 43.7547 116.064 43.6492C116.169 43.6191 116.275 43.604 116.381 43.5889C116.533 43.5739 116.669 43.5437 116.805 43.4985C117.002 43.4383 117.168 43.3328 117.319 43.2123L117.44 43.1671ZM113.098 39.4455C113.098 39.4455 113.098 39.4455 113.113 39.4304C113.113 39.4304 113.113 39.4304 113.098 39.4455ZM115.927 39.0387C115.927 39.0387 115.958 39.0387 115.973 39.0387C116.018 39.0387 116.033 39.0839 116.033 39.114C116.033 39.114 116.033 39.114 116.033 39.1291C116.003 39.099 115.958 39.0688 115.927 39.0387ZM115.337 40.1687C115.337 40.1687 115.368 40.1989 115.368 40.2139C115.368 40.2139 115.352 40.1838 115.337 40.1687ZM116.714 40.8467C116.714 40.8467 116.714 40.8467 116.714 40.8618C116.714 40.8618 116.714 40.8618 116.699 40.8467H116.714ZM114.914 42.0521C114.914 42.0521 114.914 42.0521 114.914 42.0672C114.914 42.0672 114.914 42.0672 114.914 42.0521ZM117.804 41.811C117.804 41.811 117.804 41.811 117.788 41.811C117.788 41.811 117.788 41.811 117.804 41.811ZM114.823 41.7658C114.823 41.7658 114.823 41.7658 114.823 41.7809V41.7658ZM120.043 38.7524C120.043 38.7524 120.043 38.7524 120.058 38.7524C120.058 38.7524 120.058 38.7524 120.043 38.7524ZM119.846 35.3171C119.846 35.3171 119.846 35.3171 119.846 35.3322C119.846 35.3322 119.846 35.3322 119.846 35.3171ZM119.831 35.1815C119.831 35.1815 119.831 35.1966 119.831 35.2117C119.831 35.2117 119.831 35.2117 119.831 35.1815ZM117.531 42.5041H117.501C117.501 42.5041 117.471 42.489 117.486 42.474C117.486 42.4589 117.501 42.4438 117.516 42.4288C117.516 42.4589 117.546 42.489 117.546 42.5192L117.531 42.5041ZM121.041 35.3021C121.041 35.3021 121.041 35.3021 121.041 35.287C121.041 35.287 121.041 35.287 121.041 35.3021ZM113.325 40.1235C113.325 40.1235 113.325 40.1084 113.325 40.0934C113.325 40.0934 113.325 40.1084 113.325 40.1235Z" fill="white"/>
<path d="M124.173 36.3869C123.916 36.5225 123.674 36.6732 123.477 36.8992C123.371 37.0197 123.296 37.1553 123.235 37.306C123.22 37.3211 123.205 37.3362 123.205 37.3663C123.144 37.5019 123.114 37.6375 123.114 37.7882C123.039 37.969 123.023 38.1648 123.023 38.3607C123.039 38.647 123.129 38.9031 123.326 39.1141C123.402 39.2195 123.508 39.3099 123.614 39.3551C123.614 39.3551 123.629 39.3551 123.644 39.3702C123.644 39.3702 123.659 39.3702 123.674 39.3853C123.704 39.4154 123.75 39.4305 123.795 39.4455C123.825 39.4757 123.856 39.4757 123.901 39.5058C124.249 39.6715 124.597 39.7921 124.975 39.8674C125.308 39.9427 125.656 39.9729 126.004 39.9578C126.216 39.9578 126.428 39.9277 126.624 39.8975C126.836 39.8674 127.048 39.8222 127.245 39.7619C127.336 39.7318 127.411 39.7017 127.487 39.6715C127.578 39.6414 127.668 39.5962 127.759 39.551C127.789 39.5359 127.835 39.5209 127.865 39.4907C127.956 39.4606 128.032 39.4154 128.107 39.3551C128.107 39.3551 128.107 39.3551 128.122 39.3551C128.153 39.3551 128.168 39.3551 128.183 39.3099C128.38 39.1894 128.546 39.0387 128.682 38.8429C128.728 38.7826 128.788 38.7223 128.803 38.6319C128.849 38.5716 128.864 38.4963 128.894 38.436C128.894 38.436 128.909 38.4059 128.894 38.3908C128.894 38.3908 128.894 38.3758 128.894 38.3607C128.985 38.1046 129 37.8334 128.939 37.5622C128.894 37.291 128.773 37.0348 128.606 36.8239C128.531 36.7184 128.44 36.628 128.319 36.5527C128.304 36.5376 128.289 36.5075 128.258 36.5075C128.243 36.4773 128.213 36.4623 128.168 36.4623C128.137 36.4472 128.107 36.4171 128.077 36.402C127.865 36.2815 127.653 36.2061 127.426 36.1459C127.411 36.1459 127.381 36.1459 127.366 36.1459C127.366 36.1459 127.351 36.1459 127.336 36.1459C127.336 36.1459 127.336 36.1459 127.32 36.1459C127.32 36.1459 127.305 36.1459 127.29 36.1459C127.29 36.1459 127.29 36.1459 127.275 36.1459C127.275 36.1459 127.26 36.1459 127.245 36.1459C127.245 36.1459 127.245 36.1459 127.23 36.1459C127.23 36.1459 127.199 36.1459 127.169 36.1308C126.806 36.0555 126.458 36.0253 126.095 36.0404C126.034 36.0404 125.959 36.0404 125.898 36.0404C125.898 36.0404 125.868 36.0404 125.853 36.0404C125.823 36.0253 125.807 36.0404 125.777 36.0404C125.777 36.0404 125.671 36.0404 125.626 36.0555C125.611 36.0555 125.58 36.0555 125.565 36.0555C125.475 36.0705 125.384 36.0856 125.293 36.1007C125.142 36.1157 125.005 36.1609 124.854 36.2061C124.612 36.2664 124.385 36.3417 124.173 36.4472V36.3869ZM127.895 37.8936C127.895 37.8936 127.895 37.8936 127.88 37.8936C127.88 37.8936 127.895 37.8936 127.91 37.8936C127.91 37.8936 127.91 37.9087 127.91 37.9238C127.91 37.9238 127.91 37.9087 127.91 37.8936H127.895ZM128.637 38.5867C128.637 38.5867 128.637 38.5867 128.652 38.5867C128.652 38.5867 128.652 38.5867 128.637 38.5867ZM128.894 38.3607C128.894 38.3607 128.894 38.3456 128.894 38.3306C128.894 38.3306 128.894 38.3456 128.894 38.3607Z" fill="white"/>
<path d="M117.077 31.8065C117.123 31.8969 117.183 31.9722 117.259 32.0476C117.365 32.153 117.501 32.2434 117.637 32.3037C117.804 32.379 117.985 32.4242 118.167 32.4092C118.273 32.4092 118.379 32.4092 118.469 32.379C118.575 32.364 118.696 32.364 118.787 32.3188C118.787 32.3188 118.833 32.3188 118.848 32.3037C118.848 32.3037 118.878 32.3037 118.893 32.3037C118.893 32.3037 118.969 32.3037 118.999 32.3037C119.105 32.2585 119.211 32.2284 119.317 32.1832C119.332 32.1832 119.362 32.1832 119.377 32.153C119.468 32.138 119.529 32.0928 119.604 32.0626C119.755 31.9873 119.907 31.912 120.028 31.8065C120.088 31.7613 120.134 31.7161 120.194 31.6709C120.436 31.4599 120.663 31.2189 120.799 30.9175C120.86 30.7819 120.905 30.6463 120.951 30.4957C120.951 30.4504 120.981 30.4203 120.966 30.3751C120.966 30.3751 120.966 30.345 120.966 30.3299C120.996 30.2244 121.011 30.119 120.996 30.0135C120.996 30.0135 120.996 29.9834 120.996 29.9683C120.996 29.6971 120.92 29.441 120.784 29.1999C120.588 28.8232 120.285 28.5671 119.907 28.4013C119.68 28.2959 119.438 28.2507 119.196 28.2356C119.075 28.2356 118.938 28.2356 118.817 28.2657C118.817 28.2657 118.817 28.2657 118.802 28.2657C118.742 28.2657 118.696 28.2808 118.651 28.2959C118.651 28.2959 118.621 28.2959 118.606 28.2959C118.606 28.2959 118.575 28.2959 118.545 28.2959C118.303 28.3561 118.076 28.4315 117.864 28.552C117.834 28.5671 117.789 28.5821 117.758 28.6123C117.728 28.6123 117.698 28.6123 117.683 28.6575C117.683 28.6575 117.683 28.6575 117.667 28.6575C117.516 28.7479 117.38 28.8533 117.259 28.9588C117.198 29.004 117.153 29.0643 117.108 29.1246C117.093 29.1246 117.077 29.1396 117.077 29.1547C117.077 29.1547 117.077 29.1698 117.062 29.1848C117.062 29.1848 117.062 29.1698 117.077 29.1547C117.077 29.1547 117.062 29.1547 117.062 29.1848C117.032 29.1848 117.017 29.215 117.017 29.2451C117.017 29.2451 117.017 29.2602 117.002 29.2752C117.002 29.2752 117.002 29.2903 116.987 29.3054C116.987 29.3054 116.971 29.3204 116.971 29.3355C116.926 29.3506 116.911 29.3958 116.896 29.4259C116.881 29.4259 116.866 29.441 116.866 29.456C116.866 29.456 116.866 29.4711 116.85 29.4862C116.85 29.4862 116.85 29.5012 116.835 29.5163C116.835 29.5163 116.835 29.5314 116.82 29.5464C116.82 29.5464 116.82 29.5615 116.805 29.5766C116.805 29.5766 116.805 29.5615 116.82 29.5464C116.82 29.5464 116.805 29.5615 116.805 29.5766C116.714 29.7122 116.654 29.8478 116.624 29.9984C116.624 29.9984 116.608 30.0286 116.624 30.0436C116.624 30.0436 116.624 30.0587 116.624 30.0738C116.624 30.0738 116.624 30.1039 116.624 30.119C116.624 30.119 116.624 30.134 116.624 30.1491C116.624 30.1491 116.624 30.134 116.624 30.119C116.624 30.119 116.624 30.134 116.624 30.1491C116.624 30.1491 116.624 30.1491 116.624 30.1642V30.1943C116.608 30.2998 116.578 30.4052 116.593 30.5107C116.563 30.6614 116.593 30.8121 116.639 30.9627C116.654 31.0531 116.699 31.1435 116.729 31.2339C116.805 31.3997 116.896 31.5503 117.032 31.6709C117.077 31.7161 117.108 31.7462 117.138 31.8065H117.077ZM120.134 29.8779C120.134 29.8779 120.134 29.8779 120.119 29.8478C120.119 29.8478 120.119 29.8628 120.134 29.8779ZM117.819 31.8065C117.819 31.8065 117.834 31.8065 117.849 31.8065C117.849 31.8065 117.834 31.8065 117.819 31.8065ZM116.971 29.2903C116.971 29.2903 116.971 29.3054 116.956 29.3204C116.956 29.3204 116.956 29.3054 116.971 29.2903ZM116.593 30.0436C116.593 30.0436 116.593 30.0587 116.593 30.0738C116.593 30.0738 116.593 30.0587 116.593 30.0436Z" fill="white"/>
<path d="M124.385 44.1916C124.567 44.1464 124.764 44.0861 124.93 43.9957C124.96 43.9806 125.006 43.9806 125.021 43.9354C125.127 43.8902 125.217 43.8149 125.293 43.7094C125.338 43.6793 125.369 43.6341 125.399 43.5738C125.399 43.5738 125.475 43.4985 125.49 43.4533C125.596 43.2876 125.656 43.0917 125.686 42.8958C125.702 42.715 125.686 42.5493 125.656 42.3685C125.656 42.3383 125.656 42.3082 125.626 42.2931C125.581 42.2027 125.55 42.1123 125.505 42.0219C125.429 41.8713 125.354 41.7507 125.248 41.6302C125.021 41.4042 124.764 41.2083 124.491 41.0426C124.264 40.907 124.022 40.8166 123.765 40.7412C123.689 40.7262 123.614 40.696 123.538 40.696C123.538 40.696 123.508 40.681 123.477 40.681C123.372 40.681 123.281 40.6508 123.175 40.6508C122.993 40.6358 122.827 40.6207 122.645 40.6508C122.539 40.6508 122.449 40.6659 122.343 40.6508C122.161 40.6358 121.995 40.6508 121.843 40.7262C121.783 40.7563 121.722 40.7563 121.692 40.8166C121.571 40.8768 121.465 40.9522 121.374 41.0576C121.374 41.0576 121.329 41.1028 121.299 41.133C121.223 41.2384 121.163 41.359 121.132 41.4795C121.102 41.5699 121.072 41.6603 121.072 41.7507C121.057 41.7808 121.057 41.811 121.057 41.8411C121.057 42.037 121.057 42.2178 121.163 42.3835C121.163 42.4137 121.178 42.4589 121.193 42.489C121.223 42.5643 121.238 42.6397 121.299 42.6999V42.715C121.299 42.715 121.299 42.7451 121.314 42.7602C121.511 43.0917 121.737 43.393 122.055 43.619C122.176 43.7094 122.282 43.7848 122.403 43.8601C122.645 43.9957 122.903 44.0861 123.16 44.1614C123.235 44.1765 123.296 44.2066 123.372 44.1916C123.387 44.1916 123.402 44.1916 123.417 44.1916C123.447 44.2066 123.462 44.1916 123.493 44.1916C123.553 44.2217 123.614 44.2217 123.689 44.1916C123.72 44.2066 123.735 44.1916 123.765 44.1916C123.795 44.2066 123.81 44.1916 123.841 44.1916C123.841 44.1916 123.841 44.1916 123.856 44.1916C123.886 44.2066 123.901 44.1916 123.931 44.1916C123.931 44.1916 123.962 44.1916 123.977 44.1916C123.977 44.1916 123.977 44.1916 123.992 44.1916C124.098 44.1916 124.204 44.1765 124.295 44.1464C124.295 44.1464 124.325 44.1464 124.355 44.1464L124.385 44.1916ZM121.268 42.0822C121.268 42.0822 121.268 42.0973 121.268 42.1123C121.268 42.1123 121.268 42.0973 121.268 42.0822ZM121.314 42.6999C121.314 42.6999 121.314 42.6999 121.314 42.715C121.314 42.715 121.314 42.715 121.314 42.6999Z" fill="white"/>
<path d="M121.269 38.5867C121.269 38.5867 121.269 38.602 121.269 38.6173C121.269 38.6173 121.284 38.602 121.269 38.5867Z" fill="white"/>
<path d="M116.835 29.4867C116.835 29.4867 116.835 29.4714 116.851 29.4561C116.851 29.4561 116.835 29.4561 116.835 29.4867Z" fill="white"/>
<path d="M111.736 33.9315C111.736 33.9315 111.736 33.9162 111.752 33.9009C111.752 33.9009 111.736 33.9162 111.736 33.9315Z" fill="white"/>
</g>
<defs>
<clipPath id="clip0_18_7216">
<rect width="129" height="127" fill="white"/>
</clipPath>
</defs>
</svg>
